<svg width="332" height="197" viewBox="0 0 332 197" fill="none" xmlns="http://www.w3.org/2000/svg">
<path d="M154.563 4.17374C161.778 1.48188 169.721 1.48188 176.936 4.17374L310.436 53.9842C322.951 58.6539 331.249 70.6068 331.249 83.9653V113.035C331.249 126.393 322.951 138.346 310.436 143.016L176.936 192.826C169.721 195.518 161.778 195.518 154.563 192.826L21.063 143.016C8.54734 138.346 0.249268 126.393 0.249268 113.035V83.9653C0.249268 70.6068 8.54733 58.6539 21.063 53.9842L154.563 4.17374Z" fill="#11232E"/>
<path d="M162.477 106.4H154.677L153.189 110H149.205L156.693 93.2001H160.533L168.045 110H163.965L162.477 106.4ZM161.253 103.448L158.589 97.0161L155.925 103.448H161.253ZM182.559 92.1921V110H178.983V108.512C178.055 109.632 176.711 110.192 174.951 110.192C173.735 110.192 172.631 109.92 171.639 109.376C170.663 108.832 169.895 108.056 169.335 107.048C168.775 106.04 168.495 104.872 168.495 103.544C168.495 102.216 168.775 101.048 169.335 100.04C169.895 99.0321 170.663 98.2561 171.639 97.7121C172.631 97.1681 173.735 96.8961 174.951 96.8961C176.599 96.8961 177.887 97.4161 178.815 98.4561V92.1921H182.559ZM175.599 107.12C176.543 107.12 177.327 106.8 177.951 106.16C178.575 105.504 178.887 104.632 178.887 103.544C178.887 102.456 178.575 101.592 177.951 100.952C177.327 100.296 176.543 99.9681 175.599 99.9681C174.639 99.9681 173.847 100.296 173.223 100.952C172.599 101.592 172.287 102.456 172.287 103.544C172.287 104.632 172.599 105.504 173.223 106.16C173.847 106.8 174.639 107.12 175.599 107.12ZM198.84 97.0881L193.392 110H189.528L184.104 97.0881H187.968L191.544 105.872L195.24 97.0881H198.84ZM200.368 97.0881H204.112V110H200.368V97.0881ZM202.24 95.2881C201.552 95.2881 200.992 95.0881 200.56 94.6881C200.128 94.2881 199.912 93.7921 199.912 93.2001C199.912 92.6081 200.128 92.1121 200.56 91.7121C200.992 91.3121 201.552 91.1121 202.24 91.1121C202.928 91.1121 203.488 91.3041 203.92 91.6881C204.352 92.0721 204.568 92.5521 204.568 93.1281C204.568 93.7521 204.352 94.2721 203.92 94.6881C203.488 95.0881 202.928 95.2881 202.24 95.2881ZM211.931 110.192C210.859 110.192 209.811 110.064 208.787 109.808C207.763 109.536 206.947 109.2 206.339 108.8L207.587 106.112C208.163 106.48 208.859 106.784 209.675 107.024C210.491 107.248 211.291 107.36 212.075 107.36C213.659 107.36 214.451 106.968 214.451 106.184C214.451 105.816 214.235 105.552 213.803 105.392C213.371 105.232 212.707 105.096 211.811 104.984C210.755 104.824 209.883 104.64 209.195 104.432C208.507 104.224 207.907 103.856 207.395 103.328C206.899 102.8 206.651 102.048 206.651 101.072C206.651 100.256 206.883 99.5361 207.347 98.9121C207.827 98.2721 208.515 97.7761 209.411 97.4241C210.323 97.0721 211.395 96.8961 212.627 96.8961C213.539 96.8961 214.443 97.0001 215.339 97.2081C216.251 97.4001 217.003 97.6721 217.595 98.0241L216.347 100.688C215.211 100.048 213.971 99.7281 212.627 99.7281C211.827 99.7281 211.227 99.8401 210.827 100.064C210.427 100.288 210.227 100.576 210.227 100.928C210.227 101.328 210.443 101.608 210.875 101.768C211.307 101.928 211.995 102.08 212.939 102.224C213.995 102.4 214.859 102.592 215.531 102.8C216.203 102.992 216.787 103.352 217.283 103.88C217.779 104.408 218.027 105.144 218.027 106.088C218.027 106.888 217.787 107.6 217.307 108.224C216.827 108.848 216.123 109.336 215.195 109.688C214.283 110.024 213.195 110.192 211.931 110.192ZM226.481 110.192C225.121 110.192 223.897 109.912 222.809 109.352C221.737 108.776 220.897 107.984 220.289 106.976C219.681 105.968 219.377 104.824 219.377 103.544C219.377 102.264 219.681 101.12 220.289 100.112C220.897 99.1041 221.737 98.3201 222.809 97.7601C223.897 97.1841 225.121 96.8961 226.481 96.8961C227.841 96.8961 229.057 97.1841 230.129 97.7601C231.201 98.3201 232.041 99.1041 232.649 100.112C233.257 101.12 233.561 102.264 233.561 103.544C233.561 104.824 233.257 105.968 232.649 106.976C232.041 107.984 231.201 108.776 230.129 109.352C229.057 109.912 227.841 110.192 226.481 110.192ZM226.481 107.12C227.441 107.12 228.225 106.8 228.833 106.16C229.457 105.504 229.769 104.632 229.769 103.544C229.769 102.456 229.457 101.592 228.833 100.952C228.225 100.296 227.441 99.9681 226.481 99.9681C225.521 99.9681 224.729 100.296 224.105 100.952C223.481 101.592 223.169 102.456 223.169 103.544C223.169 104.632 223.481 105.504 224.105 106.16C224.729 106.8 225.521 107.12 226.481 107.12ZM239.639 98.7921C240.087 98.1681 240.687 97.6961 241.439 97.3761C242.207 97.0561 243.087 96.8961 244.079 96.8961V100.352C243.663 100.32 243.383 100.304 243.239 100.304C242.167 100.304 241.327 100.608 240.719 101.216C240.111 101.808 239.807 102.704 239.807 103.904V110H236.063V97.0881H239.639V98.7921ZM250.696 110.192C249.624 110.192 248.576 110.064 247.552 109.808C246.528 109.536 245.712 109.2 245.104 108.8L246.352 106.112C246.928 106.48 247.624 106.784 248.44 107.024C249.256 107.248 250.056 107.36 250.84 107.36C252.424 107.36 253.216 106.968 253.216 106.184C253.216 105.816 253 105.552 252.568 105.392C252.136 105.232 251.472 105.096 250.576 104.984C249.52 104.824 248.648 104.64 247.96 104.432C247.272 104.224 246.672 103.856 246.16 103.328C245.664 102.8 245.416 102.048 245.416 101.072C245.416 100.256 245.648 99.5361 246.112 98.9121C246.592 98.2721 247.28 97.7761 248.176 97.4241C249.088 97.0721 250.16 96.8961 251.392 96.8961C252.304 96.8961 253.208 97.0001 254.104 97.2081C255.016 97.4001 255.768 97.6721 256.36 98.0241L255.112 100.688C253.976 100.048 252.736 99.7281 251.392 99.7281C250.592 99.7281 249.992 99.8401 249.592 100.064C249.192 100.288 248.992 100.576 248.992 100.928C248.992 101.328 249.208 101.608 249.64 101.768C250.072 101.928 250.76 102.08 251.704 102.224C252.76 102.4 253.624 102.592 254.296 102.8C254.968 102.992 255.552 103.352 256.048 103.88C256.544 104.408 256.792 105.144 256.792 106.088C256.792 106.888 256.552 107.6 256.072 108.224C255.592 108.848 254.888 109.336 253.96 109.688C253.048 110.024 251.96 110.192 250.696 110.192Z" fill="white"/>
<circle cx="75.4211" cy="99" r="42" stroke="#162A36" stroke-width="18"/>
<path fill-rule="evenodd" clip-rule="evenodd" d="M75.6593 42.0014C75.5227 42.0005 75.3861 42 75.2493 42C68.5408 42 62.0938 43.1196 56.085 45.1822L67.0214 77.3855C69.5981 76.4879 72.3667 76 75.2493 76C75.3861 76 75.5227 76.0011 75.659 76.0033L75.6593 42.0014Z" fill="url(#paint0_linear_886_122)"/>
<path d="M75.0995 101.33V104.714H72.6515V107H68.3495C68.3975 106.496 68.4335 105.734 68.4575 104.714H59.9075V101.078C62.7035 98.93 65.1995 96.548 67.3955 93.932H72.6515V101.33H75.0995ZM68.5475 97.496C67.7195 98.348 67.0055 99.062 66.4055 99.638C65.8055 100.202 65.1275 100.766 64.3715 101.33H68.4935L68.5475 97.496ZM87.8764 100.556C88.6684 100.556 89.3464 100.7 89.9104 100.988C90.4744 101.264 90.9004 101.648 91.1884 102.14C91.4884 102.632 91.6384 103.178 91.6384 103.778C91.6384 104.39 91.4884 104.942 91.1884 105.434C90.9004 105.926 90.4744 106.316 89.9104 106.604C89.3464 106.88 88.6684 107.018 87.8764 107.018C87.0724 107.018 86.3824 106.88 85.8064 106.604C85.2424 106.316 84.8104 105.926 84.5104 105.434C84.2224 104.942 84.0784 104.39 84.0784 103.778C84.0784 103.418 84.1324 103.076 84.2404 102.752L81.0544 107.018H76.8964L82.4944 99.53C81.8224 100.106 80.9224 100.394 79.7944 100.394C78.9904 100.394 78.3004 100.256 77.7244 99.98C77.1604 99.692 76.7284 99.302 76.4284 98.81C76.1404 98.318 75.9964 97.766 75.9964 97.154C75.9964 96.554 76.1404 96.008 76.4284 95.516C76.7284 95.024 77.1604 94.64 77.7244 94.364C78.3004 94.076 78.9904 93.932 79.7944 93.932C80.5864 93.932 81.2644 94.076 81.8284 94.364C82.3924 94.64 82.8184 95.024 83.1064 95.516C83.4064 96.008 83.5564 96.554 83.5564 97.154C83.5564 97.634 83.4664 98.072 83.2864 98.468L86.5804 94.076H90.7204L85.3744 101.24C86.0224 100.784 86.8564 100.556 87.8764 100.556ZM79.7944 98.126C80.0464 98.126 80.2744 98.024 80.4784 97.82C80.6944 97.616 80.8024 97.388 80.8024 97.136C80.8024 96.884 80.6944 96.668 80.4784 96.488C80.2744 96.308 80.0464 96.218 79.7944 96.218C79.5184 96.218 79.2724 96.308 79.0564 96.488C78.8524 96.668 78.7504 96.884 78.7504 97.136C78.7504 97.4 78.8524 97.634 79.0564 97.838C79.2724 98.03 79.5184 98.126 79.7944 98.126ZM87.8764 104.75C88.1284 104.75 88.3564 104.648 88.5604 104.444C88.7764 104.24 88.8844 104.012 88.8844 103.76C88.8844 103.508 88.7764 103.292 88.5604 103.112C88.3564 102.932 88.1284 102.842 87.8764 102.842C87.6004 102.842 87.3544 102.932 87.1384 103.112C86.9344 103.292 86.8324 103.508 86.8324 103.76C86.8324 104.024 86.9344 104.258 87.1384 104.462C87.3544 104.654 87.6004 104.75 87.8764 104.75Z" fill="white"/>
<defs>
<linearGradient id="paint0_linear_886_122" x1="56.0321" y1="46.9344" x2="62.2771" y2="80.7848" gradientUnits="userSpaceOnUse">
<stop stop-color="#A4FF31"/>
<stop offset="1" stop-color="#005F3D"/>
</linearGradient>
</defs>
</svg>
