<svg width="414" height="1015" viewBox="0 0 414 1015" fill="none" xmlns="http://www.w3.org/2000/svg">
<path d="M131.681 223.027C136.902 221.079 142.651 221.079 147.872 223.027L244.49 259.076C253.548 262.456 259.553 271.106 259.553 280.774V301.812C259.553 311.48 253.548 320.131 244.49 323.511L147.872 359.56C142.651 361.508 136.902 361.508 131.681 359.56L35.0634 323.511C26.0055 320.131 20 311.48 20 301.812V280.774C20 271.106 26.0055 262.456 35.0634 259.076L131.681 223.027Z" fill="#11232E"/>
<path d="M138.309 288.657H134.418V286.364H145.013V288.657H141.123V298.523H138.309V288.657ZM149.833 298.662C148.849 298.662 147.963 298.459 147.176 298.054C146.4 297.637 145.792 297.064 145.352 296.334C144.912 295.605 144.692 294.777 144.692 293.851C144.692 292.924 144.912 292.096 145.352 291.367C145.792 290.637 146.4 290.07 147.176 289.665C147.963 289.248 148.849 289.039 149.833 289.039C150.817 289.039 151.697 289.248 152.473 289.665C153.249 290.07 153.857 290.637 154.297 291.367C154.737 292.096 154.957 292.924 154.957 293.851C154.957 294.777 154.737 295.605 154.297 296.334C153.857 297.064 153.249 297.637 152.473 298.054C151.697 298.459 150.817 298.662 149.833 298.662ZM149.833 296.439C150.528 296.439 151.095 296.207 151.535 295.744C151.987 295.269 152.213 294.638 152.213 293.851C152.213 293.063 151.987 292.438 151.535 291.975C151.095 291.5 150.528 291.263 149.833 291.263C149.138 291.263 148.565 291.5 148.113 291.975C147.662 292.438 147.436 293.063 147.436 293.851C147.436 294.638 147.662 295.269 148.113 295.744C148.565 296.207 149.138 296.439 149.833 296.439ZM160.781 294.858L159.478 296.143V298.523H156.768V285.635H159.478V292.93L163.438 289.178H166.669L162.778 293.138L167.016 298.523H163.733L160.781 294.858ZM176.981 293.885C176.981 293.92 176.964 294.163 176.929 294.615H169.86C169.987 295.194 170.288 295.651 170.763 295.987C171.238 296.323 171.828 296.491 172.535 296.491C173.021 296.491 173.45 296.421 173.82 296.282C174.202 296.132 174.555 295.9 174.88 295.588L176.321 297.151C175.441 298.158 174.156 298.662 172.465 298.662C171.412 298.662 170.479 298.459 169.669 298.054C168.858 297.637 168.233 297.064 167.793 296.334C167.353 295.605 167.133 294.777 167.133 293.851C167.133 292.936 167.347 292.114 167.776 291.384C168.216 290.643 168.812 290.07 169.565 289.665C170.329 289.248 171.18 289.039 172.118 289.039C173.033 289.039 173.861 289.236 174.602 289.63C175.343 290.024 175.922 290.591 176.339 291.332C176.767 292.062 176.981 292.913 176.981 293.885ZM172.135 291.089C171.522 291.089 171.006 291.263 170.589 291.61C170.173 291.957 169.918 292.432 169.825 293.034H174.428C174.335 292.444 174.081 291.975 173.664 291.627C173.247 291.268 172.737 291.089 172.135 291.089ZM184.465 289.039C185.623 289.039 186.555 289.387 187.262 290.081C187.979 290.776 188.338 291.807 188.338 293.173V298.523H185.629V293.59C185.629 292.849 185.467 292.299 185.142 291.94C184.818 291.569 184.349 291.384 183.736 291.384C183.052 291.384 182.508 291.598 182.103 292.027C181.698 292.444 181.495 293.069 181.495 293.903V298.523H178.785V289.178H181.373V290.272C181.732 289.879 182.178 289.578 182.711 289.369C183.243 289.149 183.828 289.039 184.465 289.039ZM193.938 298.662C193.163 298.662 192.404 298.569 191.663 298.384C190.922 298.187 190.331 297.944 189.891 297.654L190.795 295.709C191.211 295.975 191.715 296.195 192.306 296.369C192.896 296.531 193.475 296.612 194.043 296.612C195.189 296.612 195.762 296.329 195.762 295.761C195.762 295.495 195.606 295.304 195.293 295.188C194.981 295.072 194.5 294.974 193.852 294.893C193.087 294.777 192.456 294.644 191.958 294.493C191.46 294.343 191.026 294.076 190.656 293.694C190.297 293.312 190.117 292.768 190.117 292.062C190.117 291.471 190.285 290.95 190.621 290.498C190.968 290.035 191.466 289.676 192.115 289.421C192.775 289.167 193.551 289.039 194.442 289.039C195.102 289.039 195.756 289.115 196.405 289.265C197.065 289.404 197.609 289.601 198.038 289.856L197.134 291.784C196.312 291.32 195.415 291.089 194.442 291.089C193.863 291.089 193.429 291.17 193.139 291.332C192.85 291.494 192.705 291.703 192.705 291.957C192.705 292.247 192.862 292.449 193.174 292.565C193.487 292.681 193.985 292.791 194.668 292.895C195.432 293.023 196.058 293.162 196.544 293.312C197.03 293.451 197.453 293.712 197.812 294.094C198.171 294.476 198.35 295.009 198.35 295.692C198.35 296.271 198.177 296.786 197.829 297.238C197.482 297.689 196.972 298.042 196.301 298.297C195.641 298.54 194.853 298.662 193.938 298.662ZM203.791 289.039C205.239 289.039 206.35 289.387 207.126 290.081C207.902 290.765 208.29 291.801 208.29 293.191V298.523H205.754V297.359C205.245 298.228 204.295 298.662 202.905 298.662C202.187 298.662 201.562 298.54 201.03 298.297C200.508 298.054 200.109 297.718 199.831 297.29C199.553 296.861 199.414 296.375 199.414 295.831C199.414 294.962 199.738 294.279 200.387 293.781C201.047 293.283 202.06 293.034 203.427 293.034H205.58C205.58 292.444 205.401 291.992 205.042 291.679C204.683 291.355 204.144 291.193 203.427 291.193C202.929 291.193 202.436 291.274 201.95 291.436C201.475 291.587 201.07 291.795 200.734 292.062L199.762 290.168C200.271 289.809 200.879 289.531 201.585 289.335C202.303 289.138 203.039 289.039 203.791 289.039ZM203.583 296.838C204.046 296.838 204.457 296.734 204.816 296.525C205.175 296.305 205.43 295.987 205.58 295.57V294.615H203.722C202.61 294.615 202.054 294.98 202.054 295.709C202.054 296.056 202.187 296.334 202.454 296.543C202.732 296.74 203.108 296.838 203.583 296.838ZM210.742 285.635H213.452V298.523H210.742V285.635ZM225.12 293.885C225.12 293.92 225.103 294.163 225.068 294.615H217.999C218.126 295.194 218.427 295.651 218.902 295.987C219.377 296.323 219.967 296.491 220.674 296.491C221.16 296.491 221.589 296.421 221.959 296.282C222.341 296.132 222.694 295.9 223.019 295.588L224.46 297.151C223.58 298.158 222.295 298.662 220.604 298.662C219.551 298.662 218.618 298.459 217.808 298.054C216.997 297.637 216.372 297.064 215.932 296.334C215.492 295.605 215.272 294.777 215.272 293.851C215.272 292.936 215.486 292.114 215.915 291.384C216.355 290.643 216.951 290.07 217.704 289.665C218.468 289.248 219.319 289.039 220.257 289.039C221.172 289.039 222 289.236 222.741 289.63C223.482 290.024 224.061 290.591 224.478 291.332C224.906 292.062 225.12 292.913 225.12 293.885ZM220.274 291.089C219.661 291.089 219.145 291.263 218.728 291.61C218.312 291.957 218.057 292.432 217.964 293.034H222.567C222.474 292.444 222.22 291.975 221.803 291.627C221.386 291.268 220.876 291.089 220.274 291.089Z" fill="white"/>
<circle cx="78.6218" cy="290.208" r="30.3965" stroke="#162A36" stroke-width="13.0271"/>
<path fill-rule="evenodd" clip-rule="evenodd" d="M75.5629 308.044C76.5572 308.213 77.5792 308.302 78.6218 308.302C84.3515 308.302 89.4592 305.638 92.7743 301.482L112.768 315.85C104.977 326.209 92.5816 332.908 78.6218 332.908C75.9022 332.908 73.2419 332.654 70.6636 332.168L75.5629 308.044Z" fill="url(#paint0_linear_1121_358)"/>
<path d="M67.3565 293.519C70.179 293.363 72.3676 293.189 73.9222 292.998C73.7745 293.45 73.6616 293.928 73.5835 294.431C73.5053 294.935 73.4662 295.391 73.4662 295.799H64.1519L64.1388 295.526C64.1388 294.674 64.3863 293.936 64.8814 293.311C65.3851 292.686 66.0842 292.108 66.9787 291.578C67.2393 291.422 67.6475 291.222 68.2033 290.979C68.9241 290.666 69.4799 290.393 69.8707 290.158C70.2616 289.915 70.457 289.676 70.457 289.442C70.457 289.147 70.3354 288.912 70.0922 288.738C69.849 288.565 69.4712 288.478 68.9588 288.478C68.3943 288.478 67.9644 288.621 67.6692 288.908C67.3826 289.194 67.2393 289.559 67.2393 290.002C67.2393 290.141 67.2523 290.284 67.2784 290.432C66.1841 290.293 65.1202 290.197 64.0867 290.145C64.0867 289.407 64.2778 288.743 64.6599 288.152C65.0507 287.553 65.6326 287.08 66.4055 286.732C67.1872 286.385 68.1425 286.211 69.2715 286.211C70.305 286.211 71.1648 286.354 71.8509 286.641C72.5456 286.919 73.0537 287.275 73.375 287.709C73.705 288.135 73.87 288.573 73.87 289.025C73.87 289.546 73.7528 289.993 73.5183 290.367C73.2925 290.74 72.9625 291.075 72.5283 291.37C72.1027 291.656 71.5295 291.969 70.8087 292.308C70.7045 292.36 70.5351 292.421 70.3006 292.49C70.0661 292.551 69.9185 292.59 69.8577 292.607C69.2411 292.79 68.7504 292.942 68.3857 293.063C68.0209 293.185 67.6779 293.337 67.3565 293.519ZM80.2007 293.389C80.9823 293.372 81.5598 293.354 81.9333 293.337V295.799H75.042V293.337C75.9799 293.372 76.6877 293.389 77.1654 293.389V288.895C76.8527 289.581 76.2144 290.024 75.2504 290.223C75.2244 289.199 75.1288 288.265 74.9638 287.423C75.6586 287.327 76.1406 287.21 76.4098 287.071C76.6877 286.923 76.9005 286.763 77.0481 286.589C77.2045 286.415 77.3087 286.298 77.3608 286.237V286.211H80.2007V293.389ZM90.8293 291.135C91.4025 291.135 91.8932 291.24 92.3014 291.448C92.7096 291.648 93.0179 291.926 93.2263 292.282C93.4434 292.638 93.552 293.033 93.552 293.467C93.552 293.91 93.4434 294.31 93.2263 294.666C93.0179 295.022 92.7096 295.304 92.3014 295.512C91.8932 295.712 91.4025 295.812 90.8293 295.812C90.2475 295.812 89.7481 295.712 89.3312 295.512C88.9231 295.304 88.6104 295.022 88.3933 294.666C88.1849 294.31 88.0806 293.91 88.0806 293.467C88.0806 293.207 88.1197 292.959 88.1979 292.725L85.8921 295.812H82.8828L86.9343 290.393C86.4479 290.81 85.7966 291.018 84.9802 291.018C84.3983 291.018 83.8989 290.918 83.4821 290.719C83.0739 290.51 82.7613 290.228 82.5441 289.872C82.3357 289.516 82.2315 289.116 82.2315 288.673C82.2315 288.239 82.3357 287.844 82.5441 287.488C82.7613 287.132 83.0739 286.854 83.4821 286.654C83.8989 286.446 84.3983 286.341 84.9802 286.341C85.5534 286.341 86.0441 286.446 86.4523 286.654C86.8604 286.854 87.1687 287.132 87.3772 287.488C87.5943 287.844 87.7029 288.239 87.7029 288.673C87.7029 289.021 87.6377 289.338 87.5074 289.624L89.8914 286.446H92.8876L89.0186 291.63C89.4876 291.3 90.0911 291.135 90.8293 291.135ZM84.9802 289.377C85.1626 289.377 85.3276 289.303 85.4752 289.155C85.6315 289.008 85.7097 288.843 85.7097 288.66C85.7097 288.478 85.6315 288.322 85.4752 288.191C85.3276 288.061 85.1626 287.996 84.9802 287.996C84.7804 287.996 84.6024 288.061 84.4461 288.191C84.2984 288.322 84.2246 288.478 84.2246 288.66C84.2246 288.851 84.2984 289.021 84.4461 289.168C84.6024 289.307 84.7804 289.377 84.9802 289.377ZM90.8293 294.171C91.0117 294.171 91.1767 294.097 91.3244 293.949C91.4807 293.802 91.5589 293.637 91.5589 293.454C91.5589 293.272 91.4807 293.115 91.3244 292.985C91.1767 292.855 91.0117 292.79 90.8293 292.79C90.6296 292.79 90.4516 292.855 90.2952 292.985C90.1476 293.115 90.0738 293.272 90.0738 293.454C90.0738 293.645 90.1476 293.815 90.2952 293.962C90.4516 294.101 90.6296 294.171 90.8293 294.171Z" fill="white"/>
<path opacity="0.7" d="M383.681 223.027C388.902 221.079 394.651 221.079 399.872 223.027L496.49 259.076C505.548 262.456 511.553 271.106 511.553 280.774V301.812C511.553 311.48 505.548 320.131 496.49 323.511L399.872 359.56C394.651 361.508 388.902 361.508 383.681 359.56L287.063 323.511C278.006 320.131 272 311.48 272 301.812V280.774C272 271.106 278.006 262.456 287.063 259.076L383.681 223.027Z" fill="#0D1D27"/>
<path opacity="0.4" d="M5.85191 113.021C11.0733 111.072 16.8221 111.072 22.0435 113.021L118.661 149.07C127.719 152.449 133.724 161.1 133.724 170.768V191.806C133.724 201.474 127.719 210.125 118.661 213.504L22.0435 249.553C16.8221 251.501 11.0733 251.501 5.8519 249.553L-90.7655 213.504C-99.8233 210.125 -105.829 201.474 -105.829 191.806V170.768C-105.829 161.1 -99.8233 152.449 -90.7655 149.07L5.85191 113.021Z" fill="#0D1D27"/>
<path opacity="0.4" d="M131.681 3.02064C136.902 1.07247 142.651 1.07247 147.872 3.02064L244.49 39.0697C253.548 42.4493 259.553 51.1 259.553 60.7678V81.8061C259.553 91.4739 253.548 100.125 244.49 103.504L147.872 139.553C142.651 141.501 136.902 141.501 131.681 139.553L35.0634 103.504C26.0055 100.125 20 91.4739 20 81.8061V60.7678C20 51.1 26.0055 42.4493 35.0634 39.0697L131.681 3.02064Z" fill="#0D1D27"/>
<path opacity="0.4" d="M383.681 3.02064C388.902 1.07247 394.651 1.07247 399.872 3.02064L496.49 39.0697C505.548 42.4493 511.553 51.1 511.553 60.7678V81.8061C511.553 91.4739 505.548 100.125 496.49 103.504L399.872 139.553C394.651 141.501 388.902 141.501 383.681 139.553L287.063 103.504C278.006 100.125 272 91.4739 272 81.8061V60.7678C272 51.1 278.006 42.4493 287.063 39.0697L383.681 3.02064Z" fill="#0D1D27"/>
<path opacity="0.4" d="M383.681 440.868C388.902 438.92 394.651 438.92 399.872 440.868L496.49 476.917C505.548 480.297 511.553 488.948 511.553 498.615V519.654C511.553 529.322 505.548 537.972 496.49 541.352L399.872 577.401C394.651 579.349 388.902 579.349 383.681 577.401L287.063 541.352C278.006 537.972 272 529.322 272 519.654V498.615C272 488.948 278.006 480.297 287.063 476.917L383.681 440.868Z" fill="#0D1D27"/>
<path d="M259.156 113.021C264.377 111.072 270.126 111.072 275.347 113.021L371.965 149.07C381.023 152.449 387.028 161.1 387.028 170.768V191.806C387.028 201.474 381.023 210.125 371.965 213.504L275.347 249.553C270.126 251.501 264.377 251.501 259.156 249.553L162.538 213.504C153.481 210.125 147.475 201.474 147.475 191.806V170.768C147.475 161.1 153.481 152.449 162.539 149.07L259.156 113.021Z" fill="#11232E"/>
<path d="M271.862 185.535V187.793H262.448V175.634H271.637V177.892H265.245V180.533H270.89V182.721H265.245V185.535H271.862ZM278.358 187.932C277.363 187.932 276.465 187.729 275.666 187.324C274.879 186.907 274.259 186.334 273.808 185.604C273.368 184.875 273.148 184.047 273.148 183.121C273.148 182.194 273.368 181.366 273.808 180.637C274.259 179.907 274.879 179.34 275.666 178.935C276.465 178.518 277.363 178.309 278.358 178.309C279.343 178.309 280.2 178.518 280.929 178.935C281.67 179.34 282.209 179.925 282.545 180.689L280.443 181.818C279.956 180.961 279.256 180.533 278.341 180.533C277.635 180.533 277.05 180.764 276.587 181.227C276.124 181.691 275.892 182.322 275.892 183.121C275.892 183.92 276.124 184.551 276.587 185.014C277.05 185.477 277.635 185.709 278.341 185.709C279.267 185.709 279.968 185.28 280.443 184.423L282.545 185.57C282.209 186.311 281.67 186.89 280.929 187.307C280.2 187.723 279.343 187.932 278.358 187.932ZM288.432 187.932C287.448 187.932 286.562 187.729 285.775 187.324C284.999 186.907 284.391 186.334 283.951 185.604C283.511 184.875 283.291 184.047 283.291 183.121C283.291 182.194 283.511 181.366 283.951 180.637C284.391 179.907 284.999 179.34 285.775 178.935C286.562 178.518 287.448 178.309 288.432 178.309C289.417 178.309 290.297 178.518 291.073 178.935C291.848 179.34 292.456 179.907 292.896 180.637C293.336 181.366 293.556 182.194 293.556 183.121C293.556 184.047 293.336 184.875 292.896 185.604C292.456 186.334 291.848 186.907 291.073 187.324C290.297 187.729 289.417 187.932 288.432 187.932ZM288.432 185.709C289.127 185.709 289.695 185.477 290.135 185.014C290.586 184.539 290.812 183.908 290.812 183.121C290.812 182.333 290.586 181.708 290.135 181.245C289.695 180.77 289.127 180.533 288.432 180.533C287.738 180.533 287.165 180.77 286.713 181.245C286.261 181.708 286.036 182.333 286.036 183.121C286.036 183.908 286.261 184.539 286.713 185.014C287.165 185.477 287.738 185.709 288.432 185.709ZM298.511 187.932C297.736 187.932 296.977 187.839 296.236 187.654C295.495 187.457 294.904 187.214 294.464 186.924L295.368 184.979C295.784 185.245 296.288 185.465 296.879 185.639C297.469 185.801 298.048 185.882 298.616 185.882C299.762 185.882 300.335 185.599 300.335 185.031C300.335 184.765 300.179 184.574 299.866 184.458C299.554 184.342 299.073 184.244 298.425 184.163C297.66 184.047 297.029 183.914 296.531 183.763C296.033 183.613 295.599 183.346 295.229 182.964C294.87 182.582 294.69 182.038 294.69 181.332C294.69 180.741 294.858 180.22 295.194 179.768C295.541 179.305 296.039 178.946 296.688 178.691C297.348 178.437 298.124 178.309 299.015 178.309C299.675 178.309 300.329 178.385 300.978 178.535C301.638 178.674 302.182 178.871 302.611 179.126L301.707 181.054C300.885 180.59 299.988 180.359 299.015 180.359C298.436 180.359 298.002 180.44 297.712 180.602C297.423 180.764 297.278 180.973 297.278 181.227C297.278 181.517 297.435 181.719 297.747 181.835C298.06 181.951 298.558 182.061 299.241 182.165C300.005 182.293 300.631 182.432 301.117 182.582C301.603 182.721 302.026 182.982 302.385 183.364C302.744 183.746 302.923 184.279 302.923 184.962C302.923 185.541 302.75 186.056 302.402 186.508C302.055 186.959 301.545 187.312 300.874 187.567C300.214 187.81 299.426 187.932 298.511 187.932ZM313.701 178.448L309.48 188.366C309.052 189.443 308.519 190.202 307.882 190.642C307.257 191.082 306.498 191.302 305.607 191.302C305.12 191.302 304.64 191.226 304.165 191.076C303.69 190.925 303.302 190.717 303.001 190.45L303.991 188.522C304.2 188.708 304.437 188.853 304.703 188.957C304.981 189.061 305.253 189.113 305.52 189.113C305.89 189.113 306.191 189.02 306.423 188.835C306.655 188.661 306.863 188.366 307.048 187.949L307.083 187.862L303.036 178.448H305.832L308.455 184.788L311.095 178.448H313.701ZM317.815 187.932C317.039 187.932 316.28 187.839 315.539 187.654C314.798 187.457 314.208 187.214 313.768 186.924L314.671 184.979C315.088 185.245 315.591 185.465 316.182 185.639C316.772 185.801 317.351 185.882 317.919 185.882C319.065 185.882 319.638 185.599 319.638 185.031C319.638 184.765 319.482 184.574 319.169 184.458C318.857 184.342 318.376 184.244 317.728 184.163C316.964 184.047 316.332 183.914 315.834 183.763C315.337 183.613 314.902 183.346 314.532 182.964C314.173 182.582 313.993 182.038 313.993 181.332C313.993 180.741 314.161 180.22 314.497 179.768C314.844 179.305 315.342 178.946 315.991 178.691C316.651 178.437 317.427 178.309 318.318 178.309C318.978 178.309 319.633 178.385 320.281 178.535C320.941 178.674 321.485 178.871 321.914 179.126L321.011 181.054C320.188 180.59 319.291 180.359 318.318 180.359C317.739 180.359 317.305 180.44 317.016 180.602C316.726 180.764 316.581 180.973 316.581 181.227C316.581 181.517 316.738 181.719 317.05 181.835C317.363 181.951 317.861 182.061 318.544 182.165C319.308 182.293 319.934 182.432 320.42 182.582C320.906 182.721 321.329 182.982 321.688 183.364C322.047 183.746 322.226 184.279 322.226 184.962C322.226 185.541 322.053 186.056 321.705 186.508C321.358 186.959 320.848 187.312 320.177 187.567C319.517 187.81 318.729 187.932 317.815 187.932ZM329.925 187.341C329.659 187.538 329.329 187.689 328.935 187.793C328.553 187.886 328.148 187.932 327.72 187.932C326.608 187.932 325.745 187.648 325.131 187.081C324.529 186.513 324.228 185.68 324.228 184.58V180.741H322.787V178.657H324.228V176.381H326.938V178.657H329.265V180.741H326.938V184.545C326.938 184.939 327.036 185.245 327.233 185.465C327.442 185.674 327.731 185.778 328.102 185.778C328.53 185.778 328.895 185.662 329.196 185.431L329.925 187.341ZM340.312 183.155C340.312 183.19 340.294 183.433 340.26 183.885H333.19C333.318 184.464 333.619 184.921 334.094 185.257C334.568 185.593 335.159 185.761 335.865 185.761C336.352 185.761 336.78 185.691 337.151 185.552C337.533 185.402 337.886 185.17 338.21 184.858L339.652 186.421C338.772 187.428 337.486 187.932 335.796 187.932C334.742 187.932 333.81 187.729 332.999 187.324C332.189 186.907 331.563 186.334 331.123 185.604C330.683 184.875 330.463 184.047 330.463 183.121C330.463 182.206 330.678 181.384 331.106 180.654C331.546 179.913 332.142 179.34 332.895 178.935C333.659 178.518 334.51 178.309 335.448 178.309C336.363 178.309 337.191 178.506 337.932 178.9C338.673 179.294 339.252 179.861 339.669 180.602C340.098 181.332 340.312 182.183 340.312 183.155ZM335.466 180.359C334.852 180.359 334.337 180.533 333.92 180.88C333.503 181.227 333.248 181.702 333.156 182.304H337.758C337.666 181.714 337.411 181.245 336.994 180.897C336.577 180.538 336.068 180.359 335.466 180.359ZM354.083 178.309C355.253 178.309 356.179 178.657 356.862 179.351C357.557 180.035 357.905 181.065 357.905 182.443V187.793H355.195V182.86C355.195 182.119 355.039 181.569 354.726 181.21C354.425 180.839 353.991 180.654 353.423 180.654C352.786 180.654 352.283 180.863 351.912 181.279C351.542 181.685 351.356 182.293 351.356 183.103V187.793H348.647V182.86C348.647 181.389 348.056 180.654 346.875 180.654C346.25 180.654 345.752 180.863 345.381 181.279C345.011 181.685 344.825 182.293 344.825 183.103V187.793H342.116V178.448H344.704V179.525C345.051 179.131 345.474 178.83 345.972 178.622C346.481 178.413 347.037 178.309 347.639 178.309C348.299 178.309 348.896 178.442 349.428 178.709C349.961 178.964 350.389 179.34 350.714 179.838C351.096 179.351 351.576 178.975 352.155 178.709C352.746 178.442 353.389 178.309 354.083 178.309Z" fill="white"/>
<circle cx="205.373" cy="180.201" r="30.3965" stroke="#162A36" stroke-width="13.0271"/>
<path fill-rule="evenodd" clip-rule="evenodd" d="M205.669 138.95C229.115 139.109 248.073 158.165 248.073 181.648C248.073 191.173 244.955 199.969 239.683 207.072L219.595 192.835C222.02 189.756 223.466 185.871 223.466 181.648C223.466 171.755 215.525 163.716 205.669 163.558L205.669 138.95Z" fill="url(#paint1_linear_1121_358)"/>
<path d="M197.235 180.999C197.547 180.938 197.856 180.907 198.16 180.907C198.689 180.907 199.119 180.999 199.449 181.181C199.788 181.355 200.031 181.58 200.179 181.858C200.327 182.128 200.4 182.41 200.4 182.705C200.4 183.391 200.175 183.977 199.723 184.464C199.271 184.941 198.659 185.306 197.886 185.558C197.113 185.801 196.253 185.923 195.307 185.923C192.562 185.923 190.786 184.967 189.979 183.057L190.708 182.874C191.247 182.744 191.703 182.623 192.076 182.51C192.458 182.388 192.793 182.253 193.079 182.106C193.253 182.54 193.5 182.853 193.822 183.044C194.152 183.226 194.603 183.317 195.177 183.317C195.784 183.317 196.279 183.248 196.662 183.109C197.044 182.97 197.235 182.762 197.235 182.484C197.235 182.336 197.161 182.223 197.013 182.145C196.866 182.067 196.631 182.015 196.31 181.989C195.989 181.954 195.537 181.936 194.955 181.936H193.965V179.657H194.564C195.224 179.657 195.763 179.631 196.18 179.579C196.596 179.518 196.805 179.392 196.805 179.201C196.805 178.984 196.692 178.81 196.466 178.68C196.249 178.541 195.906 178.471 195.437 178.471C194.829 178.471 194.334 178.597 193.952 178.849C193.579 179.101 193.288 179.466 193.079 179.943C192.15 179.57 191.16 179.305 190.109 179.149C190.526 178.211 191.164 177.486 192.024 176.973C192.892 176.461 194.008 176.205 195.372 176.205C196.258 176.205 197.052 176.322 197.756 176.556C198.468 176.782 199.024 177.099 199.423 177.507C199.832 177.915 200.036 178.371 200.036 178.875C200.036 179.17 199.966 179.435 199.827 179.67C199.688 179.896 199.415 180.121 199.006 180.347C198.598 180.564 198.008 180.781 197.235 180.999ZM207.407 179.136C208.397 179.136 209.227 179.275 209.895 179.553C210.573 179.822 211.076 180.191 211.406 180.66C211.745 181.12 211.914 181.637 211.914 182.21C211.914 183.513 211.458 184.459 210.547 185.05C209.643 185.632 208.432 185.923 206.912 185.923C205.635 185.923 204.511 185.71 203.538 185.284C202.574 184.85 201.875 184.125 201.441 183.109C201.918 183.039 202.439 182.927 203.004 182.77C203.577 182.614 204.094 182.453 204.554 182.288C204.737 182.662 204.993 182.935 205.323 183.109C205.653 183.274 206.096 183.356 206.652 183.356C207.242 183.356 207.728 183.261 208.111 183.07C208.501 182.879 208.697 182.614 208.697 182.275C208.697 181.928 208.527 181.637 208.189 181.402C207.85 181.168 207.333 181.051 206.638 181.051C206.187 181.051 205.774 181.133 205.401 181.298C205.027 181.454 204.758 181.68 204.593 181.976H201.584C201.792 181.081 201.975 180.117 202.131 179.084C202.296 178.05 202.396 177.134 202.431 176.335H211.576V178.862C210.612 178.801 209.7 178.767 208.84 178.758C207.989 178.74 206.795 178.732 205.258 178.732L205.127 179.461C205.787 179.244 206.547 179.136 207.407 179.136ZM221.161 181.129C221.734 181.129 222.225 181.233 222.633 181.441C223.041 181.641 223.349 181.919 223.558 182.275C223.775 182.631 223.884 183.026 223.884 183.461C223.884 183.904 223.775 184.303 223.558 184.659C223.349 185.015 223.041 185.297 222.633 185.506C222.225 185.706 221.734 185.806 221.161 185.806C220.579 185.806 220.08 185.706 219.663 185.506C219.255 185.297 218.942 185.015 218.725 184.659C218.516 184.303 218.412 183.904 218.412 183.461C218.412 183.2 218.451 182.953 218.529 182.718L216.224 185.806H213.214L217.266 180.386C216.779 180.803 216.128 181.012 215.312 181.012C214.73 181.012 214.231 180.912 213.814 180.712C213.405 180.503 213.093 180.221 212.876 179.865C212.667 179.509 212.563 179.11 212.563 178.667C212.563 178.232 212.667 177.837 212.876 177.481C213.093 177.125 213.405 176.847 213.814 176.647C214.231 176.439 214.73 176.335 215.312 176.335C215.885 176.335 216.376 176.439 216.784 176.647C217.192 176.847 217.5 177.125 217.709 177.481C217.926 177.837 218.034 178.232 218.034 178.667C218.034 179.014 217.969 179.331 217.839 179.618L220.223 176.439H223.219L219.35 181.624C219.819 181.294 220.423 181.129 221.161 181.129ZM215.312 179.37C215.494 179.37 215.659 179.296 215.807 179.149C215.963 179.001 216.041 178.836 216.041 178.654C216.041 178.471 215.963 178.315 215.807 178.185C215.659 178.054 215.494 177.989 215.312 177.989C215.112 177.989 214.934 178.054 214.778 178.185C214.63 178.315 214.556 178.471 214.556 178.654C214.556 178.845 214.63 179.014 214.778 179.162C214.934 179.301 215.112 179.37 215.312 179.37ZM221.161 184.164C221.343 184.164 221.508 184.09 221.656 183.943C221.812 183.795 221.89 183.63 221.89 183.448C221.89 183.265 221.812 183.109 221.656 182.979C221.508 182.848 221.343 182.783 221.161 182.783C220.961 182.783 220.783 182.848 220.627 182.979C220.479 183.109 220.405 183.265 220.405 183.448C220.405 183.639 220.479 183.808 220.627 183.956C220.783 184.095 220.961 184.164 221.161 184.164Z" fill="white"/>
<path d="M259.156 333.033C264.377 331.085 270.126 331.085 275.347 333.033L371.965 369.082C381.023 372.462 387.028 381.113 387.028 390.78V411.819C387.028 421.487 381.023 430.137 371.965 433.517L275.347 469.566C270.126 471.514 264.377 471.514 259.156 469.566L162.538 433.517C153.481 430.137 147.475 421.487 147.475 411.819V390.78C147.475 381.113 153.481 372.462 162.539 369.082L259.156 333.033Z" fill="#11232E"/>
<path d="M263.613 398.663H259.722V396.371H270.318V398.663H266.427V408.529H263.613V398.663ZM279.844 403.892C279.844 403.926 279.827 404.17 279.792 404.621H272.723C272.85 405.2 273.151 405.658 273.626 405.993C274.101 406.329 274.691 406.497 275.398 406.497C275.884 406.497 276.313 406.428 276.683 406.289C277.065 406.138 277.418 405.907 277.743 405.594L279.184 407.157C278.304 408.165 277.019 408.668 275.328 408.668C274.275 408.668 273.342 408.466 272.532 408.06C271.721 407.643 271.096 407.07 270.656 406.341C270.216 405.611 269.996 404.783 269.996 403.857C269.996 402.942 270.21 402.12 270.639 401.39C271.079 400.649 271.675 400.076 272.428 399.671C273.192 399.254 274.043 399.046 274.981 399.046C275.896 399.046 276.724 399.242 277.465 399.636C278.206 400.03 278.785 400.597 279.202 401.338C279.63 402.068 279.844 402.919 279.844 403.892ZM274.998 401.095C274.385 401.095 273.869 401.269 273.452 401.616C273.036 401.964 272.781 402.438 272.688 403.041H277.291C277.198 402.45 276.944 401.981 276.527 401.634C276.11 401.275 275.6 401.095 274.998 401.095ZM285.163 399.046C286.611 399.046 287.722 399.393 288.498 400.088C289.274 400.771 289.662 401.807 289.662 403.197V408.529H287.126V407.366C286.616 408.234 285.667 408.668 284.277 408.668C283.559 408.668 282.934 408.547 282.401 408.303C281.88 408.06 281.481 407.725 281.203 407.296C280.925 406.868 280.786 406.381 280.786 405.837C280.786 404.969 281.11 404.285 281.759 403.787C282.419 403.29 283.432 403.041 284.798 403.041H286.952C286.952 402.45 286.773 401.998 286.414 401.686C286.055 401.362 285.516 401.199 284.798 401.199C284.3 401.199 283.808 401.28 283.322 401.443C282.847 401.593 282.442 401.802 282.106 402.068L281.133 400.175C281.643 399.816 282.251 399.538 282.957 399.341C283.675 399.144 284.41 399.046 285.163 399.046ZM284.955 406.844C285.418 406.844 285.829 406.74 286.188 406.532C286.547 406.312 286.802 405.993 286.952 405.576V404.621H285.094C283.982 404.621 283.426 404.986 283.426 405.715C283.426 406.063 283.559 406.341 283.826 406.549C284.104 406.746 284.48 406.844 284.955 406.844ZM304.082 399.046C305.251 399.046 306.178 399.393 306.861 400.088C307.555 400.771 307.903 401.802 307.903 403.18V408.529H305.193V403.596C305.193 402.855 305.037 402.305 304.724 401.946C304.423 401.576 303.989 401.39 303.422 401.39C302.785 401.39 302.281 401.599 301.91 402.016C301.54 402.421 301.355 403.029 301.355 403.84V408.529H298.645V403.596C298.645 402.126 298.054 401.39 296.873 401.39C296.248 401.39 295.75 401.599 295.38 402.016C295.009 402.421 294.824 403.029 294.824 403.84V408.529H292.114V399.185H294.702V400.261C295.05 399.868 295.472 399.567 295.97 399.358C296.48 399.15 297.035 399.046 297.638 399.046C298.298 399.046 298.894 399.179 299.427 399.445C299.959 399.7 300.388 400.076 300.712 400.574C301.094 400.088 301.575 399.711 302.154 399.445C302.744 399.179 303.387 399.046 304.082 399.046Z" fill="white"/>
<circle cx="205.373" cy="400.214" r="30.3965" stroke="#162A36" stroke-width="13.0271"/>
<path fill-rule="evenodd" clip-rule="evenodd" d="M189.049 409.473C191.645 414.888 196.856 418.812 203.047 419.606L199.213 443.92C184.278 441.762 171.843 431.874 166.097 418.442L189.049 409.473Z" fill="url(#paint2_linear_1121_358)"/>
<path d="M196.17 403.395C196.951 403.378 197.529 403.36 197.902 403.343V405.805H191.011V403.343C191.949 403.378 192.657 403.395 193.134 403.395V398.901C192.822 399.587 192.183 400.03 191.219 400.23C191.193 399.205 191.098 398.271 190.933 397.429C191.627 397.333 192.109 397.216 192.379 397.077C192.657 396.929 192.869 396.769 193.017 396.595C193.173 396.421 193.278 396.304 193.33 396.243V396.217H196.17V403.395ZM207.189 400.699C207.571 400.838 207.897 401.033 208.166 401.285C208.435 401.537 208.635 401.815 208.765 402.119C208.896 402.414 208.961 402.692 208.961 402.952C208.961 403.977 208.505 404.733 207.593 405.219C206.69 405.697 205.422 405.935 203.789 405.935C202.148 405.935 200.871 405.697 199.959 405.219C199.047 404.733 198.591 403.977 198.591 402.952C198.591 402.535 198.739 402.11 199.034 401.676C199.338 401.233 199.759 400.907 200.298 400.699C199.82 400.473 199.46 400.225 199.216 399.956C198.982 399.678 198.865 399.309 198.865 398.849C198.865 398.31 199.051 397.833 199.425 397.416C199.798 396.99 200.354 396.66 201.092 396.426C201.839 396.191 202.738 396.074 203.789 396.074C204.831 396.074 205.721 396.191 206.459 396.426C207.198 396.66 207.754 396.99 208.127 397.416C208.5 397.833 208.687 398.31 208.687 398.849C208.687 399.318 208.561 399.687 208.309 399.956C208.066 400.225 207.693 400.473 207.189 400.699ZM203.815 399.93C204.319 399.93 204.736 399.843 205.066 399.669C205.404 399.496 205.574 399.266 205.574 398.979C205.574 398.692 205.404 398.467 205.066 398.302C204.727 398.128 204.31 398.041 203.815 398.041C203.311 398.041 202.89 398.128 202.551 398.302C202.213 398.467 202.043 398.692 202.043 398.979C202.043 399.274 202.213 399.509 202.551 399.682C202.89 399.847 203.311 399.93 203.815 399.93ZM203.815 403.578C204.319 403.578 204.736 403.491 205.066 403.317C205.404 403.143 205.574 402.913 205.574 402.627C205.574 402.34 205.404 402.114 205.066 401.949C204.727 401.775 204.31 401.689 203.815 401.689C203.311 401.689 202.89 401.775 202.551 401.949C202.213 402.114 202.043 402.34 202.043 402.627C202.043 402.922 202.213 403.156 202.551 403.33C202.89 403.495 203.311 403.578 203.815 403.578ZM218.21 401.141C218.783 401.141 219.273 401.246 219.682 401.454C220.09 401.654 220.398 401.932 220.607 402.288C220.824 402.644 220.932 403.039 220.932 403.473C220.932 403.916 220.824 404.316 220.607 404.672C220.398 405.028 220.09 405.31 219.682 405.519C219.273 405.718 218.783 405.818 218.21 405.818C217.628 405.818 217.128 405.718 216.711 405.519C216.303 405.31 215.991 405.028 215.774 404.672C215.565 404.316 215.461 403.916 215.461 403.473C215.461 403.213 215.5 402.965 215.578 402.731L213.272 405.818H210.263L214.314 400.399C213.828 400.816 213.177 401.024 212.36 401.024C211.779 401.024 211.279 400.924 210.862 400.725C210.454 400.516 210.141 400.234 209.924 399.878C209.716 399.522 209.612 399.122 209.612 398.679C209.612 398.245 209.716 397.85 209.924 397.494C210.141 397.138 210.454 396.86 210.862 396.66C211.279 396.452 211.779 396.348 212.36 396.348C212.934 396.348 213.424 396.452 213.832 396.66C214.241 396.86 214.549 397.138 214.757 397.494C214.975 397.85 215.083 398.245 215.083 398.679C215.083 399.027 215.018 399.344 214.888 399.63L217.272 396.452H220.268L216.399 401.637C216.868 401.306 217.471 401.141 218.21 401.141ZM212.36 399.383C212.543 399.383 212.708 399.309 212.855 399.161C213.012 399.014 213.09 398.849 213.09 398.666C213.09 398.484 213.012 398.328 212.855 398.197C212.708 398.067 212.543 398.002 212.36 398.002C212.161 398.002 211.983 398.067 211.826 398.197C211.679 398.328 211.605 398.484 211.605 398.666C211.605 398.857 211.679 399.027 211.826 399.174C211.983 399.313 212.161 399.383 212.36 399.383ZM218.21 404.177C218.392 404.177 218.557 404.103 218.705 403.955C218.861 403.808 218.939 403.643 218.939 403.46C218.939 403.278 218.861 403.122 218.705 402.991C218.557 402.861 218.392 402.796 218.21 402.796C218.01 402.796 217.832 402.861 217.675 402.991C217.528 403.122 217.454 403.278 217.454 403.46C217.454 403.651 217.528 403.821 217.675 403.968C217.832 404.107 218.01 404.177 218.21 404.177Z" fill="white"/>
<path opacity="0.6" d="M3.68077 333.033C8.90217 331.085 14.651 331.085 19.8724 333.033L116.49 369.082C125.548 372.462 131.553 381.113 131.553 390.78V411.819C131.553 421.487 125.548 430.137 116.49 433.517L19.8724 469.566C14.651 471.514 8.90216 471.514 3.68076 469.566L-92.9366 433.517C-101.994 430.137 -108 421.487 -108 411.819V390.78C-108 381.113 -101.994 372.462 -92.9366 369.082L3.68077 333.033Z" fill="#0D1D27"/>
<path opacity="0.2" d="M504.499 765.097C509.72 763.149 515.469 763.149 520.69 765.097L617.308 801.146C626.366 804.526 632.371 813.177 632.371 822.844V843.883C632.371 853.551 626.366 862.201 617.308 865.581L520.69 901.63C515.469 903.578 509.72 903.578 504.499 901.63L407.882 865.581C398.824 862.201 392.818 853.551 392.818 843.883V822.844C392.818 813.177 398.824 804.526 407.882 801.146L504.499 765.097Z" fill="#0D1D27"/>
<path opacity="0.4" d="M511.736 549.427C516.957 547.479 522.706 547.479 527.928 549.427L624.545 585.476C633.603 588.856 639.608 597.506 639.608 607.174V628.212C639.608 637.88 633.603 646.531 624.545 649.91L527.928 685.96C522.706 687.908 516.957 687.908 511.736 685.96L415.119 649.91C406.061 646.531 400.055 637.88 400.055 628.212V607.174C400.055 597.506 406.061 588.856 415.119 585.476L511.736 549.427Z" fill="#0D1D27"/>
<path opacity="0.4" d="M5.85191 548.703C11.0733 546.755 16.8221 546.755 22.0435 548.703L118.661 584.752C127.719 588.132 133.724 596.783 133.724 606.45V627.489C133.724 637.157 127.719 645.807 118.661 649.187L22.0435 685.236C16.8221 687.184 11.0733 687.184 5.8519 685.236L-90.7655 649.187C-99.8233 645.807 -105.829 637.157 -105.829 627.489V606.45C-105.829 596.783 -99.8233 588.132 -90.7655 584.752L5.85191 548.703Z" fill="#0D1D27"/>
<path opacity="0.4" d="M5.85191 765.097C11.0733 763.149 16.8221 763.149 22.0435 765.097L118.661 801.146C127.719 804.526 133.724 813.177 133.724 822.844V843.883C133.724 853.551 127.719 862.201 118.661 865.581L22.0435 901.63C16.8221 903.578 11.0733 903.578 5.8519 901.63L-90.7655 865.581C-99.8233 862.201 -105.829 853.551 -105.829 843.883V822.844C-105.829 813.177 -99.8233 804.526 -90.7655 801.146L5.85191 765.097Z" fill="#0D1D27"/>
<path d="M259.156 765.097C264.377 763.149 270.126 763.149 275.347 765.097L371.965 801.146C381.023 804.526 387.028 813.177 387.028 822.844V843.883C387.028 853.551 381.023 862.201 371.965 865.581L275.347 901.63C270.126 903.578 264.377 903.578 259.156 901.63L162.538 865.581C153.481 862.201 147.475 853.551 147.475 843.883V822.844C147.475 813.177 153.481 804.526 162.539 801.146L259.156 765.097Z" fill="#11232E"/>
<path d="M264.884 839.435H259.238L258.162 842.041H255.278L260.698 829.882H263.477L268.913 842.041H265.96L264.884 839.435ZM263.998 837.299L262.07 832.644L260.142 837.299H263.998ZM279.417 829.152V842.041H276.829V840.964C276.158 841.774 275.185 842.179 273.911 842.179C273.031 842.179 272.232 841.983 271.514 841.589C270.808 841.195 270.252 840.634 269.847 839.904C269.441 839.175 269.239 838.329 269.239 837.368C269.239 836.407 269.441 835.562 269.847 834.832C270.252 834.103 270.808 833.541 271.514 833.147C272.232 832.754 273.031 832.557 273.911 832.557C275.104 832.557 276.036 832.933 276.708 833.686V829.152H279.417ZM274.38 839.956C275.063 839.956 275.631 839.725 276.082 839.261C276.534 838.787 276.76 838.156 276.76 837.368C276.76 836.581 276.534 835.955 276.082 835.492C275.631 835.017 275.063 834.78 274.38 834.78C273.685 834.78 273.112 835.017 272.661 835.492C272.209 835.955 271.983 836.581 271.983 837.368C271.983 838.156 272.209 838.787 272.661 839.261C273.112 839.725 273.685 839.956 274.38 839.956ZM291.2 832.696L287.258 842.041H284.461L280.536 832.696H283.332L285.92 839.053L288.595 832.696H291.2ZM292.306 832.696H295.016V842.041H292.306V832.696ZM293.661 831.393C293.163 831.393 292.758 831.248 292.445 830.959C292.132 830.669 291.976 830.31 291.976 829.882C291.976 829.453 292.132 829.095 292.445 828.805C292.758 828.516 293.163 828.371 293.661 828.371C294.159 828.371 294.564 828.51 294.877 828.788C295.189 829.066 295.346 829.413 295.346 829.83C295.346 830.281 295.189 830.658 294.877 830.959C294.564 831.248 294.159 831.393 293.661 831.393ZM300.674 842.179C299.898 842.179 299.14 842.087 298.399 841.902C297.658 841.705 297.067 841.462 296.627 841.172L297.53 839.227C297.947 839.493 298.451 839.713 299.042 839.887C299.632 840.049 300.211 840.13 300.779 840.13C301.925 840.13 302.498 839.846 302.498 839.279C302.498 839.012 302.342 838.821 302.029 838.706C301.716 838.59 301.236 838.491 300.587 838.41C299.823 838.295 299.192 838.161 298.694 838.011C298.196 837.86 297.762 837.594 297.391 837.212C297.033 836.83 296.853 836.285 296.853 835.579C296.853 834.989 297.021 834.467 297.357 834.016C297.704 833.553 298.202 833.194 298.851 832.939C299.511 832.684 300.286 832.557 301.178 832.557C301.838 832.557 302.492 832.632 303.141 832.783C303.801 832.922 304.345 833.118 304.773 833.373L303.87 835.301C303.048 834.838 302.151 834.606 301.178 834.606C300.599 834.606 300.165 834.687 299.875 834.85C299.586 835.012 299.441 835.22 299.441 835.475C299.441 835.764 299.597 835.967 299.91 836.083C300.223 836.199 300.721 836.309 301.404 836.413C302.168 836.54 302.793 836.679 303.28 836.83C303.766 836.969 304.189 837.229 304.548 837.611C304.907 837.993 305.086 838.526 305.086 839.209C305.086 839.788 304.912 840.304 304.565 840.755C304.218 841.207 303.708 841.56 303.037 841.815C302.376 842.058 301.589 842.179 300.674 842.179ZM311.204 842.179C310.22 842.179 309.334 841.977 308.547 841.572C307.771 841.155 307.163 840.581 306.723 839.852C306.283 839.122 306.063 838.295 306.063 837.368C306.063 836.442 306.283 835.614 306.723 834.884C307.163 834.155 307.771 833.587 308.547 833.182C309.334 832.765 310.22 832.557 311.204 832.557C312.189 832.557 313.069 832.765 313.845 833.182C314.62 833.587 315.228 834.155 315.668 834.884C316.108 835.614 316.328 836.442 316.328 837.368C316.328 838.295 316.108 839.122 315.668 839.852C315.228 840.581 314.62 841.155 313.845 841.572C313.069 841.977 312.189 842.179 311.204 842.179ZM311.204 839.956C311.899 839.956 312.467 839.725 312.907 839.261C313.358 838.787 313.584 838.156 313.584 837.368C313.584 836.581 313.358 835.955 312.907 835.492C312.467 835.017 311.899 834.78 311.204 834.78C310.51 834.78 309.937 835.017 309.485 835.492C309.033 835.955 308.808 836.581 308.808 837.368C308.808 838.156 309.033 838.787 309.485 839.261C309.937 839.725 310.51 839.956 311.204 839.956ZM320.728 833.929C321.052 833.477 321.486 833.136 322.03 832.904C322.586 832.673 323.223 832.557 323.941 832.557V835.058C323.64 835.035 323.437 835.023 323.333 835.023C322.557 835.023 321.949 835.243 321.509 835.683C321.069 836.112 320.849 836.76 320.849 837.629V842.041H318.14V832.696H320.728V833.929ZM328.73 842.179C327.954 842.179 327.196 842.087 326.455 841.902C325.713 841.705 325.123 841.462 324.683 841.172L325.586 839.227C326.003 839.493 326.507 839.713 327.097 839.887C327.688 840.049 328.267 840.13 328.834 840.13C329.981 840.13 330.554 839.846 330.554 839.279C330.554 839.012 330.397 838.821 330.085 838.706C329.772 838.59 329.292 838.491 328.643 838.41C327.879 838.295 327.248 838.161 326.75 838.011C326.252 837.86 325.818 837.594 325.447 837.212C325.088 836.83 324.909 836.285 324.909 835.579C324.909 834.989 325.077 834.467 325.412 834.016C325.76 833.553 326.258 833.194 326.906 832.939C327.566 832.684 328.342 832.557 329.234 832.557C329.894 832.557 330.548 832.632 331.196 832.783C331.856 832.922 332.401 833.118 332.829 833.373L331.926 835.301C331.104 834.838 330.206 834.606 329.234 834.606C328.655 834.606 328.22 834.687 327.931 834.85C327.641 835.012 327.497 835.22 327.497 835.475C327.497 835.764 327.653 835.967 327.966 836.083C328.278 836.199 328.776 836.309 329.459 836.413C330.224 836.54 330.849 836.679 331.335 836.83C331.822 836.969 332.244 837.229 332.603 837.611C332.962 837.993 333.142 838.526 333.142 839.209C333.142 839.788 332.968 840.304 332.621 840.755C332.273 841.207 331.764 841.56 331.092 841.815C330.432 842.058 329.645 842.179 328.73 842.179Z" fill="white"/>
<circle cx="201.879" cy="833.726" r="30.3965" stroke="#162A36" stroke-width="13.0271"/>
<path fill-rule="evenodd" clip-rule="evenodd" d="M202.051 792.474C201.952 792.473 201.853 792.473 201.755 792.473C196.899 792.473 192.234 793.283 187.885 794.776L195.8 818.083C197.665 817.433 199.668 817.08 201.755 817.08C201.854 817.08 201.952 817.081 202.051 817.082L202.051 792.474Z" fill="url(#paint3_linear_1121_358)"/>
<path d="M198.076 836.907C198.858 836.89 199.436 836.872 199.809 836.855V839.317H192.918V836.855C193.856 836.89 194.563 836.907 195.041 836.907V832.413C194.728 833.099 194.09 833.542 193.126 833.741C193.1 832.717 193.005 831.783 192.84 830.94C193.534 830.845 194.016 830.728 194.286 830.589C194.563 830.441 194.776 830.28 194.924 830.107C195.08 829.933 195.184 829.816 195.237 829.755V829.729H198.076V836.907ZM208.705 834.653C209.278 834.653 209.769 834.757 210.177 834.966C210.585 835.166 210.894 835.444 211.102 835.8C211.319 836.156 211.428 836.551 211.428 836.985C211.428 837.428 211.319 837.827 211.102 838.184C210.894 838.54 210.585 838.822 210.177 839.03C209.769 839.23 209.278 839.33 208.705 839.33C208.123 839.33 207.624 839.23 207.207 839.03C206.799 838.822 206.486 838.54 206.269 838.184C206.061 837.827 205.956 837.428 205.956 836.985C205.956 836.725 205.995 836.477 206.074 836.243L203.768 839.33H200.759L204.81 833.911C204.324 834.328 203.672 834.536 202.856 834.536C202.274 834.536 201.775 834.436 201.358 834.236C200.95 834.028 200.637 833.746 200.42 833.39C200.211 833.034 200.107 832.634 200.107 832.191C200.107 831.757 200.211 831.362 200.42 831.006C200.637 830.65 200.95 830.372 201.358 830.172C201.775 829.963 202.274 829.859 202.856 829.859C203.429 829.859 203.92 829.963 204.328 830.172C204.736 830.372 205.044 830.65 205.253 831.006C205.47 831.362 205.579 831.757 205.579 832.191C205.579 832.538 205.513 832.855 205.383 833.142L207.767 829.963H210.763L206.894 835.148C207.363 834.818 207.967 834.653 208.705 834.653ZM202.856 832.895C203.038 832.895 203.203 832.821 203.351 832.673C203.507 832.525 203.585 832.36 203.585 832.178C203.585 831.996 203.507 831.839 203.351 831.709C203.203 831.579 203.038 831.514 202.856 831.514C202.656 831.514 202.478 831.579 202.322 831.709C202.174 831.839 202.1 831.996 202.1 832.178C202.1 832.369 202.174 832.538 202.322 832.686C202.478 832.825 202.656 832.895 202.856 832.895ZM208.705 837.689C208.887 837.689 209.052 837.615 209.2 837.467C209.356 837.319 209.435 837.154 209.435 836.972C209.435 836.79 209.356 836.633 209.2 836.503C209.052 836.373 208.887 836.308 208.705 836.308C208.505 836.308 208.327 836.373 208.171 836.503C208.023 836.633 207.95 836.79 207.95 836.972C207.95 837.163 208.023 837.332 208.171 837.48C208.327 837.619 208.505 837.689 208.705 837.689Z" fill="white"/>
<path d="M258.432 549.427C263.653 547.479 269.402 547.479 274.624 549.427L371.241 585.476C380.299 588.856 386.304 597.506 386.304 607.174V628.212C386.304 637.88 380.299 646.531 371.241 649.91L274.624 685.96C269.402 687.908 263.653 687.908 258.432 685.96L161.815 649.91C152.757 646.531 146.751 637.88 146.751 628.212V607.174C146.751 597.506 152.757 588.856 161.815 585.476L258.432 549.427Z" fill="#11232E"/>
<path d="M270.891 626.371L270.874 619.075L267.296 625.085H266.028L262.467 619.232V626.371H259.827V614.212H262.154L266.705 621.768L271.187 614.212H273.497L273.531 626.371H270.891ZM279.994 616.887C281.442 616.887 282.553 617.234 283.329 617.929C284.105 618.612 284.493 619.649 284.493 621.038V626.371H281.957V625.207C281.447 626.075 280.498 626.51 279.108 626.51C278.39 626.51 277.765 626.388 277.232 626.145C276.711 625.902 276.312 625.566 276.034 625.137C275.756 624.709 275.617 624.223 275.617 623.678C275.617 622.81 275.941 622.127 276.59 621.629C277.25 621.131 278.263 620.882 279.629 620.882H281.783C281.783 620.291 281.604 619.84 281.245 619.527C280.886 619.203 280.347 619.041 279.629 619.041C279.131 619.041 278.639 619.122 278.153 619.284C277.678 619.434 277.273 619.643 276.937 619.909L275.964 618.016C276.474 617.657 277.082 617.379 277.788 617.182C278.506 616.985 279.241 616.887 279.994 616.887ZM279.786 624.686C280.249 624.686 280.66 624.582 281.019 624.373C281.378 624.153 281.633 623.835 281.783 623.418V622.462H279.925C278.813 622.462 278.257 622.827 278.257 623.557C278.257 623.904 278.39 624.182 278.657 624.39C278.935 624.587 279.311 624.686 279.786 624.686ZM289.533 618.259C289.857 617.807 290.292 617.466 290.836 617.234C291.392 617.003 292.029 616.887 292.747 616.887V619.388C292.445 619.365 292.243 619.353 292.139 619.353C291.363 619.353 290.755 619.573 290.315 620.013C289.875 620.442 289.655 621.09 289.655 621.959V626.371H286.945V617.026H289.533V618.259ZM298.37 622.706L297.067 623.991V626.371H294.358V613.483H297.067V620.778L301.028 617.026H304.258L300.368 620.986L304.606 626.371H301.323L298.37 622.706ZM314.571 621.733C314.571 621.768 314.553 622.011 314.519 622.462H307.449C307.577 623.041 307.878 623.499 308.353 623.835C308.827 624.17 309.418 624.338 310.124 624.338C310.611 624.338 311.039 624.269 311.41 624.13C311.792 623.979 312.145 623.748 312.469 623.435L313.911 624.998C313.031 626.006 311.745 626.51 310.055 626.51C309.001 626.51 308.069 626.307 307.258 625.902C306.448 625.485 305.822 624.912 305.382 624.182C304.942 623.453 304.722 622.625 304.722 621.698C304.722 620.783 304.937 619.961 305.365 619.232C305.805 618.491 306.401 617.917 307.154 617.512C307.918 617.095 308.769 616.887 309.707 616.887C310.622 616.887 311.45 617.084 312.191 617.477C312.932 617.871 313.511 618.439 313.928 619.18C314.357 619.909 314.571 620.76 314.571 621.733ZM309.725 618.936C309.111 618.936 308.596 619.11 308.179 619.458C307.762 619.805 307.507 620.28 307.415 620.882H312.018C311.925 620.291 311.67 619.822 311.253 619.475C310.836 619.116 310.327 618.936 309.725 618.936ZM322.402 625.919C322.136 626.116 321.806 626.266 321.412 626.371C321.03 626.463 320.625 626.51 320.196 626.51C319.084 626.51 318.222 626.226 317.608 625.658C317.006 625.091 316.705 624.257 316.705 623.157V619.319H315.263V617.234H316.705V614.959H319.414V617.234H321.742V619.319H319.414V623.123C319.414 623.516 319.513 623.823 319.71 624.043C319.918 624.252 320.208 624.356 320.578 624.356C321.007 624.356 321.371 624.24 321.672 624.008L322.402 625.919ZM323.923 617.026H326.633V626.371H323.923V617.026ZM325.278 615.723C324.78 615.723 324.375 615.578 324.062 615.289C323.749 614.999 323.593 614.64 323.593 614.212C323.593 613.784 323.749 613.425 324.062 613.135C324.375 612.846 324.78 612.701 325.278 612.701C325.776 612.701 326.181 612.84 326.494 613.118C326.806 613.396 326.963 613.743 326.963 614.16C326.963 614.612 326.806 614.988 326.494 615.289C326.181 615.578 325.776 615.723 325.278 615.723ZM334.827 616.887C335.985 616.887 336.917 617.234 337.624 617.929C338.342 618.624 338.701 619.654 338.701 621.021V626.371H335.991V621.438C335.991 620.697 335.829 620.147 335.505 619.788C335.18 619.417 334.711 619.232 334.098 619.232C333.415 619.232 332.87 619.446 332.465 619.874C332.06 620.291 331.857 620.917 331.857 621.75V626.371H329.147V617.026H331.735V618.12C332.094 617.726 332.54 617.425 333.073 617.217C333.606 616.997 334.19 616.887 334.827 616.887ZM350.899 617.026V624.807C350.899 626.521 350.453 627.795 349.561 628.629C348.669 629.462 347.367 629.879 345.653 629.879C344.75 629.879 343.893 629.769 343.082 629.549C342.272 629.329 341.6 629.011 341.067 628.594L342.144 626.649C342.538 626.973 343.036 627.227 343.638 627.413C344.24 627.61 344.842 627.708 345.445 627.708C346.382 627.708 347.071 627.494 347.512 627.065C347.963 626.649 348.189 626.012 348.189 625.155V624.755C347.483 625.531 346.498 625.919 345.236 625.919C344.379 625.919 343.592 625.734 342.874 625.363C342.168 624.981 341.606 624.448 341.189 623.765C340.772 623.082 340.564 622.295 340.564 621.403C340.564 620.511 340.772 619.724 341.189 619.041C341.606 618.358 342.168 617.831 342.874 617.46C343.592 617.078 344.379 616.887 345.236 616.887C346.591 616.887 347.622 617.333 348.328 618.224V617.026H350.899ZM345.775 623.696C346.492 623.696 347.077 623.487 347.529 623.07C347.992 622.642 348.224 622.086 348.224 621.403C348.224 620.72 347.992 620.17 347.529 619.753C347.077 619.324 346.492 619.11 345.775 619.11C345.057 619.11 344.466 619.324 344.003 619.753C343.54 620.17 343.308 620.72 343.308 621.403C343.308 622.086 343.54 622.642 344.003 623.07C344.466 623.487 345.057 623.696 345.775 623.696Z" fill="white"/>
<circle cx="204.106" cy="618.055" r="30.3965" stroke="#162A36" stroke-width="13.0271"/>
<path fill-rule="evenodd" clip-rule="evenodd" d="M175.298 587.984C170.092 592.745 166.07 598.778 163.723 605.592L186.794 614.228C187.712 611.209 189.398 608.526 191.625 606.404L175.298 587.984Z" fill="url(#paint4_linear_1121_358)"/>
<path d="M193.775 614.176H203.207V615.857C201.505 618.436 200.189 621.033 199.26 623.647H195.742C196.689 621.293 197.935 618.953 199.481 616.625C197.076 616.625 195.174 616.669 193.775 616.756V614.176ZM212.109 618.983C212.682 618.983 213.173 619.088 213.581 619.296C213.989 619.496 214.297 619.774 214.506 620.13C214.723 620.486 214.832 620.881 214.832 621.315C214.832 621.758 214.723 622.158 214.506 622.514C214.297 622.87 213.989 623.152 213.581 623.36C213.173 623.56 212.682 623.66 212.109 623.66C211.527 623.66 211.028 623.56 210.611 623.36C210.203 623.152 209.89 622.87 209.673 622.514C209.464 622.158 209.36 621.758 209.36 621.315C209.36 621.055 209.399 620.807 209.477 620.573L207.172 623.66H204.162L208.214 618.241C207.727 618.658 207.076 618.866 206.26 618.866C205.678 618.866 205.178 618.766 204.762 618.566C204.353 618.358 204.041 618.076 203.824 617.72C203.615 617.364 203.511 616.964 203.511 616.521C203.511 616.087 203.615 615.692 203.824 615.336C204.041 614.98 204.353 614.702 204.762 614.502C205.178 614.294 205.678 614.189 206.26 614.189C206.833 614.189 207.324 614.294 207.732 614.502C208.14 614.702 208.448 614.98 208.657 615.336C208.874 615.692 208.982 616.087 208.982 616.521C208.982 616.869 208.917 617.186 208.787 617.472L211.171 614.294H214.167L210.298 619.478C210.767 619.148 211.371 618.983 212.109 618.983ZM206.26 617.225C206.442 617.225 206.607 617.151 206.755 617.003C206.911 616.856 206.989 616.691 206.989 616.508C206.989 616.326 206.911 616.169 206.755 616.039C206.607 615.909 206.442 615.844 206.26 615.844C206.06 615.844 205.882 615.909 205.726 616.039C205.578 616.169 205.504 616.326 205.504 616.508C205.504 616.699 205.578 616.869 205.726 617.016C205.882 617.155 206.06 617.225 206.26 617.225ZM212.109 622.019C212.291 622.019 212.456 621.945 212.604 621.797C212.76 621.649 212.838 621.484 212.838 621.302C212.838 621.12 212.76 620.963 212.604 620.833C212.456 620.703 212.291 620.638 212.109 620.638C211.909 620.638 211.731 620.703 211.575 620.833C211.427 620.963 211.353 621.12 211.353 621.302C211.353 621.493 211.427 621.663 211.575 621.81C211.731 621.949 211.909 622.019 212.109 622.019Z" fill="white"/>
<path d="M131.681 656.538C136.902 654.59 142.651 654.59 147.872 656.538L244.49 692.587C253.548 695.967 259.553 704.618 259.553 714.285V735.324C259.553 744.992 253.548 753.642 244.49 757.022L147.872 793.071C142.651 795.019 136.902 795.019 131.681 793.071L35.0634 757.022C26.0055 753.642 20 744.992 20 735.324V714.285C20 704.618 26.0055 695.967 35.0634 692.587L131.681 656.538Z" fill="#11232E"/>
<path d="M132.895 721.323H135.709V731.189H141.806V733.482H132.895V721.323ZM143.187 724.137H145.897V733.482H143.187V724.137ZM144.542 722.834C144.044 722.834 143.639 722.69 143.326 722.4C143.013 722.111 142.857 721.752 142.857 721.323C142.857 720.895 143.013 720.536 143.326 720.246C143.639 719.957 144.044 719.812 144.542 719.812C145.04 719.812 145.445 719.951 145.758 720.229C146.07 720.507 146.227 720.854 146.227 721.271C146.227 721.723 146.07 722.099 145.758 722.4C145.445 722.69 145.04 722.834 144.542 722.834ZM157.895 724.137V736.852H155.185V732.492C154.514 733.245 153.582 733.621 152.389 733.621C151.509 733.621 150.71 733.424 149.992 733.03C149.286 732.637 148.73 732.075 148.324 731.345C147.919 730.616 147.717 729.771 147.717 728.81C147.717 727.848 147.919 727.003 148.324 726.274C148.73 725.544 149.286 724.983 149.992 724.589C150.71 724.195 151.509 723.998 152.389 723.998C153.663 723.998 154.635 724.404 155.307 725.214V724.137H157.895ZM152.858 731.398C153.541 731.398 154.108 731.166 154.56 730.703C155.012 730.228 155.237 729.597 155.237 728.81C155.237 728.022 155.012 727.397 154.56 726.934C154.108 726.459 153.541 726.222 152.858 726.222C152.163 726.222 151.59 726.459 151.138 726.934C150.687 727.397 150.461 728.022 150.461 728.81C150.461 729.597 150.687 730.228 151.138 730.703C151.59 731.166 152.163 731.398 152.858 731.398ZM169.818 724.137V733.482H167.247V732.37C166.888 732.776 166.46 733.088 165.962 733.308C165.464 733.517 164.926 733.621 164.347 733.621C163.119 733.621 162.146 733.268 161.428 732.561C160.711 731.855 160.352 730.807 160.352 729.417V724.137H163.061V729.018C163.061 730.523 163.692 731.276 164.954 731.276C165.603 731.276 166.124 731.068 166.518 730.651C166.911 730.222 167.108 729.591 167.108 728.757V724.137H169.818ZM172.328 724.137H175.038V733.482H172.328V724.137ZM173.683 722.834C173.185 722.834 172.78 722.69 172.467 722.4C172.154 722.111 171.998 721.752 171.998 721.323C171.998 720.895 172.154 720.536 172.467 720.246C172.78 719.957 173.185 719.812 173.683 719.812C174.181 719.812 174.586 719.951 174.899 720.229C175.212 720.507 175.368 720.854 175.368 721.271C175.368 721.723 175.212 722.099 174.899 722.4C174.586 722.69 174.181 722.834 173.683 722.834ZM187.071 720.594V733.482H184.483V732.405C183.811 733.216 182.839 733.621 181.565 733.621C180.685 733.621 179.886 733.424 179.168 733.03C178.462 732.637 177.906 732.075 177.5 731.345C177.095 730.616 176.893 729.771 176.893 728.81C176.893 727.848 177.095 727.003 177.5 726.274C177.906 725.544 178.462 724.983 179.168 724.589C179.886 724.195 180.685 723.998 181.565 723.998C182.758 723.998 183.69 724.375 184.361 725.127V720.594H187.071ZM182.034 731.398C182.717 731.398 183.284 731.166 183.736 730.703C184.188 730.228 184.413 729.597 184.413 728.81C184.413 728.022 184.188 727.397 183.736 726.934C183.284 726.459 182.717 726.222 182.034 726.222C181.339 726.222 180.766 726.459 180.314 726.934C179.863 727.397 179.637 728.022 179.637 728.81C179.637 729.597 179.863 730.228 180.314 730.703C180.766 731.166 181.339 731.398 182.034 731.398ZM189.579 724.137H192.288V733.482H189.579V724.137ZM190.934 722.834C190.436 722.834 190.03 722.69 189.718 722.4C189.405 722.111 189.249 721.752 189.249 721.323C189.249 720.895 189.405 720.536 189.718 720.246C190.03 719.957 190.436 719.812 190.934 719.812C191.432 719.812 191.837 719.951 192.15 720.229C192.462 720.507 192.619 720.854 192.619 721.271C192.619 721.723 192.462 722.099 192.15 722.4C191.837 722.69 191.432 722.834 190.934 722.834ZM200.83 733.03C200.564 733.227 200.234 733.378 199.84 733.482C199.458 733.575 199.053 733.621 198.625 733.621C197.513 733.621 196.65 733.337 196.036 732.77C195.434 732.202 195.133 731.369 195.133 730.269V726.43H193.692V724.346H195.133V722.07H197.843V724.346H200.17V726.43H197.843V730.234C197.843 730.628 197.941 730.934 198.138 731.154C198.347 731.363 198.636 731.467 199.007 731.467C199.435 731.467 199.8 731.351 200.101 731.12L200.83 733.03ZM211.457 724.137L207.236 734.055C206.808 735.132 206.275 735.89 205.638 736.331C205.013 736.771 204.255 736.991 203.363 736.991C202.877 736.991 202.396 736.915 201.921 736.765C201.447 736.614 201.059 736.406 200.758 736.139L201.748 734.211C201.956 734.397 202.193 734.541 202.46 734.646C202.738 734.75 203.01 734.802 203.276 734.802C203.647 734.802 203.948 734.709 204.179 734.524C204.411 734.35 204.619 734.055 204.805 733.638L204.839 733.551L200.792 724.137H203.589L206.212 730.477L208.852 724.137H211.457Z" fill="white"/>
<circle cx="77.8977" cy="725.167" r="30.3965" stroke="#162A36" stroke-width="13.0271"/>
<path fill-rule="evenodd" clip-rule="evenodd" d="M58.3226 688.656C53.0755 691.367 48.4626 695.135 44.7651 699.677L63.567 715.568C65.1416 713.528 67.1419 711.834 69.4348 710.618L58.3226 688.656Z" fill="url(#paint5_linear_1121_358)"/>
<path d="M72.8405 724.101C73.8305 724.101 74.6599 724.24 75.3286 724.518C76.006 724.788 76.5098 725.157 76.8398 725.626C77.1785 726.086 77.3478 726.603 77.3478 727.176C77.3478 728.479 76.8919 729.425 75.98 730.016C75.0768 730.598 73.8653 730.889 72.3454 730.889C71.0688 730.889 69.9441 730.676 68.9714 730.25C68.0074 729.816 67.3083 729.091 66.8741 728.075C67.3517 728.005 67.8728 727.892 68.4373 727.736C69.0105 727.58 69.5273 727.419 69.9875 727.254C70.1699 727.627 70.4261 727.901 70.7561 728.075C71.0862 728.24 71.5291 728.322 72.0849 728.322C72.6755 728.322 73.1618 728.227 73.5439 728.036C73.9347 727.845 74.1301 727.58 74.1301 727.241C74.1301 726.894 73.9608 726.603 73.6221 726.368C73.2834 726.134 72.7666 726.016 72.0719 726.016C71.6203 726.016 71.2077 726.099 70.8343 726.264C70.4609 726.42 70.1916 726.646 70.0266 726.941H67.0174C67.2258 726.047 67.4082 725.083 67.5645 724.049C67.7295 723.016 67.8294 722.1 67.8641 721.301H77.0091V723.828C76.0451 723.767 75.1332 723.732 74.2734 723.724C73.4223 723.706 72.2282 723.698 70.691 723.698L70.5607 724.427C71.2208 724.21 71.9807 724.101 72.8405 724.101ZM86.5943 726.095C87.1675 726.095 87.6582 726.199 88.0664 726.407C88.4745 726.607 88.7828 726.885 88.9913 727.241C89.2084 727.597 89.3169 727.992 89.3169 728.426C89.3169 728.869 89.2084 729.269 88.9913 729.625C88.7828 729.981 88.4745 730.263 88.0664 730.472C87.6582 730.671 87.1675 730.771 86.5943 730.771C86.0124 730.771 85.513 730.671 85.0962 730.472C84.688 730.263 84.3754 729.981 84.1582 729.625C83.9498 729.269 83.8456 728.869 83.8456 728.426C83.8456 728.166 83.8847 727.918 83.9628 727.684L81.657 730.771H78.6478L82.6992 725.352C82.2129 725.769 81.5615 725.977 80.7451 725.977C80.1633 725.977 79.6639 725.877 79.247 725.678C78.8389 725.469 78.5262 725.187 78.3091 724.831C78.1007 724.475 77.9964 724.075 77.9964 723.632C77.9964 723.198 78.1007 722.803 78.3091 722.447C78.5262 722.091 78.8389 721.813 79.247 721.613C79.6639 721.405 80.1633 721.301 80.7451 721.301C81.3183 721.301 81.809 721.405 82.2172 721.613C82.6254 721.813 82.9337 722.091 83.1421 722.447C83.3592 722.803 83.4678 723.198 83.4678 723.632C83.4678 723.98 83.4027 724.297 83.2724 724.583L85.6563 721.405H88.6526L84.7835 726.59C85.2525 726.26 85.8561 726.095 86.5943 726.095ZM80.7451 724.336C80.9275 724.336 81.0925 724.262 81.2402 724.115C81.3965 723.967 81.4747 723.802 81.4747 723.619C81.4747 723.437 81.3965 723.281 81.2402 723.15C81.0925 723.02 80.9275 722.955 80.7451 722.955C80.5454 722.955 80.3674 723.02 80.211 723.15C80.0634 723.281 79.9896 723.437 79.9896 723.619C79.9896 723.811 80.0634 723.98 80.211 724.128C80.3674 724.266 80.5454 724.336 80.7451 724.336ZM86.5943 729.13C86.7767 729.13 86.9417 729.056 87.0893 728.908C87.2456 728.761 87.3238 728.596 87.3238 728.413C87.3238 728.231 87.2456 728.075 87.0893 727.944C86.9417 727.814 86.7767 727.749 86.5943 727.749C86.3945 727.749 86.2165 727.814 86.0602 727.944C85.9125 728.075 85.8387 728.231 85.8387 728.413C85.8387 728.604 85.9125 728.774 86.0602 728.921C86.2165 729.06 86.3945 729.13 86.5943 729.13Z" fill="white"/>
<path opacity="0.2" d="M383.681 656.538C388.902 654.59 394.651 654.59 399.872 656.538L496.49 692.587C505.548 695.967 511.553 704.618 511.553 714.285V735.324C511.553 744.992 505.548 753.642 496.49 757.022L399.872 793.071C394.651 795.019 388.902 795.019 383.681 793.071L287.063 757.022C278.006 753.642 272 744.992 272 735.324V714.285C272 704.618 278.006 695.967 287.063 692.587L383.681 656.538Z" fill="#0D1D27"/>
<path opacity="0.2" d="M131.681 875.021C136.902 873.072 142.651 873.072 147.872 875.021L244.49 911.07C253.548 914.449 259.553 923.1 259.553 932.768V953.806C259.553 963.474 253.548 972.125 244.49 975.504L147.872 1011.55C142.651 1013.5 136.902 1013.5 131.681 1011.55L35.0634 975.504C26.0055 972.125 20 963.474 20 953.806V932.768C20 923.1 26.0055 914.449 35.0634 911.07L131.681 875.021Z" fill="#0D1D27"/>
<path opacity="0.2" d="M378.681 875.021C383.902 873.072 389.651 873.072 394.872 875.021L491.49 911.07C500.548 914.449 506.553 923.1 506.553 932.768V953.806C506.553 963.474 500.548 972.125 491.49 975.504L394.872 1011.55C389.651 1013.5 383.902 1013.5 378.681 1011.55L282.063 975.504C273.006 972.125 267 963.474 267 953.806V932.768C267 923.1 273.006 914.449 282.063 911.07L378.681 875.021Z" fill="#0D1D27"/>
<path d="M131.78 440.868C137.002 438.92 142.75 438.92 147.972 440.868L244.589 476.917C253.647 480.297 259.653 488.948 259.653 498.615V519.654C259.653 529.322 253.647 537.972 244.589 541.352L147.972 577.401C142.75 579.349 137.002 579.349 131.78 577.401L35.1628 541.352C26.1049 537.972 20.0994 529.322 20.0994 519.654V498.615C20.0994 488.948 26.1049 480.297 35.1628 476.917L131.78 440.868Z" fill="#11232E"/>
<path d="M142.189 505.509L139.844 502.122H139.705H137.256V505.509H134.442V493.35H139.705C140.782 493.35 141.714 493.53 142.502 493.889C143.301 494.248 143.914 494.757 144.343 495.417C144.771 496.077 144.985 496.859 144.985 497.762C144.985 498.665 144.765 499.447 144.325 500.107C143.897 500.755 143.283 501.253 142.484 501.601L145.211 505.509H142.189ZM142.137 497.762C142.137 497.079 141.917 496.558 141.477 496.199C141.037 495.828 140.394 495.643 139.549 495.643H137.256V499.881H139.549C140.394 499.881 141.037 499.696 141.477 499.325C141.917 498.955 142.137 498.434 142.137 497.762ZM156.177 500.871C156.177 500.906 156.16 501.149 156.125 501.601H149.056C149.183 502.18 149.484 502.637 149.959 502.973C150.434 503.309 151.024 503.477 151.731 503.477C152.217 503.477 152.646 503.407 153.016 503.268C153.398 503.118 153.751 502.886 154.076 502.573L155.517 504.137C154.637 505.144 153.352 505.648 151.661 505.648C150.608 505.648 149.675 505.445 148.865 505.04C148.054 504.623 147.429 504.05 146.989 503.32C146.549 502.591 146.329 501.763 146.329 500.836C146.329 499.922 146.543 499.099 146.972 498.37C147.412 497.629 148.008 497.056 148.761 496.65C149.525 496.234 150.376 496.025 151.314 496.025C152.229 496.025 153.057 496.222 153.798 496.616C154.539 497.009 155.118 497.577 155.535 498.318C155.963 499.047 156.177 499.898 156.177 500.871ZM151.331 498.075C150.718 498.075 150.202 498.248 149.785 498.596C149.369 498.943 149.114 499.418 149.021 500.02H153.624C153.531 499.429 153.277 498.961 152.86 498.613C152.443 498.254 151.933 498.075 151.331 498.075ZM161.125 505.648C160.349 505.648 159.591 505.555 158.85 505.37C158.109 505.173 157.518 504.93 157.078 504.64L157.981 502.695C158.398 502.961 158.902 503.181 159.493 503.355C160.083 503.517 160.662 503.598 161.229 503.598C162.376 503.598 162.949 503.314 162.949 502.747C162.949 502.481 162.793 502.29 162.48 502.174C162.167 502.058 161.687 501.96 161.038 501.879C160.274 501.763 159.643 501.63 159.145 501.479C158.647 501.329 158.213 501.062 157.842 500.68C157.483 500.298 157.304 499.754 157.304 499.047C157.304 498.457 157.472 497.936 157.808 497.484C158.155 497.021 158.653 496.662 159.301 496.407C159.961 496.152 160.737 496.025 161.629 496.025C162.289 496.025 162.943 496.1 163.592 496.251C164.252 496.39 164.796 496.587 165.224 496.841L164.321 498.769C163.499 498.306 162.602 498.075 161.629 498.075C161.05 498.075 160.616 498.156 160.326 498.318C160.037 498.48 159.892 498.688 159.892 498.943C159.892 499.233 160.048 499.435 160.361 499.551C160.674 499.667 161.172 499.777 161.855 499.881C162.619 500.008 163.244 500.147 163.731 500.298C164.217 500.437 164.64 500.697 164.999 501.08C165.358 501.462 165.537 501.994 165.537 502.678C165.537 503.257 165.363 503.772 165.016 504.223C164.669 504.675 164.159 505.028 163.487 505.283C162.827 505.526 162.04 505.648 161.125 505.648ZM176.363 500.871C176.363 500.906 176.345 501.149 176.31 501.601H169.241C169.368 502.18 169.67 502.637 170.144 502.973C170.619 503.309 171.21 503.477 171.916 503.477C172.402 503.477 172.831 503.407 173.201 503.268C173.583 503.118 173.937 502.886 174.261 502.573L175.703 504.137C174.822 505.144 173.537 505.648 171.846 505.648C170.793 505.648 169.861 505.445 169.05 505.04C168.239 504.623 167.614 504.05 167.174 503.32C166.734 502.591 166.514 501.763 166.514 500.836C166.514 499.922 166.728 499.099 167.157 498.37C167.597 497.629 168.193 497.056 168.946 496.65C169.71 496.234 170.561 496.025 171.499 496.025C172.414 496.025 173.242 496.222 173.983 496.616C174.724 497.009 175.303 497.577 175.72 498.318C176.148 499.047 176.363 499.898 176.363 500.871ZM171.516 498.075C170.903 498.075 170.387 498.248 169.971 498.596C169.554 498.943 169.299 499.418 169.206 500.02H173.809C173.717 499.429 173.462 498.961 173.045 498.613C172.628 498.254 172.119 498.075 171.516 498.075ZM180.755 497.397C181.079 496.946 181.513 496.604 182.057 496.372C182.613 496.141 183.25 496.025 183.968 496.025V498.526C183.667 498.503 183.464 498.492 183.36 498.492C182.584 498.492 181.976 498.712 181.536 499.152C181.096 499.58 180.876 500.228 180.876 501.097V505.509H178.167V496.164H180.755V497.397ZM195.177 496.164L191.234 505.509H188.437L184.512 496.164H187.308L189.896 502.521L192.571 496.164H195.177ZM205.182 500.871C205.182 500.906 205.164 501.149 205.129 501.601H198.06C198.187 502.18 198.489 502.637 198.963 502.973C199.438 503.309 200.029 503.477 200.735 503.477C201.221 503.477 201.65 503.407 202.02 503.268C202.402 503.118 202.756 502.886 203.08 502.573L204.521 504.137C203.641 505.144 202.356 505.648 200.665 505.648C199.612 505.648 198.68 505.445 197.869 505.04C197.058 504.623 196.433 504.05 195.993 503.32C195.553 502.591 195.333 501.763 195.333 500.836C195.333 499.922 195.547 499.099 195.976 498.37C196.416 497.629 197.012 497.056 197.765 496.65C198.529 496.234 199.38 496.025 200.318 496.025C201.233 496.025 202.061 496.222 202.802 496.616C203.543 497.009 204.122 497.577 204.539 498.318C204.967 499.047 205.182 499.898 205.182 500.871ZM200.335 498.075C199.722 498.075 199.206 498.248 198.79 498.596C198.373 498.943 198.118 499.418 198.025 500.02H202.628C202.536 499.429 202.281 498.961 201.864 498.613C201.447 498.254 200.938 498.075 200.335 498.075ZM137.221 517.372H139.618V519.457H137.291V526.509H134.581V519.457H133.139V517.372H134.581V516.956C134.581 515.89 134.894 515.045 135.519 514.42C136.156 513.794 137.048 513.482 138.194 513.482C138.599 513.482 138.981 513.528 139.34 513.621C139.711 513.702 140.018 513.823 140.261 513.985L139.549 515.948C139.236 515.728 138.871 515.618 138.454 515.618C137.632 515.618 137.221 516.07 137.221 516.973V517.372ZM150.382 517.164V526.509H147.812V525.397C147.453 525.802 147.024 526.115 146.526 526.335C146.028 526.544 145.49 526.648 144.911 526.648C143.684 526.648 142.711 526.295 141.993 525.588C141.275 524.882 140.916 523.834 140.916 522.444V517.164H143.626V522.045C143.626 523.55 144.257 524.303 145.519 524.303C146.167 524.303 146.688 524.094 147.082 523.678C147.476 523.249 147.673 522.618 147.673 521.784V517.164H150.382ZM158.572 517.025C159.73 517.025 160.663 517.372 161.369 518.067C162.087 518.762 162.446 519.793 162.446 521.159V526.509H159.736V521.576C159.736 520.835 159.574 520.285 159.25 519.926C158.926 519.555 158.457 519.37 157.843 519.37C157.16 519.37 156.616 519.584 156.21 520.013C155.805 520.429 155.602 521.055 155.602 521.889V526.509H152.893V517.164H155.481V518.258C155.84 517.865 156.285 517.564 156.818 517.355C157.351 517.135 157.936 517.025 158.572 517.025ZM174.522 513.621V526.509H171.934V525.432C171.263 526.242 170.29 526.648 169.016 526.648C168.136 526.648 167.337 526.451 166.619 526.057C165.913 525.663 165.357 525.102 164.952 524.372C164.546 523.643 164.344 522.798 164.344 521.836C164.344 520.875 164.546 520.03 164.952 519.3C165.357 518.571 165.913 518.009 166.619 517.616C167.337 517.222 168.136 517.025 169.016 517.025C170.209 517.025 171.141 517.401 171.813 518.154V513.621H174.522ZM169.485 524.424C170.168 524.424 170.736 524.193 171.187 523.73C171.639 523.255 171.865 522.624 171.865 521.836C171.865 521.049 171.639 520.424 171.187 519.961C170.736 519.486 170.168 519.248 169.485 519.248C168.79 519.248 168.217 519.486 167.766 519.961C167.314 520.424 167.088 521.049 167.088 521.836C167.088 522.624 167.314 523.255 167.766 523.73C168.217 524.193 168.79 524.424 169.485 524.424Z" fill="white"/>
<circle cx="78.7212" cy="509.497" r="30.3965" stroke="#162A36" stroke-width="13.0271"/>
<path fill-rule="evenodd" clip-rule="evenodd" d="M61.3954 505.958C60.9561 507.519 60.7212 509.167 60.7212 510.868C60.7212 512.866 61.045 514.789 61.6431 516.586L37.7482 522.607C36.6842 518.877 36.1145 514.939 36.1145 510.868C36.1145 506.306 36.83 501.911 38.1549 497.789L61.3954 505.958Z" fill="url(#paint6_linear_1121_358)"/>
<path d="M69.7464 512.678C70.528 512.661 71.1056 512.644 71.479 512.626V515.088H64.5877V512.626C65.5257 512.661 66.2335 512.678 66.7111 512.678V508.184C66.3985 508.87 65.7601 509.313 64.7961 509.513C64.7701 508.488 64.6746 507.554 64.5095 506.712C65.2043 506.616 65.6863 506.499 65.9555 506.36C66.2335 506.213 66.4462 506.052 66.5939 505.878C66.7502 505.705 66.8544 505.587 66.9065 505.527V505.5H69.7464V512.678ZM78.9155 510.294C79.2282 510.234 79.5365 510.203 79.8405 510.203C80.3702 510.203 80.8001 510.294 81.1301 510.477C81.4688 510.65 81.712 510.876 81.8597 511.154C82.0073 511.423 82.0811 511.706 82.0811 512.001C82.0811 512.687 81.8553 513.273 81.4037 513.76C80.9521 514.237 80.3398 514.602 79.5669 514.854C78.794 515.097 77.9342 515.219 76.9875 515.219C74.2432 515.219 72.4671 514.263 71.6595 512.353L72.389 512.17C72.9274 512.04 73.3834 511.918 73.7568 511.806C74.1389 511.684 74.4733 511.549 74.7599 511.402C74.9336 511.836 75.1811 512.149 75.5024 512.34C75.8325 512.522 76.2841 512.613 76.8573 512.613C77.4652 512.613 77.9602 512.544 78.3423 512.405C78.7245 512.266 78.9155 512.057 78.9155 511.78C78.9155 511.632 78.8417 511.519 78.6941 511.441C78.5464 511.363 78.312 511.311 77.9906 511.284C77.6693 511.25 77.2177 511.232 76.6358 511.232H75.6457V508.953H76.245C76.905 508.953 77.4435 508.927 77.8603 508.874C78.2772 508.814 78.4856 508.688 78.4856 508.497C78.4856 508.28 78.3727 508.106 78.1469 507.976C77.9298 507.837 77.5868 507.767 77.1178 507.767C76.5099 507.767 76.0148 507.893 75.6327 508.145C75.2593 508.397 74.9683 508.762 74.7599 509.239C73.8306 508.866 72.8406 508.601 71.7897 508.445C72.2066 507.507 72.8449 506.781 73.7047 506.269C74.5732 505.757 75.6892 505.5 77.0527 505.5C77.9385 505.5 78.7332 505.618 79.4366 505.852C80.1488 506.078 80.7046 506.395 81.1041 506.803C81.5123 507.211 81.7164 507.667 81.7164 508.171C81.7164 508.466 81.6469 508.731 81.5079 508.966C81.369 509.191 81.0954 509.417 80.6872 509.643C80.279 509.86 79.6885 510.077 78.9155 510.294ZM91.3285 510.425C91.9017 510.425 92.3924 510.529 92.8006 510.737C93.2087 510.937 93.517 511.215 93.7255 511.571C93.9426 511.927 94.0511 512.322 94.0511 512.757C94.0511 513.199 93.9426 513.599 93.7255 513.955C93.517 514.311 93.2087 514.593 92.8006 514.802C92.3924 515.002 91.9017 515.101 91.3285 515.101C90.7466 515.101 90.2472 515.002 89.8304 514.802C89.4222 514.593 89.1095 514.311 88.8924 513.955C88.684 513.599 88.5798 513.199 88.5798 512.757C88.5798 512.496 88.6189 512.248 88.697 512.014L86.3912 515.101H83.382L87.4334 509.682C86.9471 510.099 86.2957 510.307 85.4793 510.307C84.8975 510.307 84.3981 510.208 83.9812 510.008C83.573 509.799 83.2604 509.517 83.0433 509.161C82.8348 508.805 82.7306 508.405 82.7306 507.963C82.7306 507.528 82.8348 507.133 83.0433 506.777C83.2604 506.421 83.573 506.143 83.9812 505.943C84.3981 505.735 84.8975 505.631 85.4793 505.631C86.0525 505.631 86.5432 505.735 86.9514 505.943C87.3596 506.143 87.6679 506.421 87.8763 506.777C88.0934 507.133 88.202 507.528 88.202 507.963C88.202 508.31 88.1369 508.627 88.0066 508.914L90.3905 505.735H93.3868L89.5177 510.92C89.9867 510.59 90.5903 510.425 91.3285 510.425ZM85.4793 508.666C85.6617 508.666 85.8267 508.592 85.9744 508.445C86.1307 508.297 86.2089 508.132 86.2089 507.95C86.2089 507.767 86.1307 507.611 85.9744 507.481C85.8267 507.35 85.6617 507.285 85.4793 507.285C85.2796 507.285 85.1016 507.35 84.9452 507.481C84.7976 507.611 84.7238 507.767 84.7238 507.95C84.7238 508.141 84.7976 508.31 84.9452 508.458C85.1016 508.597 85.2796 508.666 85.4793 508.666ZM91.3285 513.46C91.5109 513.46 91.6759 513.386 91.8235 513.239C91.9798 513.091 92.058 512.926 92.058 512.744C92.058 512.561 91.9798 512.405 91.8235 512.275C91.6759 512.144 91.5109 512.079 91.3285 512.079C91.1287 512.079 90.9507 512.144 90.7944 512.275C90.6467 512.405 90.5729 512.561 90.5729 512.744C90.5729 512.935 90.6467 513.104 90.7944 513.252C90.9507 513.391 91.1287 513.46 91.3285 513.46Z" fill="white"/>
<defs>
<linearGradient id="paint0_linear_1121_358" x1="70.341" y1="309.993" x2="84.9653" y2="347.582" gradientUnits="userSpaceOnUse">
<stop stop-color="#7F31FF"/>
<stop offset="1" stop-color="#090041"/>
</linearGradient>
<linearGradient id="paint1_linear_1121_358" x1="205.554" y1="148.449" x2="269.817" y2="218.848" gradientUnits="userSpaceOnUse">
<stop stop-color="#5855FF"/>
<stop offset="1" stop-color="#05003E"/>
</linearGradient>
<linearGradient id="paint2_linear_1121_358" x1="165.814" y1="418.802" x2="184.463" y2="457.178" gradientUnits="userSpaceOnUse">
<stop stop-color="#FF31F7"/>
<stop offset="1" stop-color="#1D0041"/>
</linearGradient>
<linearGradient id="paint3_linear_1121_358" x1="187.846" y1="796.044" x2="192.366" y2="820.543" gradientUnits="userSpaceOnUse">
<stop stop-color="#A4FF31"/>
<stop offset="1" stop-color="#005F3D"/>
</linearGradient>
<linearGradient id="paint4_linear_1121_358" x1="163.648" y1="591.644" x2="166.117" y2="617.366" gradientUnits="userSpaceOnUse">
<stop stop-color="#FFD231"/>
<stop offset="1" stop-color="#974800"/>
</linearGradient>
<linearGradient id="paint5_linear_1121_358" x1="44.6985" y1="692.409" x2="47.6259" y2="718.703" gradientUnits="userSpaceOnUse">
<stop stop-color="#FF3156"/>
<stop offset="1" stop-color="#410027"/>
</linearGradient>
<linearGradient id="paint6_linear_1121_358" x1="36.0455" y1="501.25" x2="38.4573" y2="525.559" gradientUnits="userSpaceOnUse">
<stop stop-color="#31FFF3"/>
<stop offset="1" stop-color="#002B5F"/>
</linearGradient>
</defs>
</svg>
