<svg width="28" height="31" viewBox="0 0 28 31" fill="none" xmlns="http://www.w3.org/2000/svg">
<path d="M28 6.57575C28 10.2074 21.732 13.1515 14 13.1515C6.26801 13.1515 0 10.2074 0 6.57575C0 2.94407 6.26801 0 14 0C21.732 0 28 2.94407 28 6.57575Z" fill="#63A3C9"/>
<path d="M26.9682 21.942C23.8869 24.0316 19.2217 25.3636 14 25.3636C8.77834 25.3636 4.11308 24.0316 1.03176 21.942C0.366566 22.708 0 23.546 0 24.4242C0 28.0559 6.26801 31 14 31C21.732 31 28 28.0559 28 24.4242C28 23.546 27.6334 22.708 26.9682 21.942Z" fill="#63A3C9"/>
<path d="M14 15.9697C18.91 15.9697 23.3281 14.7919 26.3998 12.914C27.4217 13.8269 28 14.8666 28 15.9697C28 19.6013 21.732 22.5454 14 22.5454C6.26801 22.5454 0 19.6013 0 15.9697C0 14.8666 0.578262 13.8269 1.60017 12.914C4.67193 14.7919 9.08998 15.9697 14 15.9697Z" fill="#63A3C9"/>
</svg>
