<svg width="28" height="27" viewBox="0 0 28 27" fill="none" xmlns="http://www.w3.org/2000/svg">
<path d="M27.2911 0L20.557 0.350649C20.557 0.350649 10.7288 13.2105 6.36471 17.8681L2.83552 14.3766L1.77223 18.2337L3.87172 20.3108C1.22285 22.7676 0 23.4934 0 23.4934L0.70886 26.2986L3.5443 26.9999C3.5443 26.9999 4.27802 25.7901 6.76125 23.1695L8.86084 25.2467L12.7596 24.1948L9.23028 20.7031C13.9382 16.3856 26.9367 6.66232 26.9367 6.66232L27.2911 0Z" fill="#63A3C9"/>
<path d="M0.708863 6.60132e-05L1.06329 6.66239C1.06329 6.66239 14.0618 16.3857 18.7697 20.7032L15.2405 24.1947L19.1393 25.2467L21.2388 23.1696C23.722 25.7902 24.4557 27 24.4557 27L27.2911 26.2987L28 23.4935C28 23.4935 26.7771 22.7676 24.1283 20.3109L26.2279 18.2337L25.1646 14.3766L21.6353 17.8682C17.2712 13.2105 7.44304 0.350715 7.44304 0.350715L0.708863 6.60132e-05Z" fill="#63A3C9"/>
</svg>
