<svg width="88" height="20" viewBox="0 0 88 20" fill="none" xmlns="http://www.w3.org/2000/svg">
<path d="M20.1373 10C20.1373 15.5225 15.6291 20 10.0687 20C4.5082 20 0 15.5225 0 10C0 4.47746 4.5082 0 10.0687 0C15.6303 0 20.1373 4.47746 20.1373 10Z" fill="#2081E2"/>
<path d="M4.96751 10.336L5.01095 10.2682L7.6302 6.19863C7.66849 6.13905 7.75848 6.14521 7.78744 6.20993C8.22502 7.18391 8.60259 8.39523 8.42571 9.14935C8.35019 9.45963 8.1433 9.87983 7.91054 10.2682C7.88055 10.3247 7.84745 10.3802 7.81227 10.4336C7.79571 10.4583 7.76778 10.4727 7.73778 10.4727H5.04405C4.97164 10.4727 4.92923 10.3946 4.96751 10.336Z" fill="white"/>
<path d="M16.6423 11.0922V11.7364C16.6423 11.7734 16.6195 11.8062 16.5864 11.8206C16.3837 11.9069 15.6895 12.2234 15.4009 12.622C14.6644 13.6402 14.1017 15.096 12.8437 15.096H7.59592C5.73598 15.096 4.22876 13.5939 4.22876 11.7405V11.6809C4.22876 11.6316 4.26909 11.5915 4.31875 11.5915H7.24422C7.30213 11.5915 7.34454 11.6449 7.33939 11.7014C7.31869 11.8905 7.35387 12.0836 7.44386 12.2593C7.61765 12.6097 7.97764 12.8285 8.36659 12.8285H9.81485V11.7056H8.38315C8.3097 11.7056 8.26627 11.6213 8.30868 11.5617C8.32418 11.5381 8.34178 11.5134 8.36039 11.4857C8.49591 11.2946 8.68935 10.9977 8.88176 10.6597C9.01314 10.4316 9.14037 10.1881 9.24279 9.94356C9.26349 9.89938 9.28002 9.85416 9.29657 9.80998C9.3245 9.7319 9.35348 9.65896 9.37416 9.58602C9.39486 9.52436 9.4114 9.45964 9.42795 9.39902C9.47658 9.19148 9.49726 8.97162 9.49726 8.74354C9.49726 8.65416 9.49313 8.56066 9.48486 8.47128C9.48071 8.37368 9.4683 8.27606 9.45588 8.17846C9.4476 8.09216 9.4321 8.00688 9.41554 7.9175C9.39486 7.78702 9.36589 7.65758 9.33278 7.52708L9.3214 7.47778C9.29657 7.38838 9.27589 7.30312 9.24693 7.21374C9.1652 6.93324 9.07108 6.65996 8.97176 6.40414C8.93555 6.30242 8.89417 6.20482 8.85279 6.10722C8.79177 5.9603 8.72969 5.82674 8.6728 5.70036C8.64384 5.64282 8.61901 5.59042 8.59418 5.537C8.56625 5.47638 8.5373 5.41576 8.50832 5.35824C8.48764 5.31406 8.46384 5.27296 8.44728 5.23186L8.2704 4.9072C8.24557 4.86302 8.28695 4.81062 8.33556 4.82398L9.44245 5.12192H9.44555C9.4476 5.12192 9.44865 5.12296 9.44968 5.12296L9.59553 5.16302L9.75589 5.20824L9.81485 5.22466V4.57124C9.81485 4.25582 10.0693 4 10.3838 4C10.541 4 10.6838 4.0637 10.7862 4.16746C10.8886 4.27124 10.9527 4.41302 10.9527 4.57124V5.54112L11.0707 5.57398C11.08 5.57708 11.0893 5.58118 11.0976 5.58734C11.1266 5.60892 11.1679 5.64076 11.2207 5.67982C11.2621 5.71268 11.3065 5.75276 11.3603 5.79386C11.4669 5.87912 11.5941 5.98906 11.7338 6.11544C11.771 6.14728 11.8072 6.18016 11.8403 6.21304C12.0203 6.37948 12.222 6.57468 12.4145 6.79044C12.4682 6.85106 12.521 6.9127 12.5748 6.97742C12.6286 7.04318 12.6855 7.1079 12.7351 7.17264C12.8003 7.25894 12.8706 7.34832 12.9317 7.44182C12.9606 7.486 12.9937 7.5312 13.0217 7.57538C13.1003 7.69352 13.1696 7.8158 13.2358 7.93806C13.2637 7.99456 13.2927 8.0562 13.3175 8.11682C13.391 8.28018 13.4489 8.44662 13.4861 8.61306C13.4975 8.64902 13.5058 8.68806 13.5099 8.723V8.73122C13.5223 8.78052 13.5265 8.83292 13.5306 8.88634C13.5472 9.0569 13.5389 9.22744 13.5017 9.39902C13.4861 9.47198 13.4655 9.5408 13.4406 9.61376C13.4158 9.68362 13.391 9.75656 13.3589 9.8254C13.2968 9.9682 13.2234 10.111 13.1365 10.2446C13.1086 10.2939 13.0755 10.3463 13.0424 10.3956C13.0061 10.448 12.9689 10.4973 12.9358 10.5456C12.8903 10.6073 12.8417 10.672 12.792 10.7295C12.7475 10.7901 12.702 10.8508 12.6524 10.9042C12.5831 10.9853 12.5169 11.0624 12.4475 11.1364C12.4062 11.1847 12.3617 11.234 12.3162 11.2782C12.2717 11.3275 12.2262 11.3716 12.1848 11.4127C12.1155 11.4816 12.0576 11.535 12.0089 11.5792L11.8952 11.683C11.8786 11.6973 11.8569 11.7056 11.8341 11.7056H10.9527V12.8285H12.0617C12.31 12.8285 12.5458 12.7412 12.7362 12.5809C12.8013 12.5244 13.0858 12.2799 13.422 11.911C13.4334 11.8987 13.4479 11.8895 13.4644 11.8854L16.5275 11.0059C16.5844 10.9895 16.6423 11.0326 16.6423 11.0922Z" fill="white"/>
<path d="M29.9488 14.7993C29.0386 14.7993 28.2018 14.5967 27.4388 14.1916C26.6849 13.7864 26.0826 13.2227 25.6321 12.5004C25.1909 11.7694 24.9702 10.9502 24.9702 10.043C24.9702 9.13583 25.1909 8.32109 25.6321 7.59885C26.0826 6.87661 26.6849 6.31289 27.4388 5.90773C28.2018 5.50257 29.0386 5.29999 29.9488 5.29999C30.859 5.29999 31.691 5.50257 32.445 5.90773C33.2082 6.31289 33.8057 6.87661 34.2378 7.59885C34.6792 8.32109 34.8997 9.13583 34.8997 10.043C34.8997 10.9502 34.6792 11.7694 34.2378 12.5004C33.7966 13.2227 33.1989 13.7864 32.445 14.1916C31.691 14.5967 30.859 14.7993 29.9488 14.7993ZM29.9488 12.7382C30.721 12.7382 31.337 12.4916 31.7968 11.9984C32.2658 11.5051 32.5002 10.8534 32.5002 10.043C32.5002 9.22391 32.2658 8.57213 31.7968 8.08769C31.337 7.59445 30.721 7.34783 29.9488 7.34783C29.1672 7.34783 28.5422 7.59005 28.0732 8.07447C27.6134 8.55891 27.3837 9.21509 27.3837 10.043C27.3837 10.8622 27.6134 11.5184 28.0732 12.0116C28.5422 12.496 29.1672 12.7382 29.9488 12.7382Z" fill="#04111D"/>
<path d="M38.5702 8.37835C38.8 8.03485 39.1171 7.75739 39.5217 7.54601C39.9262 7.33461 40.3997 7.22891 40.9422 7.22891C41.5765 7.22891 42.1512 7.38305 42.6661 7.69133C43.1808 7.99961 43.5854 8.44001 43.8796 9.01251C44.1831 9.58503 44.3347 10.25 44.3347 11.0075C44.3347 11.765 44.1831 12.4344 43.8796 13.0157C43.5854 13.5882 43.1808 14.033 42.6661 14.3501C42.1512 14.6584 41.5765 14.8125 40.9422 14.8125C40.4089 14.8125 39.9355 14.7068 39.5217 14.4954C39.1171 14.2841 38.8 14.011 38.5702 13.6763V16.9H36.2119V7.33461H38.5702V8.37835ZM41.9351 11.0075C41.9351 10.4438 41.7696 10.0034 41.4386 9.68633C41.1168 9.36043 40.7168 9.19749 40.2388 9.19749C39.77 9.19749 39.37 9.36043 39.039 9.68633C38.7172 10.0122 38.5563 10.457 38.5563 11.0207C38.5563 11.5844 38.7172 12.0292 39.039 12.3551C39.37 12.681 39.77 12.844 40.2388 12.844C40.7078 12.844 41.1077 12.681 41.4386 12.3551C41.7696 12.0204 41.9351 11.5712 41.9351 11.0075Z" fill="#04111D"/>
<path d="M52.8259 10.9018C52.8259 11.1132 52.8122 11.3334 52.7846 11.5624H47.4474C47.4843 12.0204 47.6359 12.3727 47.9025 12.6194C48.1784 12.8572 48.5139 12.9761 48.9094 12.9761C49.4978 12.9761 49.9068 12.7383 50.1368 12.2626H52.6467C52.518 12.7471 52.2836 13.1831 51.9433 13.5706C51.6124 13.9582 51.194 14.262 50.6883 14.4822C50.1827 14.7024 49.6172 14.8125 48.9921 14.8125C48.2382 14.8125 47.567 14.6584 46.9786 14.3501C46.3902 14.0418 45.9305 13.6014 45.5994 13.0289C45.2686 12.4564 45.103 11.787 45.103 11.0207C45.103 10.2544 45.2639 9.58503 45.5857 9.01251C45.9166 8.44001 46.3763 7.99961 46.9647 7.69133C47.5531 7.38305 48.2289 7.22891 48.9921 7.22891C49.7368 7.22891 50.3987 7.37865 50.9779 7.67813C51.5572 7.97759 52.0077 8.40477 52.3295 8.95967C52.6606 9.51457 52.8259 10.162 52.8259 10.9018ZM50.4126 10.3073C50.4126 9.91973 50.2747 9.61145 49.9988 9.38245C49.7229 9.15345 49.3782 9.03895 48.9646 9.03895C48.5691 9.03895 48.2336 9.14905 47.9577 9.36923C47.6911 9.58943 47.5255 9.90211 47.4613 10.3073H50.4126Z" fill="#04111D"/>
<path d="M58.7593 7.25537C59.6602 7.25537 60.3773 7.53721 60.9106 8.10093C61.4531 8.65581 61.7243 9.42211 61.7243 10.3998V14.7069H59.3797V10.7037C59.3797 10.2104 59.2464 9.82727 58.9798 9.55423C58.7132 9.28117 58.3547 9.14465 57.9043 9.14465C57.4536 9.14465 57.0951 9.28117 56.8285 9.55423C56.5619 9.82727 56.4286 10.2104 56.4286 10.7037V14.7069H54.0703V7.33463H56.4286V8.31231C56.6676 7.98641 56.9894 7.73099 57.394 7.54603C57.7983 7.35225 58.2534 7.25537 58.7593 7.25537Z" fill="#04111D"/>
<path d="M66.8659 14.7993C66.1581 14.7993 65.5236 14.6892 64.9627 14.469C64.4019 14.2488 63.9515 13.9229 63.6113 13.4913C63.2803 13.0597 63.1055 12.5401 63.0872 11.9323H65.5971C65.6339 12.2758 65.758 12.5401 65.9696 12.725C66.1811 12.9012 66.4567 12.9893 66.7971 12.9893C67.1464 12.9893 67.4221 12.9144 67.6245 12.7647C67.8267 12.6061 67.928 12.3903 67.928 12.1173C67.928 11.8883 67.8452 11.6989 67.6797 11.5492C67.5234 11.3994 67.3257 11.2761 67.0866 11.1793C66.8567 11.0824 66.5258 10.9723 66.0937 10.849C65.4684 10.664 64.9581 10.479 64.5628 10.2941C64.1675 10.1091 63.8274 9.83605 63.5423 9.47493C63.2573 9.11381 63.1147 8.64259 63.1147 8.06127C63.1147 7.19809 63.4412 6.52429 64.094 6.03985C64.7467 5.54661 65.5971 5.29999 66.6452 5.29999C67.7119 5.29999 68.5713 5.54661 69.2242 6.03985C69.877 6.52429 70.2264 7.20249 70.2723 8.07447H67.7209C67.7026 7.77501 67.5876 7.54159 67.3762 7.37425C67.1648 7.19809 66.8935 7.11001 66.5625 7.11001C66.2775 7.11001 66.0477 7.18487 65.8729 7.33461C65.6984 7.47553 65.611 7.68253 65.611 7.95557C65.611 8.25503 65.758 8.48845 66.0524 8.65579C66.3466 8.82315 66.8061 9.00371 67.4314 9.19749C68.0566 9.40007 68.5623 9.59383 68.9483 9.77881C69.3438 9.96377 69.6839 10.2324 69.9689 10.5847C70.254 10.937 70.3964 11.3906 70.3964 11.9455C70.3964 12.474 70.254 12.954 69.9689 13.3856C69.6932 13.8172 69.2886 14.1607 68.7554 14.4162C68.2222 14.6716 67.5923 14.7993 66.8659 14.7993Z" fill="#04111D"/>
<path d="M79.102 10.9018C79.102 11.1132 79.0881 11.3334 79.0605 11.5624H73.7233C73.7601 12.0204 73.9118 12.3727 74.1784 12.6194C74.4543 12.8572 74.79 12.9761 75.1853 12.9761C75.7737 12.9761 76.1829 12.7383 76.4126 12.2626H78.9225C78.7939 12.7471 78.5595 13.1831 78.2193 13.5706C77.8883 13.9582 77.47 14.262 76.9642 14.4822C76.4585 14.7024 75.8931 14.8125 75.268 14.8125C74.5141 14.8125 73.8429 14.6584 73.2545 14.3501C72.6661 14.0418 72.2063 13.6014 71.8753 13.0289C71.5444 12.4564 71.3789 11.787 71.3789 11.0207C71.3789 10.2544 71.5398 9.58503 71.8616 9.01251C72.1925 8.44001 72.6522 7.99961 73.2406 7.69133C73.829 7.38305 74.5048 7.22891 75.268 7.22891C76.0127 7.22891 76.6746 7.37865 77.254 7.67813C77.8331 7.97759 78.2836 8.40477 78.6054 8.95967C78.9364 9.51457 79.102 10.162 79.102 10.9018ZM76.6885 10.3073C76.6885 9.91973 76.5506 9.61145 76.2747 9.38245C75.9988 9.15345 75.6541 9.03895 75.2404 9.03895C74.8451 9.03895 74.5094 9.14905 74.2336 9.36923C73.967 9.58943 73.8014 9.90211 73.7372 10.3073H76.6885Z" fill="#04111D"/>
<path d="M79.877 11.0075C79.877 10.25 80.0242 9.58503 80.3184 9.01251C80.6216 8.44001 81.0308 7.99961 81.5457 7.69133C82.0606 7.38305 82.6352 7.22891 83.2697 7.22891C83.812 7.22891 84.2856 7.33461 84.6902 7.54601C85.1038 7.75739 85.421 8.03485 85.6417 8.37835V7.33461H87.9999V14.7068H85.6417V13.6631C85.4119 14.0066 85.0901 14.2841 84.6763 14.4954C84.2717 14.7068 83.7983 14.8125 83.2558 14.8125C82.6305 14.8125 82.0606 14.6584 81.5457 14.3501C81.0308 14.033 80.6216 13.5882 80.3184 13.0157C80.0242 12.4344 79.877 11.765 79.877 11.0075ZM85.6417 11.0207C85.6417 10.457 85.4761 10.0122 85.1453 9.68633C84.8235 9.36043 84.428 9.19749 83.9592 9.19749C83.4902 9.19749 83.0903 9.36043 82.7594 9.68633C82.4376 10.0034 82.2767 10.4438 82.2767 11.0075C82.2767 11.5712 82.4376 12.0204 82.7594 12.3551C83.0903 12.681 83.4902 12.844 83.9592 12.844C84.428 12.844 84.8235 12.681 85.1453 12.3551C85.4761 12.0292 85.6417 11.5844 85.6417 11.0207Z" fill="#04111D"/>
</svg>
