<svg width="35" height="268" viewBox="0 0 35 268" fill="none" xmlns="http://www.w3.org/2000/svg">
<path d="M1 77V115C1 123.284 7.71573 130 16 130H28" stroke="#192A34" stroke-width="2"/>
<path d="M1 111V159C1 167.284 7.71573 174 16 174H28" stroke="#192A34" stroke-width="2"/>
<path d="M1 87V204C1 212.284 7.71573 219 16 219H28" stroke="#192A34" stroke-width="2"/>
<path d="M28 263H16C7.71573 263 1 256.284 1 248V22C1 13.7157 7.71573 7 16 7H24.5" stroke="#192A34" stroke-width="2"/>
<circle cx="28" cy="7" r="7" fill="#83E3FC"/>
<circle cx="28" cy="130" r="5" fill="#63A3C9"/>
<circle cx="28" cy="174" r="5" fill="#63A3C9"/>
<circle cx="28" cy="219" r="5" fill="#63A3C9"/>
<circle cx="28" cy="263" r="5" fill="#63A3C9"/>
</svg>
