<svg width="332" height="197" viewBox="0 0 332 197" fill="none" xmlns="http://www.w3.org/2000/svg">
<path d="M154.563 4.17374C161.778 1.48188 169.721 1.48188 176.936 4.17374L310.436 53.9842C322.951 58.6539 331.249 70.6068 331.249 83.9653V113.035C331.249 126.393 322.951 138.346 310.436 143.016L176.936 192.826C169.721 195.518 161.778 195.518 154.563 192.826L21.063 143.016C8.54734 138.346 0.249268 126.393 0.249268 113.035V83.9653C0.249268 70.6068 8.54733 58.6539 21.063 53.9842L154.563 4.17374Z" fill="#11232E"/>
<path d="M162.477 106.4H154.677L153.189 110H149.205L156.693 93.2001H160.533L168.045 110H163.965L162.477 106.4ZM161.253 103.448L158.589 97.0161L155.925 103.448H161.253ZM182.559 92.1921V110H178.983V108.512C178.055 109.632 176.711 110.192 174.951 110.192C173.735 110.192 172.631 109.92 171.639 109.376C170.663 108.832 169.895 108.056 169.335 107.048C168.775 106.04 168.495 104.872 168.495 103.544C168.495 102.216 168.775 101.048 169.335 100.04C169.895 99.0321 170.663 98.2561 171.639 97.7121C172.631 97.1681 173.735 96.8961 174.951 96.8961C176.599 96.8961 177.887 97.4161 178.815 98.4561V92.1921H182.559ZM175.599 107.12C176.543 107.12 177.327 106.8 177.951 106.16C178.575 105.504 178.887 104.632 178.887 103.544C178.887 102.456 178.575 101.592 177.951 100.952C177.327 100.296 176.543 99.9681 175.599 99.9681C174.639 99.9681 173.847 100.296 173.223 100.952C172.599 101.592 172.287 102.456 172.287 103.544C172.287 104.632 172.599 105.504 173.223 106.16C173.847 106.8 174.639 107.12 175.599 107.12ZM198.84 97.0881L193.392 110H189.528L184.104 97.0881H187.968L191.544 105.872L195.24 97.0881H198.84ZM200.368 97.0881H204.112V110H200.368V97.0881ZM202.24 95.2881C201.552 95.2881 200.992 95.0881 200.56 94.6881C200.128 94.2881 199.912 93.7921 199.912 93.2001C199.912 92.6081 200.128 92.1121 200.56 91.7121C200.992 91.3121 201.552 91.1121 202.24 91.1121C202.928 91.1121 203.488 91.3041 203.92 91.6881C204.352 92.0721 204.568 92.5521 204.568 93.1281C204.568 93.7521 204.352 94.2721 203.92 94.6881C203.488 95.0881 202.928 95.2881 202.24 95.2881ZM211.931 110.192C210.859 110.192 209.811 110.064 208.787 109.808C207.763 109.536 206.947 109.2 206.339 108.8L207.587 106.112C208.163 106.48 208.859 106.784 209.675 107.024C210.491 107.248 211.291 107.36 212.075 107.36C213.659 107.36 214.451 106.968 214.451 106.184C214.451 105.816 214.235 105.552 213.803 105.392C213.371 105.232 212.707 105.096 211.811 104.984C210.755 104.824 209.883 104.64 209.195 104.432C208.507 104.224 207.907 103.856 207.395 103.328C206.899 102.8 206.651 102.048 206.651 101.072C206.651 100.256 206.883 99.5361 207.347 98.9121C207.827 98.2721 208.515 97.7761 209.411 97.4241C210.323 97.0721 211.395 96.8961 212.627 96.8961C213.539 96.8961 214.443 97.0001 215.339 97.2081C216.251 97.4001 217.003 97.6721 217.595 98.0241L216.347 100.688C215.211 100.048 213.971 99.7281 212.627 99.7281C211.827 99.7281 211.227 99.8401 210.827 100.064C210.427 100.288 210.227 100.576 210.227 100.928C210.227 101.328 210.443 101.608 210.875 101.768C211.307 101.928 211.995 102.08 212.939 102.224C213.995 102.4 214.859 102.592 215.531 102.8C216.203 102.992 216.787 103.352 217.283 103.88C217.779 104.408 218.027 105.144 218.027 106.088C218.027 106.888 217.787 107.6 217.307 108.224C216.827 108.848 216.123 109.336 215.195 109.688C214.283 110.024 213.195 110.192 211.931 110.192ZM226.481 110.192C225.121 110.192 223.897 109.912 222.809 109.352C221.737 108.776 220.897 107.984 220.289 106.976C219.681 105.968 219.377 104.824 219.377 103.544C219.377 102.264 219.681 101.12 220.289 100.112C220.897 99.1041 221.737 98.3201 222.809 97.7601C223.897 97.1841 225.121 96.8961 226.481 96.8961C227.841 96.8961 229.057 97.1841 230.129 97.7601C231.201 98.3201 232.041 99.1041 232.649 100.112C233.257 101.12 233.561 102.264 233.561 103.544C233.561 104.824 233.257 105.968 232.649 106.976C232.041 107.984 231.201 108.776 230.129 109.352C229.057 109.912 227.841 110.192 226.481 110.192ZM226.481 107.12C227.441 107.12 228.225 106.8 228.833 106.16C229.457 105.504 229.769 104.632 229.769 103.544C229.769 102.456 229.457 101.592 228.833 100.952C228.225 100.296 227.441 99.9681 226.481 99.9681C225.521 99.9681 224.729 100.296 224.105 100.952C223.481 101.592 223.169 102.456 223.169 103.544C223.169 104.632 223.481 105.504 224.105 106.16C224.729 106.8 225.521 107.12 226.481 107.12ZM239.639 98.7921C240.087 98.1681 240.687 97.6961 241.439 97.3761C242.207 97.0561 243.087 96.8961 244.079 96.8961V100.352C243.663 100.32 243.383 100.304 243.239 100.304C242.167 100.304 241.327 100.608 240.719 101.216C240.111 101.808 239.807 102.704 239.807 103.904V110H236.063V97.0881H239.639V98.7921ZM250.696 110.192C249.624 110.192 248.576 110.064 247.552 109.808C246.528 109.536 245.712 109.2 245.104 108.8L246.352 106.112C246.928 106.48 247.624 106.784 248.44 107.024C249.256 107.248 250.056 107.36 250.84 107.36C252.424 107.36 253.216 106.968 253.216 106.184C253.216 105.816 253 105.552 252.568 105.392C252.136 105.232 251.472 105.096 250.576 104.984C249.52 104.824 248.648 104.64 247.96 104.432C247.272 104.224 246.672 103.856 246.16 103.328C245.664 102.8 245.416 102.048 245.416 101.072C245.416 100.256 245.648 99.5361 246.112 98.9121C246.592 98.2721 247.28 97.7761 248.176 97.4241C249.088 97.0721 250.16 96.8961 251.392 96.8961C252.304 96.8961 253.208 97.0001 254.104 97.2081C255.016 97.4001 255.768 97.6721 256.36 98.0241L255.112 100.688C253.976 100.048 252.736 99.7281 251.392 99.7281C250.592 99.7281 249.992 99.8401 249.592 100.064C249.192 100.288 248.992 100.576 248.992 100.928C248.992 101.328 249.208 101.608 249.64 101.768C250.072 101.928 250.76 102.08 251.704 102.224C252.76 102.4 253.624 102.592 254.296 102.8C254.968 102.992 255.552 103.352 256.048 103.88C256.544 104.408 256.792 105.144 256.792 106.088C256.792 106.888 256.552 107.6 256.072 108.224C255.592 108.848 254.888 109.336 253.96 109.688C253.048 110.024 251.96 110.192 250.696 110.192Z" fill="white"/>
<circle cx="75.4211" cy="99" r="42" stroke="#162A36" stroke-width="18"/>
<path fill-rule="evenodd" clip-rule="evenodd" d="M75.6593 42.0014C75.5227 42.0005 75.3861 42 75.2493 42C68.5408 42 62.0938 43.1196 56.085 45.1822L67.0214 77.3855C69.5981 76.4879 72.3667 76 75.2493 76C75.3861 76 75.5227 76.0011 75.659 76.0033L75.6593 42.0014Z" fill="url(#paint0_linear_886_122)"/>
<path d="M70.1669 103.67C71.2469 103.646 72.0449 103.622 72.5609 103.598V107H63.0389V103.598C64.3349 103.646 65.3129 103.67 65.9729 103.67V97.46C65.5409 98.408 64.6589 99.02 63.3269 99.296C63.2909 97.88 63.1589 96.59 62.9309 95.426C63.8909 95.294 64.5569 95.132 64.9289 94.94C65.3129 94.736 65.6069 94.514 65.8109 94.274C66.0269 94.034 66.1709 93.872 66.2429 93.788V93.752H70.1669V103.67ZM84.853 100.556C85.645 100.556 86.323 100.7 86.887 100.988C87.451 101.264 87.877 101.648 88.165 102.14C88.465 102.632 88.615 103.178 88.615 103.778C88.615 104.39 88.465 104.942 88.165 105.434C87.877 105.926 87.451 106.316 86.887 106.604C86.323 106.88 85.645 107.018 84.853 107.018C84.049 107.018 83.359 106.88 82.783 106.604C82.219 106.316 81.787 105.926 81.487 105.434C81.199 104.942 81.055 104.39 81.055 103.778C81.055 103.418 81.109 103.076 81.217 102.752L78.031 107.018H73.873L79.471 99.53C78.799 100.106 77.899 100.394 76.771 100.394C75.967 100.394 75.277 100.256 74.701 99.98C74.137 99.692 73.705 99.302 73.405 98.81C73.117 98.318 72.973 97.766 72.973 97.154C72.973 96.554 73.117 96.008 73.405 95.516C73.705 95.024 74.137 94.64 74.701 94.364C75.277 94.076 75.967 93.932 76.771 93.932C77.563 93.932 78.241 94.076 78.805 94.364C79.369 94.64 79.795 95.024 80.083 95.516C80.383 96.008 80.533 96.554 80.533 97.154C80.533 97.634 80.443 98.072 80.263 98.468L83.557 94.076H87.697L82.351 101.24C82.999 100.784 83.833 100.556 84.853 100.556ZM76.771 98.126C77.023 98.126 77.251 98.024 77.455 97.82C77.671 97.616 77.779 97.388 77.779 97.136C77.779 96.884 77.671 96.668 77.455 96.488C77.251 96.308 77.023 96.218 76.771 96.218C76.495 96.218 76.249 96.308 76.033 96.488C75.829 96.668 75.727 96.884 75.727 97.136C75.727 97.4 75.829 97.634 76.033 97.838C76.249 98.03 76.495 98.126 76.771 98.126ZM84.853 104.75C85.105 104.75 85.333 104.648 85.537 104.444C85.753 104.24 85.861 104.012 85.861 103.76C85.861 103.508 85.753 103.292 85.537 103.112C85.333 102.932 85.105 102.842 84.853 102.842C84.577 102.842 84.331 102.932 84.115 103.112C83.911 103.292 83.809 103.508 83.809 103.76C83.809 104.024 83.911 104.258 84.115 104.462C84.331 104.654 84.577 104.75 84.853 104.75Z" fill="white"/>
<defs>
<linearGradient id="paint0_linear_886_122" x1="56.0321" y1="46.9344" x2="62.2771" y2="80.7848" gradientUnits="userSpaceOnUse">
<stop stop-color="#A4FF31"/>
<stop offset="1" stop-color="#005F3D"/>
</linearGradient>
</defs>
</svg>
