<svg width="26" height="28" viewBox="0 0 26 28" fill="none" xmlns="http://www.w3.org/2000/svg">
<rect y="2" width="26" height="26" rx="13" fill="#C9A061"/>
<path d="M11.0716 14.3648C11.0716 14.3648 12.9643 14.2317 12.9643 12.129C12.9643 10.0262 11.4158 9 9.45436 9H3V20.7509H9.45436C9.45436 20.7509 13.3945 20.8688 13.3945 17.2825C13.3945 17.2826 13.5663 14.3648 11.0716 14.3648ZM8.98978 11.0886H9.45436C9.45436 11.0886 10.3317 11.0886 10.3317 12.3112C10.3317 13.5337 9.81573 13.7109 9.23048 13.7109H5.84387V11.0886H8.98978ZM9.27197 18.6624H5.84387V15.5221H9.45436C9.45436 15.5221 10.762 15.5058 10.762 17.1359C10.762 18.5103 9.78532 18.652 9.27197 18.6624ZM18.6494 11.9898C13.8794 11.9898 13.8836 16.5048 13.8836 16.5048C13.8836 16.5048 13.5563 20.9967 18.6494 20.9967C18.6494 20.9967 22.8935 21.2264 22.8935 17.8719H20.7108C20.7108 17.8719 20.7836 19.1352 18.7222 19.1352C18.7222 19.1352 16.5391 19.2738 16.5391 17.0908H22.9663C22.9663 17.0907 23.6696 11.9898 18.6494 11.9898ZM16.5151 15.5221C16.5151 15.5221 16.7817 13.7109 18.6979 13.7109C20.6137 13.7109 20.5897 15.5221 20.5897 15.5221H16.5151ZM21.0981 11.1393H15.9808V9.69228H21.0981V11.1393Z" fill="#050E14"/>
</svg>
