<svg width="26" height="34" viewBox="0 0 26 34" fill="none" xmlns="http://www.w3.org/2000/svg">
<path d="M8.21053 22.551C9.91098 22.551 11.2895 21.1531 11.2895 19.4286C11.2895 17.7041 9.91098 16.3061 8.21053 16.3061C6.51007 16.3061 5.13158 17.7041 5.13158 19.4286C5.13158 21.1531 6.51007 22.551 8.21053 22.551Z" fill="#63A3C9"/>
<path d="M20.8684 19.4286C20.8684 21.1531 19.4899 22.551 17.7895 22.551C16.089 22.551 14.7105 21.1531 14.7105 19.4286C14.7105 17.7041 16.089 16.3061 17.7895 16.3061C19.4899 16.3061 20.8684 17.7041 20.8684 19.4286Z" fill="#63A3C9"/>
<path d="M8.55265 26.0204C7.65153 26.82 7.65206 26.8206 7.65258 26.8212L7.65367 26.8225L7.65592 26.8251L7.6608 26.8306L7.67206 26.8433C7.68022 26.8523 7.68973 26.8627 7.7006 26.8742C7.72234 26.8974 7.74955 26.9252 7.78246 26.9572C7.84828 27.0211 7.93689 27.1012 8.05007 27.1915C8.27677 27.3724 8.60067 27.5933 9.0352 27.8069C9.90957 28.2368 11.2008 28.6224 13 28.6224C14.7992 28.6224 16.0905 28.2368 16.9648 27.8069C17.3994 27.5933 17.7233 27.3724 17.95 27.1915C18.0631 27.1012 18.1517 27.0211 18.2176 26.9572C18.2505 26.9252 18.2777 26.8974 18.2994 26.8742C18.3103 26.8627 18.3198 26.8523 18.328 26.8433L18.3392 26.8306L18.3441 26.8251L18.3464 26.8225L18.3474 26.8212C18.348 26.8206 18.3485 26.82 17.4474 26.0204C16.5463 25.2208 16.5468 25.2202 16.5473 25.2196L16.5483 25.2184L16.5502 25.2162L16.5538 25.2122L16.5597 25.2055C16.562 25.203 16.5638 25.201 16.5651 25.1996C16.5658 25.1988 16.5669 25.1977 16.5669 25.1977L16.568 25.1965C16.568 25.1965 16.5673 25.1972 16.5659 25.1986C16.5649 25.1997 16.5634 25.2011 16.5616 25.2029C16.5493 25.2148 16.5189 25.2432 16.4691 25.283C16.3697 25.3623 16.1911 25.4884 15.9201 25.6216C15.3833 25.8856 14.4508 26.1939 13 26.1939C11.5492 26.1939 10.6168 25.8856 10.08 25.6216C9.80889 25.4884 9.63033 25.3623 9.53096 25.283C9.48111 25.2432 9.45078 25.2148 9.43843 25.2029C9.43419 25.1987 9.43199 25.1965 9.43199 25.1965C9.43199 25.1965 9.43235 25.1969 9.43317 25.1977C9.43448 25.1991 9.43686 25.2017 9.4403 25.2055L9.44625 25.2122L9.44981 25.2162L9.45173 25.2184L9.45273 25.2196C9.45324 25.2202 9.45376 25.2208 8.55265 26.0204Z" fill="#63A3C9"/>
<path fill-rule="evenodd" clip-rule="evenodd" d="M16.7632 3.81633C16.7632 5.43444 15.7701 6.81734 14.3684 7.37249V10.4358C20.0543 10.6634 24.3043 12.2229 24.3043 12.2229C24.3043 12.2229 26 15.55 26 22.2041C26 28.8582 24.3043 32.1852 24.3043 32.1852C24.3043 32.1852 19.3587 34 13 34C6.6413 34 1.69565 32.1852 1.69565 32.1852C1.69565 32.1852 0 27.9508 0 22.2041C0 16.4574 1.69565 12.2229 1.69565 12.2229C1.69565 12.2229 5.94568 10.6634 11.6316 10.4358V7.37249C10.2299 6.81734 9.23684 5.43444 9.23684 3.81633C9.23684 1.70863 10.9217 0 13 0C15.0783 0 16.7632 1.70863 16.7632 3.81633ZM22.8336 29.0823C22.7178 29.5367 22.6038 29.9139 22.5038 30.2139C22.0046 30.3594 21.3327 30.5397 20.5216 30.7209C18.6109 31.1477 15.9626 31.5714 13 31.5714C10.0374 31.5714 7.38913 31.1477 5.47839 30.7209C4.70513 30.5482 4.05837 30.3763 3.56717 30.2345C3.44926 29.8444 3.31274 29.3543 3.17541 28.7786C2.78465 27.1406 2.39474 24.8412 2.39474 22.2041C2.39474 19.5669 2.78465 17.2676 3.17541 15.6296C3.31274 15.0539 3.44926 14.5637 3.56717 14.1736C4.05837 14.0319 4.70513 13.86 5.47839 13.6873C7.38913 13.2605 10.0374 12.8367 13 12.8367C15.9626 12.8367 18.6109 13.2605 20.5216 13.6873C21.3327 13.8684 22.0046 14.0487 22.5038 14.1942C22.6038 14.4942 22.7178 14.8714 22.8336 15.3259C23.2086 16.7975 23.6053 19.0887 23.6053 22.2041C23.6053 25.3195 23.2086 27.6107 22.8336 29.0823Z" fill="#63A3C9"/>
</svg>
