<svg width="30" height="30" viewBox="0 0 30 30" fill="none" xmlns="http://www.w3.org/2000/svg">
<path d="M18 12V9.72C18 8.655 16.935 7.935 15.945 8.325L10.5 10.5V9.78C10.5 8.7 9.405 7.965 8.415 8.4L1.815 11.22C0.72 11.7 0 12.78 0 13.98V27C0 28.65 1.35 30 3 30H27C28.65 30 30 28.65 30 27V12H18ZM10.5 22.5C10.5 23.325 9.825 24 9 24C8.175 24 7.5 23.325 7.5 22.5V19.5C7.5 18.675 8.175 18 9 18C9.825 18 10.5 18.675 10.5 19.5V22.5ZM16.5 22.5C16.5 23.325 15.825 24 15 24C14.175 24 13.5 23.325 13.5 22.5V19.5C13.5 18.675 14.175 18 15 18C15.825 18 16.5 18.675 16.5 19.5V22.5ZM22.5 22.5C22.5 23.325 21.825 24 21 24C20.175 24 19.5 23.325 19.5 22.5V19.5C19.5 18.675 20.175 18 21 18C21.825 18 22.5 18.675 22.5 19.5V22.5ZM27.18 0H25.335C24.57 0 23.94 0.57 23.85 1.32L22.8 9.75H29.7L28.665 1.32C28.575 0.57 27.93 0 27.18 0Z" fill="#63A3C9"/>
</svg>
