<svg width="25" height="18" viewBox="0 0 25 18" fill="none" xmlns="http://www.w3.org/2000/svg">
<path d="M20.3933 2.04712C18.8349 1.38218 17.1685 0.899078 15.4266 0.624023C15.2126 0.97652 14.9627 1.45113 14.7904 1.82839C12.9385 1.57445 11.1037 1.57445 9.28594 1.82839C9.11345 1.45113 8.85798 0.97652 8.64204 0.624023C6.89811 0.899078 5.2299 1.38412 3.67153 2.05052C0.52828 6.38195 -0.323801 10.6056 0.102226 14.7695C2.18701 16.189 4.2074 17.0515 6.1937 17.6157C6.68413 17.0003 7.12153 16.346 7.49835 15.6566C6.78071 15.4078 6.09336 15.1009 5.44388 14.7448C5.61619 14.6282 5.78471 14.5066 5.94754 14.3813C9.90882 16.071 14.2127 16.071 18.1267 14.3813C18.2913 14.5066 18.4599 14.6282 18.6303 14.7448C17.979 15.1028 17.2898 15.4097 16.5722 15.6583C16.949 16.346 17.3845 17.002 17.8767 17.6177C19.8649 17.0532 21.8872 16.1909 23.972 14.7695C24.472 9.9426 23.1181 5.75756 20.3933 2.04712ZM8.03799 12.2088C6.84887 12.2088 5.8737 11.1965 5.8737 9.96373C5.8737 8.73096 6.82804 7.71692 8.03799 7.71692C9.2481 7.71692 10.223 8.72926 10.2024 9.96373C10.2042 11.1965 9.2481 12.2088 8.03799 12.2088ZM16.0362 12.2088C14.8471 12.2088 13.8719 11.1965 13.8719 9.96373C13.8719 8.73096 14.8262 7.71692 16.0362 7.71692C17.2462 7.71692 18.2214 8.72926 18.2005 9.96373C18.2005 11.1965 17.2462 12.2088 16.0362 12.2088Z" fill="#C9A061"/>
</svg>
