<svg width="331" height="197" viewBox="0 0 331 197" fill="none" xmlns="http://www.w3.org/2000/svg">
<path d="M154.314 4.17374C161.528 1.48188 169.472 1.48188 176.686 4.17374L310.186 53.9842C322.702 58.6539 331 70.6068 331 83.9653V113.035C331 126.393 322.702 138.346 310.186 143.016L176.686 192.826C169.472 195.518 161.528 195.518 154.314 192.826L20.8137 143.016C8.29807 138.346 0 126.393 0 113.035V83.9653C0 70.6068 8.29806 58.6539 20.8137 53.9842L154.314 4.17374Z" fill="#11232E"/>
<path d="M171.871 103.88V107H158.863V90.2004H171.559V93.3204H162.727V96.9684H170.527V99.9924H162.727V103.88H171.871ZM180.847 107.192C179.471 107.192 178.231 106.912 177.127 106.352C176.039 105.776 175.183 104.984 174.559 103.976C173.951 102.968 173.647 101.824 173.647 100.544C173.647 99.2644 173.951 98.1204 174.559 97.1124C175.183 96.1044 176.039 95.3204 177.127 94.7604C178.231 94.1844 179.471 93.8964 180.847 93.8964C182.207 93.8964 183.391 94.1844 184.399 94.7604C185.423 95.3204 186.167 96.1284 186.631 97.1844L183.727 98.7444C183.055 97.5604 182.087 96.9684 180.823 96.9684C179.847 96.9684 179.039 97.2884 178.399 97.9284C177.759 98.5684 177.439 99.4404 177.439 100.544C177.439 101.648 177.759 102.52 178.399 103.16C179.039 103.8 179.847 104.12 180.823 104.12C182.103 104.12 183.071 103.528 183.727 102.344L186.631 103.928C186.167 104.952 185.423 105.752 184.399 106.328C183.391 106.904 182.207 107.192 180.847 107.192ZM194.767 107.192C193.407 107.192 192.183 106.912 191.095 106.352C190.023 105.776 189.183 104.984 188.575 103.976C187.967 102.968 187.663 101.824 187.663 100.544C187.663 99.2644 187.967 98.1204 188.575 97.1124C189.183 96.1044 190.023 95.3204 191.095 94.7604C192.183 94.1844 193.407 93.8964 194.767 93.8964C196.127 93.8964 197.343 94.1844 198.415 94.7604C199.487 95.3204 200.327 96.1044 200.935 97.1124C201.543 98.1204 201.847 99.2644 201.847 100.544C201.847 101.824 201.543 102.968 200.935 103.976C200.327 104.984 199.487 105.776 198.415 106.352C197.343 106.912 196.127 107.192 194.767 107.192ZM194.767 104.12C195.727 104.12 196.511 103.8 197.119 103.16C197.743 102.504 198.055 101.632 198.055 100.544C198.055 99.4564 197.743 98.5924 197.119 97.9524C196.511 97.2964 195.727 96.9684 194.767 96.9684C193.807 96.9684 193.015 97.2964 192.391 97.9524C191.767 98.5924 191.455 99.4564 191.455 100.544C191.455 101.632 191.767 102.504 192.391 103.16C193.015 103.8 193.807 104.12 194.767 104.12ZM208.693 107.192C207.621 107.192 206.573 107.064 205.549 106.808C204.525 106.536 203.709 106.2 203.101 105.8L204.349 103.112C204.925 103.48 205.621 103.784 206.437 104.024C207.253 104.248 208.053 104.36 208.837 104.36C210.421 104.36 211.213 103.968 211.213 103.184C211.213 102.816 210.997 102.552 210.565 102.392C210.133 102.232 209.469 102.096 208.573 101.984C207.517 101.824 206.645 101.64 205.957 101.432C205.269 101.224 204.669 100.856 204.157 100.328C203.661 99.8004 203.413 99.0484 203.413 98.0724C203.413 97.2564 203.645 96.5364 204.109 95.9124C204.589 95.2724 205.277 94.7764 206.173 94.4244C207.085 94.0724 208.157 93.8964 209.389 93.8964C210.301 93.8964 211.205 94.0004 212.101 94.2084C213.013 94.4004 213.765 94.6724 214.357 95.0244L213.109 97.6884C211.973 97.0484 210.733 96.7284 209.389 96.7284C208.589 96.7284 207.989 96.8404 207.589 97.0644C207.189 97.2884 206.989 97.5764 206.989 97.9284C206.989 98.3284 207.205 98.6084 207.637 98.7684C208.069 98.9284 208.757 99.0804 209.701 99.2244C210.757 99.4004 211.621 99.5924 212.293 99.8004C212.965 99.9924 213.549 100.352 214.045 100.88C214.541 101.408 214.789 102.144 214.789 103.088C214.789 103.888 214.549 104.6 214.069 105.224C213.589 105.848 212.885 106.336 211.957 106.688C211.045 107.024 209.957 107.192 208.693 107.192ZM229.681 94.0884L223.849 107.792C223.257 109.28 222.521 110.328 221.641 110.936C220.777 111.544 219.729 111.848 218.497 111.848C217.825 111.848 217.161 111.744 216.505 111.536C215.849 111.328 215.313 111.04 214.897 110.672L216.265 108.008C216.553 108.264 216.881 108.464 217.249 108.608C217.633 108.752 218.009 108.824 218.377 108.824C218.889 108.824 219.305 108.696 219.625 108.44C219.945 108.2 220.233 107.792 220.489 107.216L220.537 107.096L214.945 94.0884H218.809L222.433 102.848L226.081 94.0884H229.681ZM235.365 107.192C234.293 107.192 233.245 107.064 232.221 106.808C231.197 106.536 230.381 106.2 229.773 105.8L231.021 103.112C231.597 103.48 232.293 103.784 233.109 104.024C233.925 104.248 234.725 104.36 235.509 104.36C237.093 104.36 237.885 103.968 237.885 103.184C237.885 102.816 237.669 102.552 237.237 102.392C236.805 102.232 236.141 102.096 235.245 101.984C234.189 101.824 233.317 101.64 232.629 101.432C231.941 101.224 231.341 100.856 230.829 100.328C230.333 99.8004 230.085 99.0484 230.085 98.0724C230.085 97.2564 230.317 96.5364 230.781 95.9124C231.261 95.2724 231.949 94.7764 232.845 94.4244C233.757 94.0724 234.829 93.8964 236.061 93.8964C236.973 93.8964 237.877 94.0004 238.773 94.2084C239.685 94.4004 240.437 94.6724 241.029 95.0244L239.781 97.6884C238.645 97.0484 237.405 96.7284 236.061 96.7284C235.261 96.7284 234.661 96.8404 234.261 97.0644C233.861 97.2884 233.661 97.5764 233.661 97.9284C233.661 98.3284 233.877 98.6084 234.309 98.7684C234.741 98.9284 235.429 99.0804 236.373 99.2244C237.429 99.4004 238.293 99.5924 238.965 99.8004C239.637 99.9924 240.221 100.352 240.717 100.88C241.213 101.408 241.461 102.144 241.461 103.088C241.461 103.888 241.221 104.6 240.741 105.224C240.261 105.848 239.557 106.336 238.629 106.688C237.717 107.024 236.629 107.192 235.365 107.192ZM252.099 106.376C251.731 106.648 251.275 106.856 250.731 107C250.203 107.128 249.643 107.192 249.051 107.192C247.515 107.192 246.323 106.8 245.475 106.016C244.643 105.232 244.227 104.08 244.227 102.56V97.2564H242.235V94.3764H244.227V91.2324H247.971V94.3764H251.187V97.2564H247.971V102.512C247.971 103.056 248.107 103.48 248.379 103.784C248.667 104.072 249.067 104.216 249.579 104.216C250.171 104.216 250.675 104.056 251.091 103.736L252.099 106.376ZM266.45 100.592C266.45 100.64 266.426 100.976 266.378 101.6H256.61C256.786 102.4 257.202 103.032 257.858 103.496C258.514 103.96 259.33 104.192 260.306 104.192C260.978 104.192 261.57 104.096 262.082 103.904C262.61 103.696 263.098 103.376 263.546 102.944L265.538 105.104C264.322 106.496 262.546 107.192 260.21 107.192C258.754 107.192 257.466 106.912 256.346 106.352C255.226 105.776 254.362 104.984 253.754 103.976C253.146 102.968 252.842 101.824 252.842 100.544C252.842 99.2804 253.138 98.1444 253.73 97.1364C254.338 96.1124 255.162 95.3204 256.202 94.7604C257.258 94.1844 258.434 93.8964 259.73 93.8964C260.994 93.8964 262.138 94.1684 263.162 94.7124C264.186 95.2564 264.986 96.0404 265.562 97.0644C266.154 98.0724 266.45 99.2484 266.45 100.592ZM259.754 96.7284C258.906 96.7284 258.194 96.9684 257.618 97.4484C257.042 97.9284 256.69 98.5844 256.562 99.4164H262.922C262.794 98.6004 262.442 97.9524 261.866 97.4724C261.29 96.9764 260.586 96.7284 259.754 96.7284ZM285.479 93.8964C287.095 93.8964 288.375 94.3764 289.319 95.3364C290.279 96.2804 290.759 97.7044 290.759 99.6084V107H287.015V100.184C287.015 99.1604 286.799 98.4004 286.367 97.9044C285.951 97.3924 285.351 97.1364 284.567 97.1364C283.687 97.1364 282.991 97.4244 282.479 98.0004C281.967 98.5604 281.711 99.4004 281.711 100.52V107H277.967V100.184C277.967 98.1524 277.151 97.1364 275.519 97.1364C274.655 97.1364 273.967 97.4244 273.455 98.0004C272.943 98.5604 272.687 99.4004 272.687 100.52V107H268.943V94.0884H272.519V95.5764C272.999 95.0324 273.583 94.6164 274.271 94.3284C274.975 94.0404 275.743 93.8964 276.575 93.8964C277.487 93.8964 278.311 94.0804 279.047 94.4484C279.783 94.8004 280.375 95.3204 280.823 96.0084C281.351 95.3364 282.015 94.8164 282.815 94.4484C283.631 94.0804 284.519 93.8964 285.479 93.8964Z" fill="white"/>
<circle cx="80" cy="97" r="42" stroke="#162A36" stroke-width="18"/>
<path fill-rule="evenodd" clip-rule="evenodd" d="M80.4084 40.0015C112.805 40.2211 139 66.5515 139 99.0001C139 112.16 134.691 124.314 127.407 134.128L99.6511 114.456C103.001 110.203 105 104.835 105 99.0001C105 85.3295 94.0275 74.2218 80.409 74.0034L80.4084 40.0015Z" fill="url(#paint0_linear_886_117)"/>
<path d="M68.7552 98.376C69.1872 98.292 69.6132 98.25 70.0332 98.25C70.7652 98.25 71.3592 98.376 71.8152 98.628C72.2832 98.868 72.6192 99.18 72.8232 99.564C73.0272 99.936 73.1292 100.326 73.1292 100.734C73.1292 101.682 72.8172 102.492 72.1932 103.164C71.5692 103.824 70.7232 104.328 69.6552 104.676C68.5872 105.012 67.3992 105.18 66.0912 105.18C62.2992 105.18 59.8452 103.86 58.7292 101.22L59.7372 100.968C60.4812 100.788 61.1112 100.62 61.6272 100.464C62.1552 100.296 62.6172 100.11 63.0132 99.906C63.2532 100.506 63.5952 100.938 64.0392 101.202C64.4952 101.454 65.1192 101.58 65.9112 101.58C66.7512 101.58 67.4352 101.484 67.9632 101.292C68.4912 101.1 68.7552 100.812 68.7552 100.428C68.7552 100.224 68.6532 100.068 68.4492 99.96C68.2452 99.852 67.9212 99.78 67.4772 99.744C67.0332 99.696 66.4092 99.672 65.6052 99.672H64.2372V96.522H65.0652C65.9772 96.522 66.7212 96.486 67.2972 96.414C67.8732 96.33 68.1612 96.156 68.1612 95.892C68.1612 95.592 68.0052 95.352 67.6932 95.172C67.3932 94.98 66.9192 94.884 66.2712 94.884C65.4312 94.884 64.7472 95.058 64.2192 95.406C63.7032 95.754 63.3012 96.258 63.0132 96.918C61.7292 96.402 60.3612 96.036 58.9092 95.82C59.4852 94.524 60.3672 93.522 61.5552 92.814C62.7552 92.106 64.2972 91.752 66.1812 91.752C67.4052 91.752 68.5032 91.914 69.4752 92.238C70.4592 92.55 71.2272 92.988 71.7792 93.552C72.3432 94.116 72.6252 94.746 72.6252 95.442C72.6252 95.85 72.5292 96.216 72.3372 96.54C72.1452 96.852 71.7672 97.164 71.2032 97.476C70.6392 97.776 69.8232 98.076 68.7552 98.376ZM82.8107 95.802C84.1787 95.802 85.3247 95.994 86.2487 96.378C87.1847 96.75 87.8807 97.26 88.3367 97.908C88.8047 98.544 89.0387 99.258 89.0387 100.05C89.0387 101.85 88.4087 103.158 87.1487 103.974C85.9007 104.778 84.2267 105.18 82.1267 105.18C80.3627 105.18 78.8087 104.886 77.4647 104.298C76.1327 103.698 75.1667 102.696 74.5667 101.292C75.2267 101.196 75.9467 101.04 76.7267 100.824C77.5187 100.608 78.2327 100.386 78.8687 100.158C79.1207 100.674 79.4747 101.052 79.9307 101.292C80.3867 101.52 80.9987 101.634 81.7667 101.634C82.5827 101.634 83.2547 101.502 83.7827 101.238C84.3227 100.974 84.5927 100.608 84.5927 100.14C84.5927 99.66 84.3587 99.258 83.8907 98.934C83.4227 98.61 82.7087 98.448 81.7487 98.448C81.1247 98.448 80.5547 98.562 80.0387 98.79C79.5227 99.006 79.1507 99.318 78.9227 99.726H74.7647C75.0527 98.49 75.3047 97.158 75.5207 95.73C75.7487 94.302 75.8867 93.036 75.9347 91.932H88.5707V95.424C87.2387 95.34 85.9787 95.292 84.7907 95.28C83.6147 95.256 81.9647 95.244 79.8407 95.244L79.6607 96.252C80.5727 95.952 81.6227 95.802 82.8107 95.802ZM101.815 98.556C102.607 98.556 103.285 98.7 103.849 98.988C104.413 99.264 104.839 99.648 105.127 100.14C105.427 100.632 105.577 101.178 105.577 101.778C105.577 102.39 105.427 102.942 105.127 103.434C104.839 103.926 104.413 104.316 103.849 104.604C103.285 104.88 102.607 105.018 101.815 105.018C101.011 105.018 100.321 104.88 99.7449 104.604C99.1809 104.316 98.7489 103.926 98.4489 103.434C98.1609 102.942 98.0169 102.39 98.0169 101.778C98.0169 101.418 98.0709 101.076 98.1789 100.752L94.9929 105.018H90.8349L96.4329 97.53C95.7609 98.106 94.8609 98.394 93.7329 98.394C92.9289 98.394 92.2389 98.256 91.6629 97.98C91.0989 97.692 90.6669 97.302 90.3669 96.81C90.0789 96.318 89.9349 95.766 89.9349 95.154C89.9349 94.554 90.0789 94.008 90.3669 93.516C90.6669 93.024 91.0989 92.64 91.6629 92.364C92.2389 92.076 92.9289 91.932 93.7329 91.932C94.5249 91.932 95.2029 92.076 95.7669 92.364C96.3309 92.64 96.7569 93.024 97.0449 93.516C97.3449 94.008 97.4949 94.554 97.4949 95.154C97.4949 95.634 97.4049 96.072 97.2249 96.468L100.519 92.076H104.659L99.3129 99.24C99.9609 98.784 100.795 98.556 101.815 98.556ZM93.7329 96.126C93.9849 96.126 94.2129 96.024 94.4169 95.82C94.6329 95.616 94.7409 95.388 94.7409 95.136C94.7409 94.884 94.6329 94.668 94.4169 94.488C94.2129 94.308 93.9849 94.218 93.7329 94.218C93.4569 94.218 93.2109 94.308 92.9949 94.488C92.7909 94.668 92.6889 94.884 92.6889 95.136C92.6889 95.4 92.7909 95.634 92.9949 95.838C93.2109 96.03 93.4569 96.126 93.7329 96.126ZM101.815 102.75C102.067 102.75 102.295 102.648 102.499 102.444C102.715 102.24 102.823 102.012 102.823 101.76C102.823 101.508 102.715 101.292 102.499 101.112C102.295 100.932 102.067 100.842 101.815 100.842C101.539 100.842 101.293 100.932 101.077 101.112C100.873 101.292 100.771 101.508 100.771 101.76C100.771 102.024 100.873 102.258 101.077 102.462C101.293 102.654 101.539 102.75 101.815 102.75Z" fill="white"/>
<defs>
<linearGradient id="paint0_linear_886_117" x1="80.2501" y1="53.1272" x2="169.044" y2="150.4" gradientUnits="userSpaceOnUse">
<stop stop-color="#5855FF"/>
<stop offset="1" stop-color="#05003E"/>
</linearGradient>
</defs>
</svg>
