<svg width="434" height="195" viewBox="0 0 434 195" fill="none" xmlns="http://www.w3.org/2000/svg">
<path d="M16.1878 193.291C18.6618 191.863 21.7092 191.863 24.1833 193.291L28.1198 195.562C30.5963 196.991 32.122 199.632 32.122 202.491L32.122 207.023C32.122 209.882 30.5963 212.524 28.1198 213.953L24.1833 216.224C21.7092 217.651 18.6618 217.651 16.1878 216.224L12.2512 213.953C9.77478 212.524 8.24902 209.882 8.24902 207.023L8.24902 202.491C8.24902 199.632 9.77478 196.991 12.2512 195.562L16.1878 193.291Z" fill="#0C1F2B"/>
<path d="M16.1878 145.545C18.6618 144.117 21.7092 144.117 24.1833 145.545L28.1198 147.816C30.5963 149.244 32.122 151.886 32.122 154.745L32.122 159.277C32.122 162.136 30.5963 164.778 28.1198 166.206L24.1833 168.478C21.7092 169.905 18.6618 169.905 16.1878 168.478L12.2512 166.206C9.77478 164.778 8.24902 162.136 8.24902 159.277L8.24902 154.745C8.24902 151.886 9.77478 149.244 12.2512 147.816L16.1878 145.545Z" fill="#0C1F2B"/>
<path d="M30.2669 169.418C32.7409 167.99 35.7883 167.99 38.2624 169.418L42.1989 171.689C44.6754 173.117 46.2011 175.759 46.2011 178.618L46.2011 183.15C46.2011 186.009 44.6754 188.651 42.1989 190.08L38.2624 192.351C35.7883 193.778 32.7409 193.778 30.2669 192.351L26.3303 190.08C23.8539 188.651 22.3281 186.009 22.3281 183.15L22.3281 178.618C22.3281 175.759 23.8539 173.117 26.3303 171.689L30.2669 169.418Z" fill="#0C1F2B"/>
<path d="M99.4373 193.291C101.911 191.863 104.959 191.863 107.433 193.291L111.369 195.562C113.846 196.991 115.372 199.632 115.372 202.491L115.372 207.023C115.372 209.882 113.846 212.524 111.369 213.953L107.433 216.224C104.959 217.651 101.911 217.651 99.4373 216.224L95.5008 213.953C93.0243 212.524 91.4985 209.882 91.4985 207.023L91.4985 202.491C91.4985 199.632 93.0243 196.991 95.5008 195.562L99.4373 193.291Z" fill="#0C1F2B"/>
<path d="M99.4373 145.545C101.911 144.117 104.959 144.117 107.433 145.545L111.369 147.816C113.846 149.244 115.372 151.886 115.372 154.745L115.372 159.277C115.372 162.136 113.846 164.778 111.369 166.206L107.433 168.478C104.959 169.905 101.911 169.905 99.4373 168.478L95.5008 166.206C93.0243 164.778 91.4985 162.136 91.4985 159.277L91.4985 154.745C91.4985 151.886 93.0243 149.244 95.5008 147.816L99.4373 145.545Z" fill="#0C1F2B"/>
<path d="M113.516 169.418C115.99 167.99 119.038 167.99 121.512 169.418L125.448 171.689C127.925 173.117 129.451 175.759 129.451 178.618L129.451 183.15C129.451 186.009 127.925 188.651 125.448 190.08L121.512 192.351C119.038 193.778 115.99 193.778 113.516 192.351L109.58 190.08C107.103 188.651 105.578 186.009 105.578 183.15L105.578 178.618C105.578 175.759 107.103 173.117 109.58 171.689L113.516 169.418Z" fill="#173344"/>
<path d="M113.516 121.672C115.99 120.244 119.038 120.244 121.512 121.672L125.448 123.943C127.925 125.371 129.451 128.013 129.451 130.872L129.451 135.404C129.451 138.263 127.925 140.905 125.448 142.333L121.512 144.604C119.038 146.032 115.99 146.032 113.516 144.604L109.58 142.333C107.103 140.905 105.578 138.263 105.578 135.404L105.578 130.872C105.578 128.013 107.103 125.371 109.58 123.943L113.516 121.672Z" fill="#0C1F2B"/>
<path d="M43.7337 193.291C46.2077 191.863 49.2551 191.863 51.7292 193.291L55.6657 195.562C58.1422 196.991 59.6679 199.632 59.6679 202.491L59.6679 207.023C59.6679 209.882 58.1422 212.524 55.6657 213.953L51.7292 216.224C49.2551 217.651 46.2077 217.651 43.7337 216.224L39.7971 213.953C37.3207 212.524 35.7949 209.882 35.7949 207.023L35.7949 202.491C35.7949 199.632 37.3207 196.991 39.7971 195.562L43.7337 193.291Z" fill="#0C1F2B"/>
<path d="M43.7337 145.545C46.2077 144.117 49.2551 144.117 51.7292 145.545L55.6657 147.816C58.1422 149.244 59.6679 151.886 59.6679 154.745L59.6679 159.277C59.6679 162.136 58.1422 164.778 55.6657 166.206L51.7292 168.478C49.2551 169.905 46.2077 169.905 43.7337 168.478L39.7971 166.206C37.3207 164.778 35.7949 162.136 35.7949 159.277L35.7949 154.745C35.7949 151.886 37.3207 149.244 39.7971 147.816L43.7337 145.545Z" fill="#173344"/>
<path d="M43.7337 97.7986C46.2077 96.3712 49.2551 96.3712 51.7292 97.7986L55.6657 100.07C58.1422 101.498 59.6679 104.14 59.6679 106.999L59.6679 111.531C59.6679 114.39 58.1422 117.032 55.6657 118.461L51.7292 120.732C49.2551 122.159 46.2077 122.159 43.7337 120.732L39.7971 118.461C37.3207 117.032 35.7949 114.39 35.7949 111.531L35.7949 106.999C35.7949 104.14 37.3207 101.498 39.7971 100.07L43.7337 97.7986Z" fill="#0C1F2B"/>
<path d="M43.7337 50.0525C46.2077 48.6252 49.2551 48.6252 51.7292 50.0525L55.6657 52.3236C58.1422 53.7523 59.6679 56.394 59.6679 59.2531L59.6679 63.7849C59.6679 66.644 58.1422 69.2857 55.6657 70.7144L51.7292 72.9855C49.2551 74.4128 46.2077 74.4128 43.7337 72.9855L39.7971 70.7144C37.3207 69.2857 35.7949 66.644 35.7949 63.7849L35.7949 59.2531C35.7949 56.394 37.3207 53.7523 39.7971 52.3236L43.7337 50.0525Z" fill="#0C1F2B"/>
<path d="M57.8128 169.418C60.2868 167.99 63.3342 167.99 65.8083 169.418L69.7448 171.689C72.2213 173.117 73.747 175.759 73.747 178.618L73.747 183.15C73.747 186.009 72.2213 188.651 69.7448 190.08L65.8083 192.351C63.3342 193.778 60.2868 193.778 57.8128 192.351L53.8762 190.08C51.3998 188.651 49.874 186.009 49.874 183.15L49.874 178.618C49.874 175.759 51.3998 173.117 53.8762 171.689L57.8128 169.418Z" fill="#0C1F2B"/>
<path d="M57.8128 121.672C60.2868 120.244 63.3342 120.244 65.8083 121.672L69.7448 123.943C72.2213 125.371 73.747 128.013 73.747 130.872L73.747 135.404C73.747 138.263 72.2213 140.905 69.7448 142.333L65.8083 144.604C63.3342 146.032 60.2868 146.032 57.8128 144.604L53.8762 142.333C51.3998 140.905 49.874 138.263 49.874 135.404L49.874 130.872C49.874 128.013 51.3998 125.371 53.8762 123.943L57.8128 121.672Z" fill="#0C1F2B"/>
<path d="M126.983 193.291C129.457 191.863 132.505 191.863 134.979 193.291L138.915 195.562C141.392 196.991 142.917 199.632 142.917 202.491L142.917 207.023C142.917 209.882 141.392 212.524 138.915 213.953L134.979 216.224C132.505 217.651 129.457 217.651 126.983 216.224L123.047 213.953C120.57 212.524 119.044 209.882 119.044 207.023L119.044 202.491C119.044 199.632 120.57 196.991 123.047 195.562L126.983 193.291Z" fill="#0C1F2B"/>
<path d="M126.983 145.545C129.457 144.117 132.505 144.117 134.979 145.545L138.915 147.816C141.392 149.244 142.917 151.886 142.917 154.745L142.917 159.277C142.917 162.136 141.392 164.778 138.915 166.206L134.979 168.478C132.505 169.905 129.457 169.905 126.983 168.478L123.047 166.206C120.57 164.778 119.044 162.136 119.044 159.277L119.044 154.745C119.044 151.886 120.57 149.244 123.047 147.816L126.983 145.545Z" fill="#173344"/>
<path d="M141.062 169.418C143.536 167.99 146.584 167.99 149.058 169.418L152.994 171.689C155.471 173.117 156.997 175.759 156.997 178.618L156.997 183.15C156.997 186.009 155.471 188.651 152.994 190.08L149.058 192.351C146.584 193.778 143.536 193.778 141.062 192.351L137.126 190.08C134.649 188.651 133.124 186.009 133.124 183.15L133.124 178.618C133.124 175.759 134.649 173.117 137.126 171.689L141.062 169.418Z" fill="#0C1F2B"/>
<path d="M-11.97 193.291C-9.49588 191.863 -6.44848 191.863 -3.9744 193.291L-0.0378878 195.562C2.43857 196.991 3.96433 199.632 3.96433 202.491L3.96433 207.023C3.96433 209.882 2.43857 212.524 -0.0378908 213.953L-3.9744 216.224C-6.44848 217.651 -9.49588 217.651 -11.97 216.224L-15.9065 213.953C-18.3829 212.524 -19.9087 209.882 -19.9087 207.023L-19.9087 202.491C-19.9087 199.632 -18.3829 196.991 -15.9065 195.562L-11.97 193.291Z" fill="#0C1F2B"/>
<path d="M2.10865 169.418C4.58273 167.99 7.63013 167.99 10.1042 169.418L14.0407 171.689C16.5172 173.117 18.0429 175.759 18.0429 178.618L18.0429 183.15C18.0429 186.009 16.5172 188.651 14.0407 190.08L10.1042 192.351C7.63013 193.778 4.58273 193.778 2.10865 192.351L-1.82786 190.08C-4.30432 188.651 -5.83008 186.009 -5.83008 183.15L-5.83008 178.618C-5.83008 175.759 -4.30432 173.117 -1.82786 171.689L2.10865 169.418Z" fill="#0C1F2B"/>
<path d="M2.10865 73.9256C4.58273 72.4982 7.63013 72.4982 10.1042 73.9256L14.0407 76.1966C16.5172 77.6253 18.0429 80.2671 18.0429 83.1261L18.0429 87.658C18.0429 90.517 16.5172 93.1587 14.0407 94.5875L10.1042 96.8585C7.63013 98.2859 4.58273 98.2859 2.10865 96.8585L-1.82786 94.5875C-4.30432 93.1587 -5.83008 90.517 -5.83008 87.658L-5.83008 83.1261C-5.83008 80.2671 -4.30432 77.6253 -1.82786 76.1966L2.10865 73.9256Z" fill="#0C1F2B"/>
<path d="M2.10865 26.1795C4.58273 24.7521 7.63013 24.7521 10.1042 26.1795L14.0407 28.4505C16.5172 29.8793 18.0429 32.521 18.0429 35.38L18.0429 39.9119C18.0429 42.7709 16.5172 45.4126 14.0407 46.8414L10.1042 49.1124C7.63013 50.5398 4.58273 50.5398 2.10865 49.1124L-1.82786 46.8414C-4.30432 45.4126 -5.83008 42.7709 -5.83008 39.9119L-5.83008 35.38C-5.83008 32.521 -4.30432 29.8792 -1.82786 28.4505L2.10865 26.1795Z" fill="#0C1F2B"/>
<path d="M71.2791 193.291C73.7531 191.863 76.8005 191.863 79.2746 193.291L83.2111 195.562C85.6876 196.991 87.2134 199.632 87.2134 202.491L87.2134 207.023C87.2134 209.882 85.6876 212.524 83.2111 213.953L79.2746 216.224C76.8005 217.651 73.7531 217.651 71.2791 216.224L67.3426 213.953C64.8661 212.524 63.3403 209.882 63.3403 207.023L63.3403 202.491C63.3403 199.632 64.8661 196.991 67.3426 195.562L71.2791 193.291Z" fill="#0C1F2B"/>
<path d="M71.2791 145.545C73.7531 144.117 76.8005 144.117 79.2746 145.545L83.2111 147.816C85.6876 149.244 87.2134 151.886 87.2134 154.745L87.2134 159.277C87.2134 162.136 85.6876 164.778 83.2111 166.206L79.2746 168.478C76.8005 169.905 73.7531 169.905 71.2791 168.478L67.3426 166.206C64.8661 164.778 63.3403 162.136 63.3403 159.277L63.3403 154.745C63.3403 151.886 64.8661 149.244 67.3426 147.816L71.2791 145.545Z" fill="#0C1F2B"/>
<path d="M71.2791 50.0525C73.7531 48.6252 76.8005 48.6252 79.2746 50.0525L83.2111 52.3236C85.6876 53.7523 87.2134 56.394 87.2134 59.2531L87.2134 63.7849C87.2134 66.644 85.6876 69.2857 83.2111 70.7144L79.2746 72.9855C76.8005 74.4128 73.7531 74.4128 71.2791 72.9855L67.3426 70.7144C64.8661 69.2857 63.3403 66.644 63.3403 63.7849L63.3403 59.2531C63.3403 56.394 64.8661 53.7523 67.3426 52.3236L71.2791 50.0525Z" fill="#0C1F2B"/>
<path d="M71.2791 2.30641C73.7531 0.879058 76.8005 0.879058 79.2746 2.30641L83.2111 4.57748C85.6876 6.0062 87.2134 8.64792 87.2134 11.507L87.2134 16.0388C87.2134 18.8979 85.6876 21.5396 83.2111 22.9683L79.2746 25.2394C76.8005 26.6667 73.7531 26.6667 71.2791 25.2394L67.3426 22.9683C64.8661 21.5396 63.3403 18.8979 63.3403 16.0388L63.3403 11.507C63.3403 8.64792 64.8661 6.0062 67.3426 4.57748L71.2791 2.30641Z" fill="#0C1F2B"/>
<path d="M85.3582 169.418C87.8322 167.99 90.8796 167.99 93.3537 169.418L97.2902 171.689C99.7667 173.117 101.292 175.759 101.292 178.618L101.292 183.15C101.292 186.009 99.7667 188.651 97.2902 190.08L93.3537 192.351C90.8796 193.778 87.8322 193.778 85.3582 192.351L81.4217 190.08C78.9452 188.651 77.4194 186.009 77.4194 183.15L77.4194 178.618C77.4194 175.759 78.9452 173.117 81.4217 171.689L85.3582 169.418Z" fill="#173344"/>
<path d="M154.529 193.291C157.003 191.863 160.051 191.863 162.525 193.291L166.461 195.562C168.938 196.991 170.463 199.632 170.463 202.491L170.463 207.023C170.463 209.882 168.938 212.524 166.461 213.953L162.525 216.224C160.051 217.651 157.003 217.651 154.529 216.224L150.593 213.953C148.116 212.524 146.59 209.882 146.59 207.023L146.59 202.491C146.59 199.632 148.116 196.991 150.593 195.562L154.529 193.291Z" fill="#0C1F2B"/>
<path d="M154.529 145.545C157.003 144.117 160.051 144.117 162.525 145.545L166.461 147.816C168.938 149.244 170.463 151.886 170.463 154.745L170.463 159.277C170.463 162.136 168.938 164.778 166.461 166.206L162.525 168.478C160.051 169.905 157.003 169.905 154.529 168.478L150.593 166.206C148.116 164.778 146.59 162.136 146.59 159.277L146.59 154.745C146.59 151.886 148.116 149.244 150.593 147.816L154.529 145.545Z" fill="#0C1F2B"/>
<path d="M168.608 169.418C171.082 167.99 174.129 167.99 176.603 169.418L180.54 171.689C183.016 173.117 184.542 175.759 184.542 178.618L184.542 183.15C184.542 186.009 183.016 188.651 180.54 190.08L176.603 192.351C174.129 193.778 171.082 193.778 168.608 192.351L164.671 190.08C162.195 188.651 160.669 186.009 160.669 183.15L160.669 178.618C160.669 175.759 162.195 173.117 164.671 171.689L168.608 169.418Z" fill="#173344"/>
<path d="M168.608 121.672C171.082 120.244 174.129 120.244 176.603 121.672L180.54 123.943C183.016 125.371 184.542 128.013 184.542 130.872L184.542 135.404C184.542 138.263 183.016 140.905 180.54 142.333L176.603 144.604C174.129 146.032 171.082 146.032 168.608 144.604L164.671 142.333C162.195 140.905 160.669 138.263 160.669 135.404L160.669 130.872C160.669 128.013 162.195 125.371 164.671 123.943L168.608 121.672Z" fill="#0C1F2B"/>
<path d="M182.369 193.291C184.843 191.863 187.89 191.863 190.364 193.291L194.301 195.562C196.777 196.99 198.303 199.632 198.303 202.491L198.303 207.023C198.303 209.882 196.777 212.524 194.301 213.953L190.364 216.224C187.89 217.651 184.843 217.651 182.369 216.224L178.432 213.953C175.956 212.524 174.43 209.882 174.43 207.023L174.43 202.491C174.43 199.632 175.956 196.99 178.432 195.562L182.369 193.291Z" fill="#0C1F2B"/>
<path d="M182.369 97.7986C184.843 96.3712 187.89 96.3712 190.364 97.7986L194.301 100.07C196.777 101.498 198.303 104.14 198.303 106.999L198.303 111.531C198.303 114.39 196.777 117.032 194.301 118.461L190.364 120.732C187.89 122.159 184.843 122.159 182.369 120.732L178.432 118.461C175.956 117.032 174.43 114.39 174.43 111.531L174.43 106.999C174.43 104.14 175.956 101.498 178.432 100.07L182.369 97.7986Z" fill="#0C1F2B"/>
<path d="M265.618 193.291C268.092 191.863 271.14 191.863 273.614 193.291L277.55 195.562C280.027 196.99 281.553 199.632 281.553 202.491L281.553 207.023C281.553 209.882 280.027 212.524 277.55 213.953L273.614 216.224C271.14 217.651 268.092 217.651 265.618 216.224L261.682 213.953C259.205 212.524 257.68 209.882 257.68 207.023L257.68 202.491C257.68 199.632 259.205 196.99 261.682 195.562L265.618 193.291Z" fill="#0C1F2B"/>
<path d="M348.868 193.291C351.342 191.863 354.389 191.863 356.863 193.291L360.8 195.562C363.276 196.99 364.802 199.632 364.802 202.491L364.802 207.023C364.802 209.882 363.276 212.524 360.8 213.953L356.863 216.224C354.389 217.651 351.342 217.651 348.868 216.224L344.931 213.953C342.455 212.524 340.929 209.882 340.929 207.023L340.929 202.491C340.929 199.632 342.455 196.99 344.931 195.562L348.868 193.291Z" fill="#0C1F2B"/>
<path d="M348.868 145.545C351.342 144.117 354.389 144.117 356.863 145.545L360.8 147.816C363.276 149.244 364.802 151.886 364.802 154.745L364.802 159.277C364.802 162.136 363.276 164.778 360.8 166.206L356.863 168.478C354.389 169.905 351.342 169.905 348.868 168.478L344.931 166.206C342.455 164.778 340.929 162.136 340.929 159.277L340.929 154.745C340.929 151.886 342.455 149.244 344.931 147.816L348.868 145.545Z" fill="#0C1F2B"/>
<path d="M362.947 169.418C365.421 167.99 368.469 167.99 370.943 169.418L374.879 171.689C377.356 173.117 378.881 175.759 378.881 178.618L378.881 183.15C378.881 186.009 377.356 188.651 374.879 190.08L370.943 192.351C368.469 193.778 365.421 193.778 362.947 192.351L359.011 190.08C356.534 188.651 355.008 186.009 355.008 183.15L355.008 178.618C355.008 175.759 356.534 173.117 359.011 171.689L362.947 169.418Z" fill="#173344"/>
<path d="M362.947 121.672C365.421 120.244 368.469 120.244 370.943 121.672L374.879 123.943C377.356 125.371 378.881 128.013 378.881 130.872L378.881 135.404C378.881 138.263 377.356 140.905 374.879 142.333L370.943 144.604C368.469 146.032 365.421 146.032 362.947 144.604L359.011 142.333C356.534 140.905 355.008 138.263 355.008 135.404L355.008 130.872C355.008 128.013 356.534 125.371 359.011 123.943L362.947 121.672Z" fill="#0C1F2B"/>
<path d="M209.915 193.291C212.389 191.863 215.436 191.863 217.91 193.291L221.847 195.562C224.323 196.99 225.849 199.632 225.849 202.491L225.849 207.023C225.849 209.882 224.323 212.524 221.847 213.953L217.91 216.224C215.436 217.651 212.389 217.651 209.915 216.224L205.978 213.953C203.502 212.524 201.976 209.882 201.976 207.023L201.976 202.491C201.976 199.632 203.502 196.99 205.978 195.562L209.915 193.291Z" fill="#0C1F2B"/>
<path d="M223.994 169.418C226.468 167.99 229.515 167.99 231.989 169.418L235.926 171.689C238.402 173.117 239.928 175.759 239.928 178.618L239.928 183.15C239.928 186.009 238.402 188.651 235.926 190.08L231.989 192.351C229.515 193.778 226.468 193.778 223.994 192.351L220.057 190.08C217.581 188.651 216.055 186.009 216.055 183.15L216.055 178.618C216.055 175.759 217.581 173.117 220.057 171.689L223.994 169.418Z" fill="#0C1F2B"/>
<path d="M223.994 26.1795C226.468 24.7521 229.515 24.7521 231.989 26.1795L235.926 28.4505C238.402 29.8793 239.928 32.521 239.928 35.38L239.928 39.9119C239.928 42.7709 238.402 45.4126 235.926 46.8414L231.989 49.1124C229.515 50.5398 226.468 50.5398 223.994 49.1124L220.057 46.8414C217.581 45.4126 216.055 42.7709 216.055 39.9119L216.055 35.38C216.055 32.521 217.581 29.8792 220.057 28.4505L223.994 26.1795Z" fill="#0C1F2B"/>
<path d="M293.164 193.291C295.638 191.863 298.686 191.863 301.16 193.291L305.096 195.562C307.573 196.99 309.099 199.632 309.099 202.491L309.099 207.023C309.099 209.882 307.573 212.524 305.096 213.953L301.16 216.224C298.686 217.651 295.638 217.651 293.164 216.224L289.228 213.953C286.751 212.524 285.226 209.882 285.226 207.023L285.226 202.491C285.226 199.632 286.751 196.99 289.228 195.562L293.164 193.291Z" fill="#0C1F2B"/>
<path d="M293.164 50.0524C295.638 48.625 298.685 48.625 301.159 50.0524L305.096 52.3234C307.572 53.7522 309.098 56.3939 309.098 59.2529L309.098 63.7848C309.098 66.6438 307.572 69.2856 305.096 70.7143L301.159 72.9854C298.685 74.4127 295.638 74.4127 293.164 72.9854L289.227 70.7143C286.751 69.2856 285.225 66.6438 285.225 63.7848L285.225 59.2529C285.225 56.3939 286.751 53.7522 289.227 52.3234L293.164 50.0524Z" fill="#0C1F2B"/>
<path d="M307.243 169.418C309.717 167.99 312.765 167.99 315.239 169.418L319.175 171.689C321.652 173.117 323.178 175.759 323.178 178.618L323.178 183.15C323.178 186.009 321.652 188.651 319.175 190.08L315.239 192.351C312.765 193.778 309.717 193.778 307.243 192.351L303.307 190.08C300.83 188.651 299.305 186.009 299.305 183.15L299.305 178.618C299.305 175.759 300.83 173.117 303.307 171.689L307.243 169.418Z" fill="#0C1F2B"/>
<path d="M376.414 193.291C378.888 191.863 381.935 191.863 384.409 193.291L388.346 195.562C390.822 196.99 392.348 199.632 392.348 202.491L392.348 207.023C392.348 209.882 390.822 212.524 388.346 213.953L384.409 216.224C381.935 217.651 378.888 217.651 376.414 216.224L372.477 213.953C370.001 212.524 368.475 209.882 368.475 207.023L368.475 202.491C368.475 199.632 370.001 196.99 372.477 195.562L376.414 193.291Z" fill="#0C1F2B"/>
<path d="M376.414 145.545C378.888 144.117 381.935 144.117 384.409 145.545L388.346 147.816C390.822 149.244 392.348 151.886 392.348 154.745L392.348 159.277C392.348 162.136 390.822 164.778 388.346 166.206L384.409 168.478C381.935 169.905 378.888 169.905 376.414 168.478L372.477 166.206C370.001 164.778 368.475 162.136 368.475 159.277L368.475 154.745C368.475 151.886 370.001 149.244 372.477 147.816L376.414 145.545Z" fill="#173344"/>
<path d="M390.493 169.418C392.967 167.99 396.014 167.99 398.488 169.418L402.425 171.689C404.901 173.117 406.427 175.759 406.427 178.618L406.427 183.15C406.427 186.009 404.901 188.651 402.425 190.08L398.488 192.351C396.014 193.778 392.967 193.778 390.493 192.351L386.556 190.08C384.08 188.651 382.554 186.009 382.554 183.15L382.554 178.618C382.554 175.759 384.08 173.117 386.556 171.689L390.493 169.418Z" fill="#0C1F2B"/>
<path d="M237.461 193.291C239.935 191.863 242.982 191.863 245.456 193.291L249.393 195.562C251.869 196.99 253.395 199.632 253.395 202.491L253.395 207.023C253.395 209.882 251.869 212.524 249.393 213.953L245.456 216.224C242.982 217.651 239.935 217.651 237.461 216.224L233.524 213.953C231.048 212.524 229.522 209.882 229.522 207.023L229.522 202.491C229.522 199.632 231.048 196.99 233.524 195.562L237.461 193.291Z" fill="#0C1F2B"/>
<path d="M251.539 73.9256C254.013 72.4982 257.061 72.4982 259.535 73.9256L263.471 76.1966C265.948 77.6253 267.474 80.2671 267.474 83.1261L267.474 87.658C267.474 90.517 265.948 93.1587 263.471 94.5875L259.535 96.8585C257.061 98.2859 254.013 98.2859 251.539 96.8585L247.603 94.5875C245.126 93.1587 243.601 90.517 243.601 87.658L243.601 83.1261C243.601 80.2671 245.126 77.6253 247.603 76.1966L251.539 73.9256Z" fill="#0C1F2B"/>
<path d="M251.539 26.1795C254.013 24.7521 257.061 24.7521 259.535 26.1795L263.471 28.4505C265.948 29.8793 267.474 32.521 267.474 35.38L267.474 39.9119C267.474 42.7709 265.948 45.4126 263.471 46.8414L259.535 49.1124C257.061 50.5398 254.013 50.5398 251.539 49.1124L247.603 46.8414C245.126 45.4126 243.601 42.7709 243.601 39.9119L243.601 35.38C243.601 32.521 245.126 29.8792 247.603 28.4505L251.539 26.1795Z" fill="#0C1F2B"/>
<path d="M320.71 193.291C323.184 191.863 326.231 191.863 328.705 193.291L332.642 195.562C335.118 196.99 336.644 199.632 336.644 202.491L336.644 207.023C336.644 209.882 335.118 212.524 332.642 213.953L328.705 216.224C326.231 217.651 323.184 217.651 320.71 216.224L316.773 213.953C314.297 212.524 312.771 209.882 312.771 207.023L312.771 202.491C312.771 199.632 314.297 196.99 316.773 195.562L320.71 193.291Z" fill="#0C1F2B"/>
<path d="M320.71 145.545C323.184 144.117 326.231 144.117 328.705 145.545L332.642 147.816C335.118 149.244 336.644 151.886 336.644 154.745L336.644 159.277C336.644 162.136 335.118 164.778 332.642 166.206L328.705 168.478C326.231 169.905 323.184 169.905 320.71 168.478L316.773 166.206C314.297 164.778 312.771 162.136 312.771 159.277L312.771 154.745C312.771 151.886 314.297 149.244 316.773 147.816L320.71 145.545Z" fill="#0C1F2B"/>
<path d="M334.789 169.418C337.263 167.99 340.31 167.99 342.784 169.418L346.721 171.689C349.197 173.117 350.723 175.759 350.723 178.618L350.723 183.15C350.723 186.009 349.197 188.651 346.721 190.08L342.784 192.351C340.31 193.778 337.263 193.778 334.789 192.351L330.852 190.08C328.376 188.651 326.85 186.009 326.85 183.15L326.85 178.618C326.85 175.759 328.376 173.117 330.852 171.689L334.789 169.418Z" fill="#173344"/>
<path d="M403.96 193.291C406.434 191.863 409.481 191.863 411.955 193.291L415.892 195.562C418.368 196.99 419.894 199.632 419.894 202.491L419.894 207.023C419.894 209.882 418.368 212.524 415.892 213.953L411.955 216.224C409.481 217.651 406.434 217.651 403.96 216.224L400.023 213.953C397.547 212.524 396.021 209.882 396.021 207.023L396.021 202.491C396.021 199.632 397.547 196.99 400.023 195.562L403.96 193.291Z" fill="#0C1F2B"/>
<path d="M403.96 145.545C406.434 144.117 409.481 144.117 411.955 145.545L415.892 147.816C418.368 149.244 419.894 151.886 419.894 154.745L419.894 159.277C419.894 162.136 418.368 164.778 415.892 166.206L411.955 168.478C409.481 169.905 406.434 169.905 403.96 168.478L400.023 166.206C397.547 164.778 396.021 162.136 396.021 159.277L396.021 154.745C396.021 151.886 397.547 149.244 400.023 147.816L403.96 145.545Z" fill="#0C1F2B"/>
<path d="M418.038 169.418C420.512 167.99 423.56 167.99 426.034 169.418L429.97 171.689C432.447 173.117 433.973 175.759 433.973 178.618L433.973 183.15C433.973 186.009 432.447 188.651 429.97 190.08L426.034 192.351C423.56 193.778 420.512 193.778 418.038 192.351L414.102 190.08C411.625 188.651 410.1 186.009 410.1 183.15L410.1 178.618C410.1 175.759 411.625 173.117 414.102 171.689L418.038 169.418Z" fill="#173344"/>
<path d="M418.038 121.672C420.512 120.244 423.56 120.244 426.034 121.672L429.97 123.943C432.447 125.371 433.973 128.013 433.973 130.872L433.973 135.404C433.973 138.263 432.447 140.905 429.97 142.333L426.034 144.604C423.56 146.032 420.512 146.032 418.038 144.604L414.102 142.333C411.625 140.905 410.1 138.263 410.1 135.404L410.1 130.872C410.1 128.013 411.625 125.371 414.102 123.943L418.038 121.672Z" fill="#0C1F2B"/>
</svg>
