<svg width="26" height="28" viewBox="0 0 26 28" fill="none" xmlns="http://www.w3.org/2000/svg">
<path d="M13 2C5.82183 2 0 7.9679 0 15.3286C0 21.2177 3.7245 26.2137 8.89092 27.9764C9.53983 28.0997 9.75 27.6865 9.75 27.3355V24.8542C6.13383 25.6606 5.38092 23.2814 5.38092 23.2814C4.78942 21.7408 3.93683 21.331 3.93683 21.331C2.75708 20.5035 4.02675 20.5213 4.02675 20.5213C5.33217 20.6146 6.019 21.8952 6.019 21.8952C7.17817 23.9323 9.05992 23.3436 9.802 23.0026C9.91792 22.1418 10.2548 21.5531 10.6275 21.221C7.74042 20.8822 4.70492 19.7393 4.70492 14.6333C4.70492 13.1772 5.213 11.9887 6.04392 11.0557C5.90958 10.7192 5.46433 9.36297 6.17067 7.52806C6.17067 7.52806 7.26267 7.1704 9.74675 8.89424C10.7835 8.59879 11.895 8.45106 13 8.44551C14.105 8.45106 15.2176 8.59879 16.2565 8.89424C18.7384 7.1704 19.8283 7.52806 19.8283 7.52806C20.5357 9.36408 20.0904 10.7203 19.9561 11.0557C20.7903 11.9887 21.294 13.1783 21.294 14.6333C21.294 19.7526 18.2531 20.88 15.3584 21.2099C15.8243 21.6231 16.25 22.4339 16.25 23.6779V27.3355C16.25 27.6899 16.458 28.1064 17.1178 27.9753C22.2798 26.2104 26 21.2155 26 15.3286C26 7.9679 20.1793 2 13 2Z" fill="#C9A061"/>
</svg>
