<svg width="219" height="538" viewBox="0 0 219 538" fill="none" xmlns="http://www.w3.org/2000/svg">
<path d="M25.2395 230.372C26.6668 232.846 26.6668 235.894 25.2395 238.368L22.9684 242.304C21.5397 244.781 18.898 246.307 16.0389 246.307L11.5071 246.307C8.64803 246.307 6.00631 244.781 4.57758 242.304L2.30652 238.368C0.879162 235.894 0.879162 232.846 2.30652 230.372L4.57758 226.436C6.00631 223.959 8.64802 222.434 11.5071 222.434L16.0389 222.434C18.898 222.434 21.5397 223.959 22.9684 226.436L25.2395 230.372Z" fill="#0C1F2B"/>
<path d="M72.9856 230.372C74.4129 232.846 74.4129 235.894 72.9856 238.368L70.7145 242.304C69.2858 244.781 66.6441 246.307 63.785 246.307L59.2532 246.307C56.3941 246.307 53.7524 244.781 52.3237 242.304L50.0526 238.368C48.6253 235.894 48.6253 232.846 50.0526 230.372L52.3237 226.436C53.7524 223.959 56.3941 222.434 59.2532 222.434L63.785 222.434C66.6441 222.434 69.2858 223.959 70.7145 226.436L72.9856 230.372Z" fill="#0C1F2B"/>
<path d="M49.1125 244.451C50.5399 246.925 50.5399 249.973 49.1125 252.447L46.8415 256.383C45.4127 258.86 42.771 260.386 39.912 260.386L35.3801 260.386C32.5211 260.386 29.8794 258.86 28.4506 256.383L26.1796 252.447C24.7522 249.973 24.7522 246.925 26.1796 244.451L28.4506 240.515C29.8794 238.038 32.5211 236.513 35.3801 236.513L39.912 236.513C42.771 236.513 45.4127 238.038 46.8415 240.515L49.1125 244.451Z" fill="#0C1F2B"/>
<path d="M96.8587 244.451C98.2861 246.926 98.2861 249.973 96.8587 252.447L94.5877 256.383C93.159 258.86 90.5172 260.386 87.6582 260.386L83.1263 260.386C80.2673 260.386 77.6256 258.86 76.1968 256.383L73.9258 252.447C72.4984 249.973 72.4984 246.926 73.9258 244.451L76.1968 240.515C77.6256 238.038 80.2673 236.513 83.1263 236.513L87.6582 236.513C90.5172 236.513 93.159 238.038 94.5877 240.515L96.8587 244.451Z" fill="#0C1F2B"/>
<path d="M25.2395 313.622C26.6668 316.096 26.6668 319.143 25.2395 321.617L22.9684 325.554C21.5397 328.03 18.898 329.556 16.0389 329.556L11.5071 329.556C8.64803 329.556 6.00631 328.03 4.57758 325.554L2.30652 321.617C0.879162 319.143 0.879162 316.096 2.30652 313.622L4.57758 309.685C6.00631 307.209 8.64802 305.683 11.5071 305.683L16.0389 305.683C18.898 305.683 21.5397 307.209 22.9684 309.685L25.2395 313.622Z" fill="#173344"/>
<path d="M72.9856 396.871C74.4129 399.345 74.4129 402.393 72.9856 404.867L70.7145 408.803C69.2858 411.28 66.6441 412.806 63.785 412.806L59.2532 412.806C56.3941 412.806 53.7524 411.28 52.3237 408.803L50.0526 404.867C48.6253 402.393 48.6253 399.345 50.0526 396.871L52.3237 392.935C53.7524 390.458 56.3941 388.933 59.2532 388.933L63.785 388.933C66.6441 388.933 69.2858 390.458 70.7145 392.935L72.9856 396.871Z" fill="#0C1F2B"/>
<path d="M49.2394 493.939C50.6667 496.413 50.6667 499.46 49.2394 501.934L46.9683 505.871C45.5396 508.347 42.8979 509.873 40.0388 509.873L35.5069 509.873C32.6479 509.873 30.0062 508.347 28.5775 505.871L26.3064 501.934C24.879 499.46 24.879 496.413 26.3064 493.939L28.5775 490.002C30.0062 487.526 32.6479 486 35.5069 486L40.0388 486C42.8979 486 45.5396 487.526 46.9683 490.002L49.2394 493.939Z" fill="#0C1F2B"/>
<path d="M25.2395 257.918C26.6668 260.392 26.6668 263.44 25.2395 265.914L22.9684 269.85C21.5397 272.327 18.898 273.853 16.0389 273.853L11.5071 273.853C8.64803 273.853 6.00631 272.327 4.57758 269.85L2.30652 265.914C0.879162 263.44 0.879162 260.392 2.30652 257.918L4.57758 253.982C6.00631 251.505 8.64802 249.979 11.5071 249.979L16.0389 249.979C18.898 249.979 21.5397 251.505 22.9684 253.982L25.2395 257.918Z" fill="#173344"/>
<path d="M120.732 257.918C122.159 260.392 122.159 263.44 120.732 265.914L118.461 269.85C117.032 272.327 114.39 273.853 111.531 273.853L106.999 273.853C104.14 273.853 101.498 272.327 100.07 269.85L97.7987 265.914C96.3713 263.44 96.3713 260.392 97.7987 257.918L100.07 253.982C101.498 251.505 104.14 249.979 106.999 249.979L111.531 249.979C114.39 249.979 117.032 251.505 118.461 253.982L120.732 257.918Z" fill="#0C1F2B"/>
<path d="M25.2395 341.168C26.6668 343.642 26.6668 346.689 25.2395 349.163L22.9684 353.1C21.5397 355.576 18.898 357.102 16.0389 357.102L11.5071 357.102C8.64803 357.102 6.00631 355.576 4.57758 353.1L2.30652 349.163C0.879162 346.689 0.879162 343.642 2.30652 341.168L4.57758 337.231C6.00631 334.755 8.64802 333.229 11.5071 333.229L16.0389 333.229C18.898 333.229 21.5397 334.755 22.9684 337.231L25.2395 341.168Z" fill="#173344"/>
<path d="M72.9856 341.168C74.4129 343.642 74.4129 346.689 72.9856 349.163L70.7145 353.1C69.2858 355.576 66.6441 357.102 63.785 357.102L59.2532 357.102C56.3941 357.102 53.7524 355.576 52.3237 353.1L50.0526 349.163C48.6253 346.689 48.6253 343.642 50.0526 341.168L52.3237 337.231C53.7524 334.755 56.3941 333.229 59.2532 333.229L63.785 333.229C66.6441 333.229 69.2858 334.755 70.7145 337.231L72.9856 341.168Z" fill="#0C1F2B"/>
<path d="M49.1125 355.247C50.5399 357.721 50.5399 360.768 49.1125 363.242L46.8415 367.179C45.4127 369.655 42.771 371.181 39.912 371.181L35.3801 371.181C32.5211 371.181 29.8794 369.655 28.4506 367.179L26.1796 363.242C24.7522 360.768 24.7522 357.721 26.1796 355.247L28.4506 351.31C29.8794 348.834 32.5211 347.308 35.3801 347.308L39.912 347.308C42.771 347.308 45.4127 348.834 46.8415 351.31L49.1125 355.247Z" fill="#0C1F2B"/>
<path d="M96.8587 355.247C98.2861 357.721 98.2861 360.768 96.8587 363.242L94.5877 367.179C93.159 369.655 90.5172 371.181 87.6582 371.181L83.1263 371.181C80.2673 371.181 77.6256 369.655 76.1968 367.179L73.9258 363.242C72.4984 360.768 72.4984 357.721 73.9258 355.247L76.1968 351.31C77.6256 348.834 80.2673 347.308 83.1263 347.308L87.6582 347.308C90.5172 347.308 93.159 348.834 94.5877 351.31L96.8587 355.247Z" fill="#0C1F2B"/>
<path d="M72.9856 424.417C74.4129 426.891 74.4129 429.939 72.9856 432.413L70.7145 436.349C69.2858 438.826 66.6441 440.352 63.785 440.352L59.2532 440.352C56.3941 440.352 53.7524 438.826 52.3237 436.349L50.0526 432.413C48.6253 429.939 48.6253 426.891 50.0526 424.417L52.3237 420.481C53.7524 418.004 56.3941 416.479 59.2532 416.479L63.785 416.479C66.6441 416.479 69.2858 418.004 70.7145 420.481L72.9856 424.417Z" fill="#0C1F2B"/>
<path d="M216.224 424.417C217.651 426.891 217.651 429.939 216.224 432.413L213.953 436.349C212.524 438.826 209.882 440.352 207.023 440.352L202.491 440.352C199.632 440.352 196.991 438.826 195.562 436.349L193.291 432.413C191.864 429.939 191.864 426.891 193.291 424.417L195.562 420.481C196.991 418.004 199.632 416.479 202.491 416.479L207.023 416.479C209.882 416.479 212.524 418.004 213.953 420.481L216.224 424.417Z" fill="#0C1F2B"/>
<path d="M96.9853 521.484C98.4127 523.958 98.4127 527.006 96.9853 529.48L94.7143 533.416C93.2855 535.893 90.6438 537.419 87.7848 537.419L83.2529 537.419C80.3939 537.419 77.7522 535.893 76.3234 533.416L74.0524 529.48C72.625 527.006 72.625 523.958 74.0524 521.484L76.3234 517.548C77.7522 515.071 80.3939 513.546 83.2529 513.546L87.7848 513.546C90.6438 513.546 93.2855 515.071 94.7143 517.548L96.9853 521.484Z" fill="#0C1F2B"/>
<path d="M25.2395 285.464C26.6668 287.938 26.6668 290.985 25.2395 293.46L22.9684 297.396C21.5397 299.873 18.898 301.398 16.0389 301.398L11.5071 301.398C8.64803 301.398 6.00631 299.873 4.57758 297.396L2.30652 293.46C0.879162 290.985 0.879162 287.938 2.30652 285.464L4.57758 281.527C6.00631 279.051 8.64802 277.525 11.5071 277.525L16.0389 277.525C18.898 277.525 21.5397 279.051 22.9684 281.527L25.2395 285.464Z" fill="#0C1F2B"/>
<path d="M49.1125 299.543C50.5399 302.017 50.5399 305.064 49.1125 307.538L46.8415 311.475C45.4127 313.951 42.771 315.477 39.912 315.477L35.3801 315.477C32.5211 315.477 29.8794 313.951 28.4506 311.475L26.1796 307.538C24.7522 305.064 24.7522 302.017 26.1796 299.543L28.4506 295.606C29.8794 293.13 32.5211 291.604 35.3801 291.604L39.912 291.604C42.771 291.604 45.4127 293.13 46.8415 295.606L49.1125 299.543Z" fill="#173344"/>
<path d="M25.2395 368.713C26.6668 371.187 26.6668 374.235 25.2395 376.709L22.9684 380.645C21.5397 383.122 18.898 384.648 16.0389 384.648L11.5071 384.648C8.64803 384.648 6.00631 383.122 4.57758 380.645L2.30652 376.709C0.879162 374.235 0.879162 371.187 2.30652 368.713L4.57758 364.777C6.00631 362.3 8.64802 360.775 11.5071 360.775L16.0389 360.775C18.898 360.775 21.5397 362.3 22.9684 364.777L25.2395 368.713Z" fill="#0C1F2B"/>
<path d="M168.478 368.713C169.905 371.187 169.905 374.235 168.478 376.709L166.207 380.645C164.778 383.122 162.136 384.648 159.277 384.648L154.745 384.648C151.886 384.648 149.245 383.122 147.816 380.645L145.545 376.709C144.117 374.235 144.117 371.187 145.545 368.713L147.816 364.777C149.245 362.3 151.886 360.775 154.745 360.775L159.277 360.775C162.136 360.775 164.778 362.3 166.207 364.777L168.478 368.713Z" fill="#0C1F2B"/>
<path d="M25.2395 451.963C26.6668 454.437 26.6668 457.484 25.2395 459.958L22.9684 463.895C21.5397 466.371 18.898 467.897 16.0389 467.897L11.5071 467.897C8.64803 467.897 6.00631 466.371 4.57758 463.895L2.30652 459.958C0.879162 457.484 0.879162 454.437 2.30652 451.963L4.57758 448.026C6.00631 445.55 8.64802 444.024 11.5071 444.024L16.0389 444.024C18.898 444.024 21.5397 445.55 22.9684 448.026L25.2395 451.963Z" fill="#0C1F2B"/>
<path d="M49.1125 466.042C50.5399 468.516 50.5399 471.563 49.1125 474.038L46.8415 477.974C45.4127 480.451 42.771 481.976 39.912 481.976L35.3801 481.976C32.5211 481.976 29.8794 480.451 28.4506 477.974L26.1796 474.038C24.7522 471.563 24.7522 468.516 26.1796 466.042L28.4506 462.105C29.8794 459.629 32.5211 458.103 35.3801 458.103L39.912 458.103C42.771 458.103 45.4127 459.629 46.8415 462.105L49.1125 466.042Z" fill="#0C1F2B"/>
<path d="M144.605 466.042C146.032 468.516 146.032 471.563 144.605 474.038L142.334 477.974C140.905 480.451 138.263 481.976 135.404 481.976L130.872 481.976C128.013 481.976 125.372 480.451 123.943 477.974L121.672 474.038C120.244 471.563 120.244 468.516 121.672 466.042L123.943 462.105C125.372 459.629 128.013 458.103 130.872 458.103L135.404 458.103C138.263 458.103 140.905 459.629 142.334 462.105L144.605 466.042Z" fill="#0C1F2B"/>
<path d="M48.745 160.971C50.1723 163.445 50.1723 166.493 48.745 168.967L46.4739 172.903C45.0452 175.38 42.4035 176.905 39.5444 176.905L35.0126 176.905C32.1535 176.905 29.5118 175.38 28.0831 172.903L25.812 168.967C24.3847 166.493 24.3847 163.445 25.812 160.971L28.0831 157.035C29.5118 154.558 32.1535 153.032 35.0126 153.032L39.5444 153.032C42.4035 153.032 45.0452 154.558 46.4739 157.035L48.745 160.971Z" fill="#0C1F2B"/>
<path d="M72.6179 7.93873C74.0453 10.4128 74.0453 13.4602 72.6179 15.9343L70.3468 19.8708C68.9181 22.3473 66.2764 23.873 63.4174 23.873L58.8855 23.873C56.0264 23.873 53.3847 22.3473 51.956 19.8708L49.6849 15.9343C48.2576 13.4602 48.2576 10.4128 49.6849 7.93873L51.956 4.00222C53.3847 1.52576 56.0264 -8.26052e-07 58.8855 -7.0108e-07L63.4174 -5.02985e-07C66.2764 -3.78013e-07 68.9181 1.52576 70.3468 4.00222L72.6179 7.93873Z" fill="#0C1F2B"/>
<path d="M48.745 22.0178C50.1723 24.4919 50.1723 27.5393 48.745 30.0134L46.4739 33.9499C45.0452 36.4264 42.4035 37.9521 39.5444 37.9521L35.0126 37.9521C32.1535 37.9521 29.5118 36.4264 28.0831 33.9499L25.812 30.0134C24.3847 27.5393 24.3847 24.4919 25.812 22.0178L28.0831 18.0813C29.5118 15.6049 32.1535 14.0791 35.0126 14.0791L39.5444 14.0791C42.4035 14.0791 45.0452 15.6049 46.4739 18.0813L48.745 22.0178Z" fill="#173344"/>
<path d="M25.2394 35.5669C26.6667 38.041 26.6667 41.0884 25.2394 43.5625L22.9683 47.499C21.5396 49.9754 18.8979 51.5012 16.0388 51.5012L11.5069 51.5012C8.6479 51.5012 6.00618 49.9754 4.57746 47.499L2.30639 43.5625C0.879039 41.0884 0.87904 38.041 2.30639 35.5669L4.57746 31.6304C6.00618 29.1539 8.6479 27.6282 11.5069 27.6282L16.0388 27.6282C18.8979 27.6282 21.5396 29.1539 22.9683 31.6304L25.2394 35.5669Z" fill="#0C1F2B"/>
<path d="M72.6179 91.1884C74.0453 93.6624 74.0453 96.7098 72.6179 99.1839L70.3468 103.12C68.9181 105.597 66.2764 107.123 63.4174 107.123L58.8855 107.123C56.0264 107.123 53.3847 105.597 51.956 103.12L49.6849 99.1839C48.2576 96.7098 48.2576 93.6624 49.6849 91.1884L51.956 87.2519C53.3847 84.7754 56.0264 83.2496 58.8855 83.2496L63.4174 83.2496C66.2764 83.2496 68.9181 84.7754 70.3468 87.2519L72.6179 91.1884Z" fill="#0C1F2B"/>
<path d="M48.745 105.267C50.1723 107.741 50.1723 110.789 48.745 113.263L46.4739 117.199C45.0452 119.676 42.4035 121.202 39.5444 121.202L35.0126 121.202C32.1535 121.202 29.5118 119.676 28.0831 117.199L25.812 113.263C24.3847 110.789 24.3847 107.741 25.812 105.267L28.0831 101.331C29.5118 98.8544 32.1535 97.3286 35.0126 97.3286L39.5444 97.3286C42.4035 97.3286 45.0452 98.8544 46.4739 101.331L48.745 105.267Z" fill="#173344"/>
<path d="M48.745 188.517C50.1723 190.991 50.1723 194.038 48.745 196.512L46.4739 200.449C45.0452 202.925 42.4035 204.451 39.5444 204.451L35.0126 204.451C32.1535 204.451 29.5118 202.925 28.0831 200.449L25.812 196.512C24.3847 194.038 24.3847 190.991 25.812 188.517L28.0831 184.58C29.5118 182.104 32.1535 180.578 35.0126 180.578L39.5444 180.578C42.4035 180.578 45.0452 182.104 46.4739 184.58L48.745 188.517Z" fill="#0C1F2B"/>
<path d="M72.6179 35.4848C74.0453 37.9588 74.0453 41.0062 72.6179 43.4803L70.3468 47.4168C68.9181 49.8933 66.2764 51.419 63.4174 51.419L58.8855 51.419C56.0264 51.419 53.3847 49.8933 51.956 47.4168L49.6849 43.4803C48.2576 41.0062 48.2576 37.9588 49.6849 35.4848L51.956 31.5482C53.3847 29.0718 56.0264 27.546 58.8855 27.546L63.4174 27.546C66.2764 27.546 68.9181 29.0718 70.3468 31.5482L72.6179 35.4848Z" fill="#0C1F2B"/>
<path d="M48.745 49.5635C50.1723 52.0376 50.1723 55.085 48.745 57.559L46.4739 61.4956C45.0452 63.972 42.4035 65.4978 39.5444 65.4978L35.0126 65.4978C32.1535 65.4978 29.5118 63.972 28.0831 61.4956L25.812 57.559C24.3847 55.085 24.3847 52.0376 25.812 49.5635L28.0831 45.627C29.5118 43.1505 32.1535 41.6248 35.0126 41.6248L39.5444 41.6248C42.4035 41.6248 45.0452 43.1505 46.4739 45.627L48.745 49.5635Z" fill="#0C1F2B"/>
<path d="M72.6179 118.734C74.0453 121.208 74.0453 124.255 72.6179 126.73L70.3468 130.666C68.9181 133.143 66.2764 134.668 63.4174 134.668L58.8855 134.668C56.0264 134.668 53.3847 133.143 51.956 130.666L49.6849 126.73C48.2576 124.255 48.2576 121.208 49.6849 118.734L51.956 114.798C53.3847 112.321 56.0264 110.795 58.8855 110.795L63.4174 110.795C66.2764 110.795 68.9181 112.321 70.3468 114.798L72.6179 118.734Z" fill="#0C1F2B"/>
<path d="M72.6179 201.984C74.0453 204.458 74.0453 207.505 72.6179 209.979L70.3468 213.916C68.9181 216.392 66.2764 217.918 63.4174 217.918L58.8855 217.918C56.0264 217.918 53.3847 216.392 51.956 213.916L49.6849 209.979C48.2576 207.505 48.2576 204.458 49.6849 201.984L51.956 198.047C53.3847 195.571 56.0264 194.045 58.8855 194.045L63.4174 194.045C66.2764 194.045 68.9181 195.571 70.3468 198.047L72.6179 201.984Z" fill="#0C1F2B"/>
<path d="M48.745 216.063C50.1723 218.537 50.1723 221.584 48.745 224.058L46.4739 227.995C45.0452 230.471 42.4035 231.997 39.5444 231.997L35.0126 231.997C32.1535 231.997 29.5118 230.471 28.0831 227.995L25.812 224.058C24.3847 221.584 24.3847 218.537 25.812 216.063L28.0831 212.126C29.5118 209.65 32.1535 208.124 35.0126 208.124L39.5444 208.124C42.4035 208.124 45.0452 209.65 46.4739 212.126L48.745 216.063Z" fill="#0C1F2B"/>
<path d="M96.491 216.063C97.9183 218.537 97.9183 221.584 96.491 224.058L94.2199 227.995C92.7912 230.471 90.1494 231.997 87.2904 231.997L82.7585 231.997C79.8995 231.997 77.2578 230.471 75.829 227.995L73.558 224.058C72.1306 221.584 72.1306 218.537 73.558 216.063L75.829 212.126C77.2578 209.65 79.8995 208.124 82.7585 208.124L87.2904 208.124C90.1494 208.124 92.7912 209.65 94.2199 212.126L96.491 216.063Z" fill="#0C1F2B"/>
</svg>
