<svg width="28" height="27" viewBox="0 0 28 27" fill="none" xmlns="http://www.w3.org/2000/svg">
<rect x="1" width="26" height="26" rx="13" fill="#C9A061"/>
<path d="M6.81534 9.36875V20.2077H9.73805V9.36875H6.81534Z" fill="#050E14"/>
<path d="M6.57178 6.38092C6.57178 7.34078 7.33558 8.11925 8.2767 8.11925C9.21877 8.11925 9.98161 7.34078 9.98161 6.38092C9.98161 5.42154 9.21781 4.64307 8.2767 4.64307C7.33558 4.64307 6.57178 5.42154 6.57178 6.38092Z" fill="#050E14"/>
<path d="M18.5062 20.2077H21.4289V13.5479C21.4289 8.37136 15.9693 8.55996 14.6092 11.108V9.36875H11.6865V20.2077H14.6092V14.6857C14.6092 11.6185 18.5062 11.3669 18.5062 14.6857V20.2077Z" fill="#050E14"/>
</svg>
