<svg width="332" height="197" viewBox="0 0 332 197" fill="none" xmlns="http://www.w3.org/2000/svg">
<path d="M154.563 4.17374C161.778 1.48188 169.721 1.48188 176.936 4.17374L310.436 53.9842C322.951 58.6539 331.249 70.6068 331.249 83.9653V113.035C331.249 126.393 322.951 138.346 310.436 143.016L176.936 192.826C169.721 195.518 161.778 195.518 154.563 192.826L21.063 143.016C8.54734 138.346 0.249268 126.393 0.249268 113.035V83.9653C0.249268 70.6068 8.54733 58.6539 21.063 53.9842L154.563 4.17374Z" fill="#11232E"/>
<path d="M156.241 93.1999H160.129V106.832H168.553V110H156.241V93.1999ZM170.461 97.0879H174.205V110H170.461V97.0879ZM172.333 95.2879C171.645 95.2879 171.085 95.0879 170.653 94.6879C170.221 94.2879 170.005 93.7919 170.005 93.1999C170.005 92.6079 170.221 92.1119 170.653 91.7119C171.085 91.3119 171.645 91.1119 172.333 91.1119C173.021 91.1119 173.581 91.3039 174.013 91.6879C174.445 92.0719 174.661 92.5519 174.661 93.1279C174.661 93.7519 174.445 94.2719 174.013 94.6879C173.581 95.0879 173.021 95.2879 172.333 95.2879ZM190.784 97.0879V114.656H187.04V108.632C186.112 109.672 184.824 110.192 183.176 110.192C181.96 110.192 180.856 109.92 179.864 109.376C178.888 108.832 178.12 108.056 177.56 107.048C177 106.04 176.72 104.872 176.72 103.544C176.72 102.216 177 101.048 177.56 100.04C178.12 99.0319 178.888 98.2559 179.864 97.7119C180.856 97.1679 181.96 96.8959 183.176 96.8959C184.936 96.8959 186.28 97.4559 187.208 98.5759V97.0879H190.784ZM183.824 107.12C184.768 107.12 185.552 106.8 186.176 106.16C186.8 105.504 187.112 104.632 187.112 103.544C187.112 102.456 186.8 101.592 186.176 100.952C185.552 100.296 184.768 99.9679 183.824 99.9679C182.864 99.9679 182.072 100.296 181.448 100.952C180.824 101.592 180.512 102.456 180.512 103.544C180.512 104.632 180.824 105.504 181.448 106.16C182.072 106.8 182.864 107.12 183.824 107.12ZM207.258 97.0879V110H203.706V108.464C203.21 109.024 202.618 109.456 201.93 109.76C201.242 110.048 200.498 110.192 199.698 110.192C198.002 110.192 196.658 109.704 195.666 108.728C194.674 107.752 194.178 106.304 194.178 104.384V97.0879H197.922V103.832C197.922 105.912 198.794 106.952 200.538 106.952C201.434 106.952 202.154 106.664 202.698 106.088C203.242 105.496 203.514 104.624 203.514 103.472V97.0879H207.258ZM210.727 97.0879H214.471V110H210.727V97.0879ZM212.599 95.2879C211.911 95.2879 211.351 95.0879 210.919 94.6879C210.487 94.2879 210.271 93.7919 210.271 93.1999C210.271 92.6079 210.487 92.1119 210.919 91.7119C211.351 91.3119 211.911 91.1119 212.599 91.1119C213.287 91.1119 213.847 91.3039 214.279 91.6879C214.711 92.0719 214.927 92.5519 214.927 93.1279C214.927 93.7519 214.711 94.2719 214.279 94.6879C213.847 95.0879 213.287 95.2879 212.599 95.2879ZM231.098 92.1919V110H227.522V108.512C226.594 109.632 225.25 110.192 223.49 110.192C222.274 110.192 221.17 109.92 220.178 109.376C219.202 108.832 218.434 108.056 217.874 107.048C217.314 106.04 217.034 104.872 217.034 103.544C217.034 102.216 217.314 101.048 217.874 100.04C218.434 99.0319 219.202 98.2559 220.178 97.7119C221.17 97.1679 222.274 96.8959 223.49 96.8959C225.138 96.8959 226.426 97.4159 227.354 98.4559V92.1919H231.098ZM224.138 107.12C225.082 107.12 225.866 106.8 226.49 106.16C227.114 105.504 227.426 104.632 227.426 103.544C227.426 102.456 227.114 101.592 226.49 100.952C225.866 100.296 225.082 99.9679 224.138 99.9679C223.178 99.9679 222.386 100.296 221.762 100.952C221.138 101.592 220.826 102.456 220.826 103.544C220.826 104.632 221.138 105.504 221.762 106.16C222.386 106.8 223.178 107.12 224.138 107.12ZM234.563 97.0879H238.307V110H234.563V97.0879ZM236.435 95.2879C235.747 95.2879 235.187 95.0879 234.755 94.6879C234.323 94.2879 234.107 93.7919 234.107 93.1999C234.107 92.6079 234.323 92.1119 234.755 91.7119C235.187 91.3119 235.747 91.1119 236.435 91.1119C237.123 91.1119 237.683 91.3039 238.115 91.6879C238.547 92.0719 238.763 92.5519 238.763 93.1279C238.763 93.7519 238.547 94.2719 238.115 94.6879C237.683 95.0879 237.123 95.2879 236.435 95.2879ZM250.109 109.376C249.741 109.648 249.285 109.856 248.741 110C248.213 110.128 247.653 110.192 247.061 110.192C245.525 110.192 244.333 109.8 243.485 109.016C242.653 108.232 242.237 107.08 242.237 105.56V100.256H240.245V97.3759H242.237V94.2319H245.981V97.3759H249.197V100.256H245.981V105.512C245.981 106.056 246.117 106.48 246.389 106.784C246.677 107.072 247.077 107.216 247.589 107.216C248.181 107.216 248.685 107.056 249.101 106.736L250.109 109.376ZM264.793 97.0879L258.961 110.792C258.369 112.28 257.633 113.328 256.753 113.936C255.889 114.544 254.841 114.848 253.609 114.848C252.937 114.848 252.273 114.744 251.617 114.536C250.961 114.328 250.425 114.04 250.009 113.672L251.377 111.008C251.665 111.264 251.993 111.464 252.361 111.608C252.745 111.752 253.121 111.824 253.489 111.824C254.001 111.824 254.417 111.696 254.737 111.44C255.057 111.2 255.345 110.792 255.601 110.216L255.649 110.096L250.057 97.0879H253.921L257.545 105.848L261.193 97.0879H264.793Z" fill="white"/>
<circle cx="80.2488" cy="99" r="42" stroke="#162A36" stroke-width="18"/>
<path fill-rule="evenodd" clip-rule="evenodd" d="M53.2008 48.5513C45.9507 52.2978 39.5769 57.5034 34.468 63.7797L60.4473 85.7368C62.6229 82.9185 65.3868 80.5774 68.555 78.8977L53.2008 48.5513Z" fill="url(#paint0_linear_886_121)"/>
<path d="M73.2606 97.802C74.6286 97.802 75.7746 97.994 76.6986 98.378C77.6346 98.75 78.3306 99.26 78.7866 99.908C79.2546 100.544 79.4886 101.258 79.4886 102.05C79.4886 103.85 78.8586 105.158 77.5986 105.974C76.3506 106.778 74.6766 107.18 72.5766 107.18C70.8126 107.18 69.2586 106.886 67.9146 106.298C66.5826 105.698 65.6166 104.696 65.0166 103.292C65.6766 103.196 66.3966 103.04 67.1766 102.824C67.9686 102.608 68.6826 102.386 69.3186 102.158C69.5706 102.674 69.9246 103.052 70.3806 103.292C70.8366 103.52 71.4486 103.634 72.2166 103.634C73.0326 103.634 73.7046 103.502 74.2326 103.238C74.7726 102.974 75.0426 102.608 75.0426 102.14C75.0426 101.66 74.8086 101.258 74.3406 100.934C73.8726 100.61 73.1586 100.448 72.1986 100.448C71.5746 100.448 71.0046 100.562 70.4886 100.79C69.9726 101.006 69.6006 101.318 69.3726 101.726H65.2146C65.5026 100.49 65.7546 99.158 65.9706 97.73C66.1986 96.302 66.3366 95.036 66.3846 93.932H79.0206V97.424C77.6886 97.34 76.4286 97.292 75.2406 97.28C74.0646 97.256 72.4146 97.244 70.2906 97.244L70.1106 98.252C71.0226 97.952 72.0726 97.802 73.2606 97.802ZM92.2648 100.556C93.0568 100.556 93.7348 100.7 94.2988 100.988C94.8628 101.264 95.2888 101.648 95.5768 102.14C95.8768 102.632 96.0268 103.178 96.0268 103.778C96.0268 104.39 95.8768 104.942 95.5768 105.434C95.2888 105.926 94.8628 106.316 94.2988 106.604C93.7348 106.88 93.0568 107.018 92.2648 107.018C91.4608 107.018 90.7708 106.88 90.1948 106.604C89.6308 106.316 89.1988 105.926 88.8988 105.434C88.6108 104.942 88.4668 104.39 88.4668 103.778C88.4668 103.418 88.5208 103.076 88.6288 102.752L85.4428 107.018H81.2848L86.8828 99.53C86.2108 100.106 85.3108 100.394 84.1828 100.394C83.3788 100.394 82.6888 100.256 82.1128 99.98C81.5488 99.692 81.1168 99.302 80.8168 98.81C80.5288 98.318 80.3848 97.766 80.3848 97.154C80.3848 96.554 80.5288 96.008 80.8168 95.516C81.1168 95.024 81.5488 94.64 82.1128 94.364C82.6888 94.076 83.3788 93.932 84.1828 93.932C84.9748 93.932 85.6528 94.076 86.2168 94.364C86.7808 94.64 87.2068 95.024 87.4948 95.516C87.7948 96.008 87.9448 96.554 87.9448 97.154C87.9448 97.634 87.8548 98.072 87.6748 98.468L90.9688 94.076H95.1088L89.7628 101.24C90.4108 100.784 91.2448 100.556 92.2648 100.556ZM84.1828 98.126C84.4348 98.126 84.6628 98.024 84.8668 97.82C85.0828 97.616 85.1908 97.388 85.1908 97.136C85.1908 96.884 85.0828 96.668 84.8668 96.488C84.6628 96.308 84.4348 96.218 84.1828 96.218C83.9068 96.218 83.6608 96.308 83.4448 96.488C83.2408 96.668 83.1388 96.884 83.1388 97.136C83.1388 97.4 83.2408 97.634 83.4448 97.838C83.6608 98.03 83.9068 98.126 84.1828 98.126ZM92.2648 104.75C92.5168 104.75 92.7448 104.648 92.9488 104.444C93.1648 104.24 93.2728 104.012 93.2728 103.76C93.2728 103.508 93.1648 103.292 92.9488 103.112C92.7448 102.932 92.5168 102.842 92.2648 102.842C91.9888 102.842 91.7428 102.932 91.5268 103.112C91.3228 103.292 91.2208 103.508 91.2208 103.76C91.2208 104.024 91.3228 104.258 91.5268 104.462C91.7428 104.654 91.9888 104.75 92.2648 104.75Z" fill="white"/>
<defs>
<linearGradient id="paint0_linear_886_121" x1="34.3759" y1="53.7367" x2="38.4209" y2="90.0694" gradientUnits="userSpaceOnUse">
<stop stop-color="#FF3156"/>
<stop offset="1" stop-color="#410027"/>
</linearGradient>
</defs>
</svg>
