<svg width="333" height="197" viewBox="0 0 333 197" fill="none" xmlns="http://www.w3.org/2000/svg">
<path d="M154.314 4.17374C161.528 1.48188 169.472 1.48188 176.686 4.17374L310.186 53.9842C322.702 58.6539 331 70.6068 331 83.9653V113.035C331 126.393 322.702 138.346 310.186 143.016L176.686 192.826C169.472 195.518 161.528 195.518 154.314 192.826L20.8137 143.016C8.29807 138.346 0 126.393 0 113.035V83.9653C0 70.6068 8.29806 58.6539 20.8137 53.9842L154.314 4.17374Z" fill="#11232E"/>
<path d="M171.529 110L171.505 99.92L166.561 108.224H164.809L159.889 100.136V110H156.241V93.2H159.457L165.745 103.64L171.937 93.2H175.129L175.177 110H171.529ZM184.107 96.896C186.107 96.896 187.643 97.376 188.715 98.336C189.787 99.28 190.323 100.712 190.323 102.632V110H186.819V108.392C186.115 109.592 184.803 110.192 182.883 110.192C181.891 110.192 181.027 110.024 180.291 109.688C179.571 109.352 179.019 108.888 178.635 108.296C178.251 107.704 178.059 107.032 178.059 106.28C178.059 105.08 178.507 104.136 179.403 103.448C180.315 102.76 181.715 102.416 183.603 102.416H186.579C186.579 101.6 186.331 100.976 185.835 100.544C185.339 100.096 184.595 99.872 183.603 99.872C182.915 99.872 182.235 99.984 181.563 100.208C180.907 100.416 180.347 100.704 179.883 101.072L178.539 98.456C179.243 97.96 180.083 97.576 181.059 97.304C182.051 97.032 183.067 96.896 184.107 96.896ZM183.819 107.672C184.459 107.672 185.027 107.528 185.523 107.24C186.019 106.936 186.371 106.496 186.579 105.92V104.6H184.011C182.475 104.6 181.707 105.104 181.707 106.112C181.707 106.592 181.891 106.976 182.259 107.264C182.643 107.536 183.163 107.672 183.819 107.672ZM197.288 98.792C197.736 98.168 198.336 97.696 199.088 97.376C199.856 97.056 200.736 96.896 201.728 96.896V100.352C201.312 100.32 201.032 100.304 200.888 100.304C199.816 100.304 198.976 100.608 198.368 101.216C197.76 101.808 197.456 102.704 197.456 103.904V110H193.712V97.088H197.288V98.792ZM209.498 104.936L207.698 106.712V110H203.954V92.192H207.698V102.272L213.17 97.088H217.634L212.258 102.56L218.114 110H213.578L209.498 104.936ZM231.883 103.592C231.883 103.64 231.859 103.976 231.811 104.6H222.043C222.219 105.4 222.635 106.032 223.291 106.496C223.947 106.96 224.763 107.192 225.739 107.192C226.411 107.192 227.003 107.096 227.515 106.904C228.043 106.696 228.531 106.376 228.979 105.944L230.971 108.104C229.755 109.496 227.979 110.192 225.643 110.192C224.187 110.192 222.899 109.912 221.779 109.352C220.659 108.776 219.795 107.984 219.187 106.976C218.579 105.968 218.275 104.824 218.275 103.544C218.275 102.28 218.571 101.144 219.163 100.136C219.771 99.112 220.595 98.32 221.635 97.76C222.691 97.184 223.867 96.896 225.163 96.896C226.427 96.896 227.571 97.168 228.595 97.712C229.619 98.256 230.419 99.04 230.995 100.064C231.587 101.072 231.883 102.248 231.883 103.592ZM225.187 99.728C224.339 99.728 223.627 99.968 223.051 100.448C222.475 100.928 222.123 101.584 221.995 102.416H228.355C228.227 101.6 227.875 100.952 227.299 100.472C226.723 99.976 226.019 99.728 225.187 99.728ZM242.704 109.376C242.336 109.648 241.88 109.856 241.336 110C240.808 110.128 240.248 110.192 239.656 110.192C238.12 110.192 236.928 109.8 236.08 109.016C235.248 108.232 234.832 107.08 234.832 105.56V100.256H232.84V97.376H234.832V94.232H238.576V97.376H241.792V100.256H238.576V105.512C238.576 106.056 238.712 106.48 238.984 106.784C239.272 107.072 239.672 107.216 240.184 107.216C240.776 107.216 241.28 107.056 241.696 106.736L242.704 109.376ZM244.805 97.088H248.549V110H244.805V97.088ZM246.677 95.288C245.989 95.288 245.429 95.088 244.997 94.688C244.565 94.288 244.349 93.792 244.349 93.2C244.349 92.608 244.565 92.112 244.997 91.712C245.429 91.312 245.989 91.112 246.677 91.112C247.365 91.112 247.925 91.304 248.357 91.688C248.789 92.072 249.005 92.552 249.005 93.128C249.005 93.752 248.789 94.272 248.357 94.688C247.925 95.088 247.365 95.288 246.677 95.288ZM259.872 96.896C261.472 96.896 262.76 97.376 263.736 98.336C264.728 99.296 265.224 100.72 265.224 102.608V110H261.48V103.184C261.48 102.16 261.256 101.4 260.808 100.904C260.36 100.392 259.712 100.136 258.864 100.136C257.92 100.136 257.168 100.432 256.608 101.024C256.048 101.6 255.768 102.464 255.768 103.616V110H252.024V97.088H255.6V98.6C256.096 98.056 256.712 97.64 257.448 97.352C258.184 97.048 258.992 96.896 259.872 96.896ZM282.079 97.088V107.84C282.079 110.208 281.463 111.968 280.231 113.12C278.999 114.272 277.199 114.848 274.831 114.848C273.583 114.848 272.399 114.696 271.279 114.392C270.159 114.088 269.231 113.648 268.495 113.072L269.983 110.384C270.527 110.832 271.215 111.184 272.047 111.44C272.879 111.712 273.711 111.848 274.543 111.848C275.839 111.848 276.791 111.552 277.399 110.96C278.023 110.384 278.335 109.504 278.335 108.32V107.768C277.359 108.84 275.999 109.376 274.255 109.376C273.071 109.376 271.983 109.12 270.991 108.608C270.015 108.08 269.239 107.344 268.663 106.4C268.087 105.456 267.799 104.368 267.799 103.136C267.799 101.904 268.087 100.816 268.663 99.872C269.239 98.928 270.015 98.2 270.991 97.688C271.983 97.16 273.071 96.896 274.255 96.896C276.127 96.896 277.551 97.512 278.527 98.744V97.088H282.079ZM274.999 106.304C275.991 106.304 276.799 106.016 277.423 105.44C278.063 104.848 278.383 104.08 278.383 103.136C278.383 102.192 278.063 101.432 277.423 100.856C276.799 100.264 275.991 99.968 274.999 99.968C274.007 99.968 273.191 100.264 272.551 100.856C271.911 101.432 271.591 102.192 271.591 103.136C271.591 104.08 271.911 104.848 272.551 105.44C273.191 106.016 274.007 106.304 274.999 106.304Z" fill="white"/>
<circle cx="79.2493" cy="99" r="42" stroke="#162A36" stroke-width="18"/>
<path fill-rule="evenodd" clip-rule="evenodd" d="M39.4445 57.4496C32.2515 64.0276 26.6936 72.364 23.4512 81.7784L55.3285 93.7109C56.5977 89.5406 58.9274 85.8324 62.0037 82.9003L39.4445 57.4496Z" fill="url(#paint0_linear_886_119)"/>
<path d="M64.9751 93.914H78.0071V96.236C75.6551 99.8 73.8371 103.388 72.5531 107H67.6931C69.0011 103.748 70.7231 100.514 72.8591 97.298C69.5351 97.298 66.9071 97.358 64.9751 97.478V93.914ZM90.3073 100.556C91.0993 100.556 91.7773 100.7 92.3413 100.988C92.9053 101.264 93.3313 101.648 93.6193 102.14C93.9193 102.632 94.0693 103.178 94.0693 103.778C94.0693 104.39 93.9193 104.942 93.6193 105.434C93.3313 105.926 92.9053 106.316 92.3413 106.604C91.7773 106.88 91.0993 107.018 90.3073 107.018C89.5033 107.018 88.8133 106.88 88.2373 106.604C87.6733 106.316 87.2413 105.926 86.9413 105.434C86.6533 104.942 86.5093 104.39 86.5093 103.778C86.5093 103.418 86.5633 103.076 86.6713 102.752L83.4853 107.018H79.3273L84.9253 99.53C84.2533 100.106 83.3533 100.394 82.2253 100.394C81.4213 100.394 80.7313 100.256 80.1553 99.98C79.5913 99.692 79.1593 99.302 78.8593 98.81C78.5713 98.318 78.4273 97.766 78.4273 97.154C78.4273 96.554 78.5713 96.008 78.8593 95.516C79.1593 95.024 79.5913 94.64 80.1553 94.364C80.7313 94.076 81.4213 93.932 82.2253 93.932C83.0173 93.932 83.6953 94.076 84.2593 94.364C84.8233 94.64 85.2493 95.024 85.5373 95.516C85.8373 96.008 85.9873 96.554 85.9873 97.154C85.9873 97.634 85.8973 98.072 85.7173 98.468L89.0113 94.076H93.1513L87.8053 101.24C88.4533 100.784 89.2873 100.556 90.3073 100.556ZM82.2253 98.126C82.4773 98.126 82.7053 98.024 82.9093 97.82C83.1253 97.616 83.2333 97.388 83.2333 97.136C83.2333 96.884 83.1253 96.668 82.9093 96.488C82.7053 96.308 82.4773 96.218 82.2253 96.218C81.9493 96.218 81.7033 96.308 81.4873 96.488C81.2833 96.668 81.1813 96.884 81.1813 97.136C81.1813 97.4 81.2833 97.634 81.4873 97.838C81.7033 98.03 81.9493 98.126 82.2253 98.126ZM90.3073 104.75C90.5593 104.75 90.7873 104.648 90.9913 104.444C91.2073 104.24 91.3153 104.012 91.3153 103.76C91.3153 103.508 91.2073 103.292 90.9913 103.112C90.7873 102.932 90.5593 102.842 90.3073 102.842C90.0313 102.842 89.7853 102.932 89.5693 103.112C89.3653 103.292 89.2633 103.508 89.2633 103.76C89.2633 104.024 89.3653 104.258 89.5693 104.462C89.7853 104.654 90.0313 104.75 90.3073 104.75Z" fill="white"/>
<defs>
<linearGradient id="paint0_linear_886_119" x1="23.347" y1="62.5061" x2="26.7586" y2="98.0475" gradientUnits="userSpaceOnUse">
<stop stop-color="#FFD231"/>
<stop offset="1" stop-color="#974800"/>
</linearGradient>
</defs>
</svg>
