<svg width="30" height="29" viewBox="0 0 30 29" fill="none" xmlns="http://www.w3.org/2000/svg">
<path fill-rule="evenodd" clip-rule="evenodd" d="M9.32007 19.0254C2.99394 18.2932 0 16.4213 0 15.3441C0 6.86978 6.71564 0 15 0C23.2844 0 30 6.86978 30 15.3441C30 16.2902 27.0051 18.2393 20.6769 19.0087L21.1374 21.5312C21.8461 25.4161 18.9011 29 15 29C11.0989 29 8.15385 25.4161 8.86264 21.5312L9.32007 19.0254ZM20.3041 16.9653L19.6023 13.119C19.6023 13.119 18.5795 11.7381 15 11.7381C11.4205 11.7381 10.3977 13.119 10.3977 13.119L9.6946 16.9723C4.32562 16.3415 2.04545 14.8647 2.04545 14.4617C2.04545 11.2415 7.84524 8.63095 15 8.63095C22.1548 8.63095 27.9545 11.2415 27.9545 14.4617C27.9545 14.8157 25.6737 16.3201 20.3041 16.9653Z" fill="#63A3C9"/>
</svg>
