<svg width="27" height="15" viewBox="0 0 27 15" fill="none" xmlns="http://www.w3.org/2000/svg">
<path fill-rule="evenodd" clip-rule="evenodd" d="M7.1879 14.3758C11.1577 14.3758 14.3758 11.1577 14.3758 7.1879C14.3758 3.21813 11.1577 0 7.1879 0C3.21813 0 0 3.21813 0 7.1879C0 11.1577 3.21813 14.3758 7.1879 14.3758ZM19.1674 13.7767C21.1522 13.7767 22.7613 10.8268 22.7613 7.18782C22.7613 3.54887 21.1522 0.598914 19.1674 0.598914C17.1825 0.598914 15.5734 3.54887 15.5734 7.18782C15.5734 10.8268 17.1825 13.7767 19.1674 13.7767ZM26.3553 7.18816C26.3553 10.4963 25.819 13.1781 25.1573 13.1781C24.4957 13.1781 23.9594 10.4963 23.9594 7.18816C23.9594 3.88002 24.4957 1.19824 25.1573 1.19824C25.819 1.19824 26.3553 3.88002 26.3553 7.18816Z" fill="white"/>
</svg>
