<svg width="25" height="14" viewBox="0 0 25 14" fill="none" xmlns="http://www.w3.org/2000/svg">
<path fill-rule="evenodd" clip-rule="evenodd" d="M7.4916 13.2801C11.1178 13.2801 14.0574 10.3405 14.0574 6.71426C14.0574 3.08806 11.1178 0.148438 7.4916 0.148438C3.8654 0.148438 0.925781 3.08806 0.925781 6.71426C0.925781 10.3405 3.8654 13.2801 7.4916 13.2801ZM18.4342 12.7326C20.2473 12.7326 21.7171 10.038 21.7171 6.71395C21.7171 3.38993 20.2473 0.695284 18.4342 0.695284C16.6211 0.695284 15.1513 3.38993 15.1513 6.71395C15.1513 10.038 16.6211 12.7326 18.4342 12.7326ZM25 6.71459C25 9.73643 24.51 12.1861 23.9057 12.1861C23.3013 12.1861 22.8114 9.73643 22.8114 6.71459C22.8114 3.69275 23.3013 1.24307 23.9057 1.24307C24.51 1.24307 25 3.69275 25 6.71459Z" fill="#C9A061"/>
</svg>
