<svg width="30" height="33" viewBox="0 0 30 33" fill="none" xmlns="http://www.w3.org/2000/svg">
<path d="M15.8355 6.77992C16.8036 6.92847 17.2489 7.196 17.846 7.94065L6.29307 32.0879L5.71388 31.999C4.68736 31.8415 1.71618 30.1261 1.06646 29.3158L0.699894 28.8587L15.8355 6.77992Z" fill="#63A3C9"/>
<path d="M15.3477 3.4879C15.3477 3.4879 16.2351 3.24262 18.4724 4.53431C20.7097 5.826 20.9409 6.71712 20.9409 6.71712L17.4452 12.772C17.4452 12.772 16.5578 13.0172 14.3205 11.7255C12.0833 10.4339 11.852 9.54274 11.852 9.54274L15.3477 3.4879Z" fill="#63A3C9"/>
<path d="M13.1552 3.59512L10.8487 7.59025C8.03807 5.96756 4.27812 3.79675 0 2.39215C4.73546 -0.200673 8.90747 1.14267 13.1552 3.59512Z" fill="#63A3C9"/>
<path d="M19.638 12.6647L21.9445 8.66962C26.1923 11.1221 29.4417 14.0635 29.564 19.4609C26.2085 16.4582 22.4485 14.2874 19.638 12.6647Z" fill="#63A3C9"/>
</svg>
