<svg width="30" height="34" viewBox="0 0 30 34" fill="none" xmlns="http://www.w3.org/2000/svg">
<path fill-rule="evenodd" clip-rule="evenodd" d="M16.2001 0.368826C15.1755 -0.129243 13.9989 -0.116644 13 0.368959V23.9998C13.9989 24.4854 15.1755 24.4979 16.2001 23.9999V13.3688L29.923 7.36885L16.2001 0.368826ZM2.24885 18.7873L10 16.7827V25.0312C10 25.77 10.4016 26.465 11.091 26.7306C13.2792 27.5736 15.6818 27.5899 17.9091 26.7309C18.5984 26.4651 19 25.7701 19 25.0312V16.7827L26.7512 18.7873C28.0751 19.1297 29 20.3242 29 21.6918V27.0461C29 28.4136 28.0751 29.6081 26.7512 29.9505L15.2512 32.9247C14.7585 33.0521 14.2415 33.0521 13.7489 32.9247L2.24885 29.9505C0.92486 29.6081 0 28.4136 0 27.0461V21.6918C0 20.3242 0.92486 19.1297 2.24885 18.7873Z" fill="#63A3C9"/>
</svg>
