<svg width="28" height="28" viewBox="0 0 28 28" fill="none" xmlns="http://www.w3.org/2000/svg">
<path d="M14.3359 7.78061C15.3654 7.78061 16.3135 7.9512 17.1804 8.29237C18.0581 8.63354 18.7516 9.10799 19.2609 9.7157C19.7702 10.3234 20.0249 11.0217 20.0249 11.8107C20.0249 12.4504 19.8678 12.9995 19.5535 13.4579C19.2393 13.9164 18.8383 14.2895 18.3507 14.5774L17.4892 15.0572C17.0233 15.3131 16.7144 15.489 16.5627 15.5849C16.3135 15.7342 16.1401 15.8994 16.0426 16.0807C15.9451 16.2619 15.8963 16.4752 15.8963 16.7204H12.1741C12.1741 15.9101 12.3692 15.2331 12.7593 14.6893C13.1494 14.1349 13.805 13.6552 14.726 13.25C15.1378 13.0688 15.4358 12.8715 15.62 12.6583C15.8151 12.4344 15.9126 12.1839 15.9126 11.9067C15.9126 11.5975 15.7609 11.3309 15.4575 11.107C15.1649 10.8831 14.791 10.7712 14.3359 10.7712C13.7183 10.7712 13.2361 10.9205 12.8893 11.219C12.5534 11.5175 12.3854 11.9386 12.3854 12.4824C12.3854 12.6956 12.4179 12.9408 12.4829 13.218C11.6161 12.9728 10.3211 12.8502 8.5982 12.8502C8.58737 12.7543 8.58195 12.621 8.58195 12.4504C8.58195 11.5548 8.82034 10.7552 9.29713 10.0515C9.78476 9.33721 10.462 8.78281 11.3289 8.38833C12.2066 7.98318 13.209 7.78061 14.3359 7.78061ZM15.9126 20.7665H12.1416V17.9198H15.9126V20.7665Z" fill="#63A3C9"/>
<path fill-rule="evenodd" clip-rule="evenodd" d="M10.72 0.724282C12.7965 -0.241426 15.2035 -0.241428 17.28 0.724281L20.9816 2.4457L24.2537 4.5308C26.2779 5.8207 27.5683 7.97166 27.7378 10.3386L28 14L27.7378 17.6614C27.5683 20.0283 26.2779 22.1793 24.2537 23.4692L20.9816 25.5543L17.28 27.2757C15.2035 28.2414 12.7965 28.2414 10.72 27.2757L7.01844 25.5543L3.74631 23.4692C1.72209 22.1793 0.431743 20.0283 0.262223 17.6614L0 14L0.262223 10.3386C0.431743 7.97166 1.72209 5.8207 3.74631 4.5308L7.01844 2.4457L10.72 0.724282ZM16.1224 3.13406C14.7787 2.50919 13.2213 2.50919 11.8776 3.13406L8.33944 4.77951L5.21896 6.76798C3.90917 7.60262 3.07424 8.99442 2.96455 10.526L2.71574 14L2.96455 17.474C3.07424 19.0056 3.90917 20.3974 5.21896 21.232L8.33944 23.2205L11.8776 24.8659C13.2213 25.4908 14.7787 25.4908 16.1224 24.8659L19.6606 23.2205L22.781 21.232C24.0908 20.3974 24.9258 19.0056 25.0355 17.474L25.2843 14L25.0355 10.526C24.9258 8.99442 24.0908 7.60262 22.781 6.76798L19.6606 4.77951L16.1224 3.13406Z" fill="#63A3C9"/>
</svg>
