<svg width="331" height="197" viewBox="0 0 331 197" fill="none" xmlns="http://www.w3.org/2000/svg">
<path d="M154.314 4.17374C161.528 1.48188 169.472 1.48188 176.686 4.17374L310.186 53.9842C322.702 58.6539 331 70.6068 331 83.9653V113.035C331 126.393 322.702 138.346 310.186 143.016L176.686 192.826C169.472 195.518 161.528 195.518 154.314 192.826L20.8137 143.016C8.29807 138.346 0 126.393 0 113.035V83.9653C0 70.6068 8.29806 58.6539 20.8137 53.9842L154.314 4.17374Z" fill="#11232E"/>
<path d="M168.696 93.0001L165.456 88.3201H165.264H161.88V93.0001H157.992V76.2001H165.264C166.752 76.2001 168.04 76.4481 169.128 76.9441C170.232 77.4401 171.08 78.1441 171.672 79.0561C172.264 79.9681 172.56 81.0481 172.56 82.2961C172.56 83.5441 172.256 84.6241 171.648 85.5361C171.056 86.4321 170.208 87.1201 169.104 87.6001L172.872 93.0001H168.696ZM168.624 82.2961C168.624 81.3521 168.32 80.6321 167.712 80.1361C167.104 79.6241 166.216 79.3681 165.048 79.3681H161.88V85.2241H165.048C166.216 85.2241 167.104 84.9681 167.712 84.4561C168.32 83.9441 168.624 83.2241 168.624 82.2961ZM188.025 86.5921C188.025 86.6401 188.001 86.9761 187.953 87.6001H178.185C178.361 88.4001 178.777 89.0321 179.433 89.4961C180.089 89.9601 180.905 90.1921 181.881 90.1921C182.553 90.1921 183.145 90.0961 183.657 89.9041C184.185 89.6961 184.673 89.3761 185.121 88.9441L187.113 91.1041C185.897 92.4961 184.121 93.1921 181.785 93.1921C180.329 93.1921 179.041 92.9121 177.921 92.3521C176.801 91.7761 175.937 90.9841 175.329 89.9761C174.721 88.9681 174.417 87.8241 174.417 86.5441C174.417 85.2801 174.713 84.1441 175.305 83.1361C175.913 82.1121 176.737 81.3201 177.777 80.7601C178.833 80.1841 180.009 79.8961 181.305 79.8961C182.569 79.8961 183.713 80.1681 184.737 80.7121C185.761 81.2561 186.561 82.0401 187.137 83.0641C187.729 84.0721 188.025 85.2481 188.025 86.5921ZM181.329 82.7281C180.481 82.7281 179.769 82.9681 179.193 83.4481C178.617 83.9281 178.265 84.5841 178.137 85.4161H184.497C184.369 84.6001 184.017 83.9521 183.441 83.4721C182.865 82.9761 182.161 82.7281 181.329 82.7281ZM194.861 93.1921C193.789 93.1921 192.741 93.0641 191.717 92.8081C190.693 92.5361 189.877 92.2001 189.269 91.8001L190.517 89.1121C191.093 89.4801 191.789 89.7841 192.605 90.0241C193.421 90.2481 194.221 90.3601 195.005 90.3601C196.589 90.3601 197.381 89.9681 197.381 89.1841C197.381 88.8161 197.165 88.5521 196.733 88.3921C196.301 88.2321 195.637 88.0961 194.741 87.9841C193.685 87.8241 192.813 87.6401 192.125 87.4321C191.437 87.2241 190.837 86.8561 190.325 86.3281C189.829 85.8001 189.581 85.0481 189.581 84.0721C189.581 83.2561 189.813 82.5361 190.277 81.9121C190.757 81.2721 191.445 80.7761 192.341 80.4241C193.253 80.0721 194.325 79.8961 195.557 79.8961C196.469 79.8961 197.373 80.0001 198.269 80.2081C199.181 80.4001 199.933 80.6721 200.525 81.0241L199.277 83.6881C198.141 83.0481 196.901 82.7281 195.557 82.7281C194.757 82.7281 194.157 82.8401 193.757 83.0641C193.357 83.2881 193.157 83.5761 193.157 83.9281C193.157 84.3281 193.373 84.6081 193.805 84.7681C194.237 84.9281 194.925 85.0801 195.869 85.2241C196.925 85.4001 197.789 85.5921 198.461 85.8001C199.133 85.9921 199.717 86.3521 200.213 86.8801C200.709 87.4081 200.957 88.1441 200.957 89.0881C200.957 89.8881 200.717 90.6001 200.237 91.2241C199.757 91.8481 199.053 92.3361 198.125 92.6881C197.213 93.0241 196.125 93.1921 194.861 93.1921ZM215.915 86.5921C215.915 86.6401 215.891 86.9761 215.843 87.6001H206.075C206.251 88.4001 206.667 89.0321 207.323 89.4961C207.979 89.9601 208.795 90.1921 209.771 90.1921C210.443 90.1921 211.035 90.0961 211.547 89.9041C212.075 89.6961 212.563 89.3761 213.011 88.9441L215.003 91.1041C213.787 92.4961 212.011 93.1921 209.675 93.1921C208.219 93.1921 206.931 92.9121 205.811 92.3521C204.691 91.7761 203.827 90.9841 203.219 89.9761C202.611 88.9681 202.307 87.8241 202.307 86.5441C202.307 85.2801 202.603 84.1441 203.195 83.1361C203.803 82.1121 204.627 81.3201 205.667 80.7601C206.723 80.1841 207.899 79.8961 209.195 79.8961C210.459 79.8961 211.603 80.1681 212.627 80.7121C213.651 81.2561 214.451 82.0401 215.027 83.0641C215.619 84.0721 215.915 85.2481 215.915 86.5921ZM209.219 82.7281C208.371 82.7281 207.659 82.9681 207.083 83.4481C206.507 83.9281 206.155 84.5841 206.027 85.4161H212.387C212.259 84.6001 211.907 83.9521 211.331 83.4721C210.755 82.9761 210.051 82.7281 209.219 82.7281ZM221.984 81.7921C222.432 81.1681 223.032 80.6961 223.784 80.3761C224.552 80.0561 225.432 79.8961 226.424 79.8961V83.3521C226.008 83.3201 225.728 83.3041 225.584 83.3041C224.512 83.3041 223.672 83.6081 223.064 84.2161C222.456 84.8081 222.152 85.7041 222.152 86.9041V93.0001H218.408V80.0881H221.984V81.7921ZM241.911 80.0881L236.463 93.0001H232.599L227.175 80.0881H231.039L234.615 88.8721L238.311 80.0881H241.911ZM255.736 86.5921C255.736 86.6401 255.712 86.9761 255.664 87.6001H245.896C246.072 88.4001 246.488 89.0321 247.144 89.4961C247.8 89.9601 248.616 90.1921 249.592 90.1921C250.264 90.1921 250.856 90.0961 251.368 89.9041C251.896 89.6961 252.384 89.3761 252.832 88.9441L254.824 91.1041C253.608 92.4961 251.832 93.1921 249.496 93.1921C248.04 93.1921 246.752 92.9121 245.632 92.3521C244.512 91.7761 243.648 90.9841 243.04 89.9761C242.432 88.9681 242.128 87.8241 242.128 86.5441C242.128 85.2801 242.424 84.1441 243.016 83.1361C243.624 82.1121 244.448 81.3201 245.488 80.7601C246.544 80.1841 247.72 79.8961 249.016 79.8961C250.28 79.8961 251.424 80.1681 252.448 80.7121C253.472 81.2561 254.272 82.0401 254.848 83.0641C255.44 84.0721 255.736 85.2481 255.736 86.5921ZM249.04 82.7281C248.192 82.7281 247.48 82.9681 246.904 83.4481C246.328 83.9281 245.976 84.5841 245.848 85.4161H252.208C252.08 84.6001 251.728 83.9521 251.152 83.4721C250.576 82.9761 249.872 82.7281 249.04 82.7281ZM161.832 109.376H165.144V112.256H161.928V122H158.184V112.256H156.192V109.376H158.184V108.8C158.184 107.328 158.616 106.16 159.48 105.296C160.36 104.432 161.592 104 163.176 104C163.736 104 164.264 104.064 164.76 104.192C165.272 104.304 165.696 104.472 166.032 104.696L165.048 107.408C164.616 107.104 164.112 106.952 163.536 106.952C162.4 106.952 161.832 107.576 161.832 108.824V109.376ZM180.017 109.088V122H176.465V120.464C175.969 121.024 175.377 121.456 174.689 121.76C174.001 122.048 173.257 122.192 172.457 122.192C170.761 122.192 169.417 121.704 168.425 120.728C167.433 119.752 166.937 118.304 166.937 116.384V109.088H170.681V115.832C170.681 117.912 171.553 118.952 173.297 118.952C174.193 118.952 174.913 118.664 175.457 118.088C176.001 117.496 176.273 116.624 176.273 115.472V109.088H180.017ZM191.334 108.896C192.934 108.896 194.222 109.376 195.198 110.336C196.19 111.296 196.686 112.72 196.686 114.608V122H192.942V115.184C192.942 114.16 192.718 113.4 192.27 112.904C191.822 112.392 191.174 112.136 190.326 112.136C189.382 112.136 188.63 112.432 188.07 113.024C187.51 113.6 187.23 114.464 187.23 115.616V122H183.486V109.088H187.062V110.6C187.558 110.056 188.174 109.64 188.91 109.352C189.646 109.048 190.454 108.896 191.334 108.896ZM213.372 104.192V122H209.796V120.512C208.868 121.632 207.524 122.192 205.764 122.192C204.548 122.192 203.444 121.92 202.452 121.376C201.476 120.832 200.708 120.056 200.148 119.048C199.588 118.04 199.308 116.872 199.308 115.544C199.308 114.216 199.588 113.048 200.148 112.04C200.708 111.032 201.476 110.256 202.452 109.712C203.444 109.168 204.548 108.896 205.764 108.896C207.412 108.896 208.7 109.416 209.628 110.456V104.192H213.372ZM206.412 119.12C207.356 119.12 208.14 118.8 208.764 118.16C209.388 117.504 209.7 116.632 209.7 115.544C209.7 114.456 209.388 113.592 208.764 112.952C208.14 112.296 207.356 111.968 206.412 111.968C205.452 111.968 204.66 112.296 204.036 112.952C203.412 113.592 203.1 114.456 203.1 115.544C203.1 116.632 203.412 117.504 204.036 118.16C204.66 118.8 205.452 119.12 206.412 119.12Z" fill="white"/>
<circle cx="81" cy="99" r="42" stroke="#162A36" stroke-width="18"/>
<path fill-rule="evenodd" clip-rule="evenodd" d="M57.0607 94.1112C56.4536 96.2689 56.1289 98.5447 56.1289 100.896C56.1289 103.657 56.5764 106.313 57.4027 108.796L24.3862 117.115C22.916 111.962 22.1289 106.521 22.1289 100.896C22.1289 94.5925 23.1176 88.5194 24.9483 82.8239L57.0607 94.1112Z" fill="url(#paint0_linear_886_120)"/>
<path d="M68.0996 103.67C69.1796 103.646 69.9776 103.622 70.4936 103.598V107H60.9716V103.598C62.2676 103.646 63.2456 103.67 63.9056 103.67V97.46C63.4736 98.408 62.5916 99.02 61.2596 99.296C61.2236 97.88 61.0916 96.59 60.8636 95.426C61.8236 95.294 62.4896 95.132 62.8616 94.94C63.2456 94.736 63.5396 94.514 63.7436 94.274C63.9596 94.034 64.1036 93.872 64.1756 93.788V93.752H68.0996V103.67ZM80.7689 100.376C81.2009 100.292 81.6269 100.25 82.0469 100.25C82.7789 100.25 83.3729 100.376 83.8289 100.628C84.2969 100.868 84.6329 101.18 84.8369 101.564C85.0409 101.936 85.1429 102.326 85.1429 102.734C85.1429 103.682 84.8309 104.492 84.2069 105.164C83.5829 105.824 82.7369 106.328 81.6689 106.676C80.6009 107.012 79.4129 107.18 78.1049 107.18C74.3129 107.18 71.8589 105.86 70.7429 103.22L71.7509 102.968C72.4949 102.788 73.1249 102.62 73.6409 102.464C74.1689 102.296 74.6309 102.11 75.0269 101.906C75.2669 102.506 75.6089 102.938 76.0529 103.202C76.5089 103.454 77.1329 103.58 77.9249 103.58C78.7649 103.58 79.4489 103.484 79.9769 103.292C80.5049 103.1 80.7689 102.812 80.7689 102.428C80.7689 102.224 80.6669 102.068 80.4629 101.96C80.2589 101.852 79.9349 101.78 79.4909 101.744C79.0469 101.696 78.4229 101.672 77.6189 101.672H76.2509V98.522H77.0789C77.9909 98.522 78.7349 98.486 79.3109 98.414C79.8869 98.33 80.1749 98.156 80.1749 97.892C80.1749 97.592 80.0189 97.352 79.7069 97.172C79.4069 96.98 78.9329 96.884 78.2849 96.884C77.4449 96.884 76.7609 97.058 76.2329 97.406C75.7169 97.754 75.3149 98.258 75.0269 98.918C73.7429 98.402 72.3749 98.036 70.9229 97.82C71.4989 96.524 72.3809 95.522 73.5689 94.814C74.7689 94.106 76.3109 93.752 78.1949 93.752C79.4189 93.752 80.5169 93.914 81.4889 94.238C82.4729 94.55 83.2409 94.988 83.7929 95.552C84.3569 96.116 84.6389 96.746 84.6389 97.442C84.6389 97.85 84.5429 98.216 84.3509 98.54C84.1589 98.852 83.7809 99.164 83.2169 99.476C82.6529 99.776 81.8369 100.076 80.7689 100.376ZM97.9204 100.556C98.7124 100.556 99.3904 100.7 99.9544 100.988C100.518 101.264 100.944 101.648 101.232 102.14C101.532 102.632 101.682 103.178 101.682 103.778C101.682 104.39 101.532 104.942 101.232 105.434C100.944 105.926 100.518 106.316 99.9544 106.604C99.3904 106.88 98.7124 107.018 97.9204 107.018C97.1164 107.018 96.4264 106.88 95.8504 106.604C95.2864 106.316 94.8544 105.926 94.5544 105.434C94.2664 104.942 94.1224 104.39 94.1224 103.778C94.1224 103.418 94.1764 103.076 94.2844 102.752L91.0984 107.018H86.9404L92.5384 99.53C91.8664 100.106 90.9664 100.394 89.8384 100.394C89.0344 100.394 88.3444 100.256 87.7684 99.98C87.2044 99.692 86.7724 99.302 86.4724 98.81C86.1844 98.318 86.0404 97.766 86.0404 97.154C86.0404 96.554 86.1844 96.008 86.4724 95.516C86.7724 95.024 87.2044 94.64 87.7684 94.364C88.3444 94.076 89.0344 93.932 89.8384 93.932C90.6304 93.932 91.3084 94.076 91.8724 94.364C92.4364 94.64 92.8624 95.024 93.1504 95.516C93.4504 96.008 93.6004 96.554 93.6004 97.154C93.6004 97.634 93.5104 98.072 93.3304 98.468L96.6244 94.076H100.764L95.4184 101.24C96.0664 100.784 96.9004 100.556 97.9204 100.556ZM89.8384 98.126C90.0904 98.126 90.3184 98.024 90.5224 97.82C90.7384 97.616 90.8464 97.388 90.8464 97.136C90.8464 96.884 90.7384 96.668 90.5224 96.488C90.3184 96.308 90.0904 96.218 89.8384 96.218C89.5624 96.218 89.3164 96.308 89.1004 96.488C88.8964 96.668 88.7944 96.884 88.7944 97.136C88.7944 97.4 88.8964 97.634 89.1004 97.838C89.3164 98.03 89.5624 98.126 89.8384 98.126ZM97.9204 104.75C98.1724 104.75 98.4004 104.648 98.6044 104.444C98.8204 104.24 98.9284 104.012 98.9284 103.76C98.9284 103.508 98.8204 103.292 98.6044 103.112C98.4004 102.932 98.1724 102.842 97.9204 102.842C97.6444 102.842 97.3984 102.932 97.1824 103.112C96.9784 103.292 96.8764 103.508 96.8764 103.76C96.8764 104.024 96.9784 104.258 97.1824 104.462C97.3984 104.654 97.6444 104.75 97.9204 104.75Z" fill="white"/>
<defs>
<linearGradient id="paint0_linear_886_120" x1="22.0336" y1="87.6057" x2="25.3661" y2="121.195" gradientUnits="userSpaceOnUse">
<stop stop-color="#31FFF3"/>
<stop offset="1" stop-color="#002B5F"/>
</linearGradient>
</defs>
</svg>
