<svg width="219" height="509" viewBox="0 0 219 509" fill="none" xmlns="http://www.w3.org/2000/svg">
<path d="M193.291 501.034C191.863 498.56 191.863 495.513 193.291 493.039L195.562 489.102C196.991 486.626 199.632 485.1 202.491 485.1L207.023 485.1C209.882 485.1 212.524 486.626 213.953 489.102L216.224 493.039C217.651 495.513 217.651 498.56 216.224 501.034L213.953 504.971C212.524 507.447 209.882 508.973 207.023 508.973L202.491 508.973C199.632 508.973 196.991 507.447 195.562 504.971L193.291 501.034Z" fill="#0C1F2B"/>
<path d="M145.545 501.034C144.117 498.56 144.117 495.513 145.545 493.039L147.816 489.102C149.244 486.626 151.886 485.1 154.745 485.1L159.277 485.1C162.136 485.1 164.778 486.626 166.207 489.102L168.478 493.039C169.905 495.513 169.905 498.56 168.478 501.034L166.207 504.971C164.778 507.447 162.136 508.973 159.277 508.973L154.745 508.973C151.886 508.973 149.244 507.447 147.816 504.971L145.545 501.034Z" fill="#0C1F2B"/>
<path d="M97.7986 501.034C96.3712 498.56 96.3712 495.513 97.7986 493.039L100.07 489.102C101.498 486.626 104.14 485.1 106.999 485.1L111.531 485.1C114.39 485.1 117.032 486.626 118.461 489.102L120.732 493.039C122.159 495.513 122.159 498.56 120.732 501.034L118.461 504.971C117.032 507.447 114.39 508.973 111.531 508.973L106.999 508.973C104.14 508.973 101.498 507.447 100.07 504.971L97.7986 501.034Z" fill="#0C1F2B"/>
<path d="M169.418 486.955C167.99 484.481 167.99 481.434 169.418 478.96L171.689 475.023C173.118 472.547 175.759 471.021 178.618 471.021L183.15 471.021C186.009 471.021 188.651 472.547 190.08 475.023L192.351 478.96C193.778 481.434 193.778 484.481 192.351 486.955L190.08 490.892C188.651 493.368 186.009 494.894 183.15 494.894L178.618 494.894C175.759 494.894 173.118 493.368 171.689 490.892L169.418 486.955Z" fill="#0C1F2B"/>
<path d="M193.291 417.785C191.863 415.311 191.863 412.263 193.291 409.789L195.562 405.853C196.991 403.376 199.632 401.85 202.491 401.85L207.023 401.85C209.882 401.85 212.524 403.376 213.953 405.853L216.224 409.789C217.651 412.263 217.651 415.311 216.224 417.785L213.953 421.721C212.524 424.198 209.882 425.723 207.023 425.723L202.491 425.723C199.632 425.723 196.991 424.198 195.562 421.721L193.291 417.785Z" fill="#0C1F2B"/>
<path d="M145.545 417.785C144.117 415.311 144.117 412.263 145.545 409.789L147.816 405.853C149.244 403.376 151.886 401.85 154.745 401.85L159.277 401.85C162.136 401.85 164.778 403.376 166.207 405.853L168.478 409.789C169.905 412.263 169.905 415.311 168.478 417.785L166.207 421.721C164.778 424.198 162.136 425.723 159.277 425.723L154.745 425.723C151.886 425.723 149.244 424.198 147.816 421.721L145.545 417.785Z" fill="#0C1F2B"/>
<path d="M169.418 403.706C167.99 401.232 167.99 398.184 169.418 395.71L171.689 391.774C173.118 389.297 175.759 387.771 178.618 387.771L183.15 387.771C186.009 387.771 188.651 389.297 190.08 391.774L192.351 395.71C193.778 398.184 193.778 401.232 192.351 403.706L190.08 407.642C188.651 410.119 186.009 411.644 183.15 411.644L178.618 411.644C175.759 411.644 173.118 410.119 171.689 407.642L169.418 403.706Z" fill="#0C1F2B"/>
<path d="M193.291 334.535C191.863 332.061 191.863 329.014 193.291 326.54L195.562 322.603C196.991 320.127 199.632 318.601 202.491 318.601L207.023 318.601C209.882 318.601 212.524 320.127 213.953 322.603L216.224 326.54C217.651 329.014 217.651 332.061 216.224 334.535L213.953 338.472C212.524 340.948 209.882 342.474 207.023 342.474L202.491 342.474C199.632 342.474 196.991 340.948 195.562 338.472L193.291 334.535Z" fill="#0C1F2B"/>
<path d="M145.545 334.535C144.117 332.061 144.117 329.014 145.545 326.54L147.816 322.603C149.244 320.127 151.886 318.601 154.745 318.601L159.277 318.601C162.136 318.601 164.778 320.127 166.207 322.603L168.478 326.54C169.905 329.014 169.905 332.061 168.478 334.535L166.207 338.472C164.778 340.948 162.136 342.474 159.277 342.474L154.745 342.474C151.886 342.474 149.244 340.948 147.816 338.472L145.545 334.535Z" fill="#0C1F2B"/>
<path d="M169.418 320.456C167.99 317.982 167.99 314.935 169.418 312.461L171.689 308.524C173.118 306.048 175.759 304.522 178.618 304.522L183.15 304.522C186.009 304.522 188.651 306.048 190.08 308.524L192.351 312.461C193.778 314.935 193.778 317.982 192.351 320.456L190.08 324.393C188.651 326.869 186.009 328.395 183.15 328.395L178.618 328.395C175.759 328.395 173.118 326.869 171.689 324.393L169.418 320.456Z" fill="#173344"/>
<path d="M121.671 320.456C120.244 317.982 120.244 314.935 121.671 312.461L123.942 308.524C125.371 306.048 128.013 304.522 130.872 304.522L135.404 304.522C138.263 304.522 140.905 306.048 142.333 308.524L144.604 312.461C146.032 314.935 146.032 317.982 144.604 320.456L142.333 324.393C140.905 326.869 138.263 328.395 135.404 328.395L130.872 328.395C128.013 328.395 125.371 326.869 123.942 324.393L121.671 320.456Z" fill="#0C1F2B"/>
<path d="M193.291 473.488C191.863 471.014 191.863 467.967 193.291 465.493L195.562 461.556C196.991 459.08 199.632 457.554 202.491 457.554L207.023 457.554C209.882 457.554 212.524 459.08 213.953 461.556L216.224 465.493C217.651 467.967 217.651 471.014 216.224 473.488L213.953 477.425C212.524 479.901 209.882 481.427 207.023 481.427L202.491 481.427C199.632 481.427 196.991 479.901 195.562 477.425L193.291 473.488Z" fill="#0C1F2B"/>
<path d="M169.418 459.409C167.99 456.935 167.99 453.888 169.418 451.414L171.689 447.477C173.118 445.001 175.759 443.475 178.618 443.475L183.15 443.475C186.009 443.475 188.651 445.001 190.08 447.477L192.351 451.414C193.778 453.888 193.778 456.935 192.351 459.409L190.08 463.346C188.651 465.822 186.009 467.348 183.15 467.348L178.618 467.348C175.759 467.348 173.118 465.822 171.689 463.346L169.418 459.409Z" fill="#0C1F2B"/>
<path d="M121.671 459.409C120.244 456.935 120.244 453.888 121.671 451.414L123.942 447.477C125.371 445.001 128.013 443.475 130.872 443.475L135.404 443.475C138.263 443.475 140.905 445.001 142.333 447.477L144.604 451.414C146.032 453.888 146.032 456.935 144.604 459.409L142.333 463.346C140.905 465.822 138.263 467.348 135.404 467.348L130.872 467.348C128.013 467.348 125.371 465.822 123.942 463.346L121.671 459.409Z" fill="#0C1F2B"/>
<path d="M26.1795 459.409C24.7521 456.935 24.7521 453.888 26.1795 451.414L28.4505 447.477C29.8792 445.001 32.521 443.475 35.38 443.475L39.9119 443.475C42.7709 443.475 45.4126 445.001 46.8414 447.477L49.1124 451.414C50.5398 453.888 50.5398 456.935 49.1124 459.409L46.8414 463.346C45.4126 465.822 42.7709 467.348 39.9119 467.348L35.38 467.348C32.521 467.348 29.8792 465.822 28.4505 463.346L26.1795 459.409Z" fill="#0C1F2B"/>
<path d="M193.291 390.239C191.863 387.765 191.863 384.717 193.291 382.243L195.562 378.307C196.991 375.83 199.632 374.305 202.491 374.305L207.023 374.305C209.882 374.305 212.524 375.83 213.953 378.307L216.224 382.243C217.651 384.717 217.651 387.765 216.224 390.239L213.953 394.175C212.524 396.652 209.882 398.178 207.023 398.178L202.491 398.178C199.632 398.178 196.991 396.652 195.562 394.175L193.291 390.239Z" fill="#0C1F2B"/>
<path d="M145.545 390.239C144.117 387.765 144.117 384.717 145.545 382.243L147.816 378.307C149.244 375.83 151.886 374.305 154.745 374.305L159.277 374.305C162.136 374.305 164.778 375.83 166.207 378.307L168.478 382.243C169.905 384.717 169.905 387.765 168.478 390.239L166.207 394.175C164.778 396.652 162.136 398.178 159.277 398.178L154.745 398.178C151.886 398.178 149.244 396.652 147.816 394.175L145.545 390.239Z" fill="#173344"/>
<path d="M97.7986 390.239C96.3712 387.765 96.3712 384.717 97.7986 382.243L100.07 378.307C101.498 375.83 104.14 374.305 106.999 374.305L111.531 374.305C114.39 374.305 117.032 375.83 118.461 378.307L120.732 382.243C122.159 384.717 122.159 387.765 120.732 390.239L118.461 394.175C117.032 396.652 114.39 398.178 111.531 398.178L106.999 398.178C104.14 398.178 101.498 396.652 100.07 394.175L97.7986 390.239Z" fill="#0C1F2B"/>
<path d="M50.0525 390.239C48.6252 387.765 48.6252 384.717 50.0525 382.243L52.3236 378.307C53.7523 375.83 56.394 374.305 59.2531 374.305L63.7849 374.305C66.644 374.305 69.2857 375.83 70.7144 378.307L72.9855 382.243C74.4128 384.717 74.4128 387.765 72.9855 390.239L70.7144 394.175C69.2857 396.652 66.644 398.178 63.7849 398.178L59.2531 398.178C56.394 398.178 53.7523 396.652 52.3236 394.175L50.0525 390.239Z" fill="#0C1F2B"/>
<path d="M169.418 376.16C167.99 373.686 167.99 370.638 169.418 368.164L171.689 364.228C173.118 361.751 175.759 360.226 178.618 360.226L183.15 360.226C186.009 360.226 188.651 361.751 190.08 364.228L192.351 368.164C193.778 370.638 193.778 373.686 192.351 376.16L190.08 380.096C188.651 382.573 186.009 384.099 183.15 384.099L178.618 384.099C175.759 384.099 173.118 382.573 171.689 380.096L169.418 376.16Z" fill="#0C1F2B"/>
<path d="M121.671 376.16C120.244 373.686 120.244 370.638 121.671 368.164L123.942 364.228C125.371 361.751 128.013 360.226 130.872 360.226L135.404 360.226C138.263 360.226 140.905 361.751 142.333 364.228L144.604 368.164C146.032 370.638 146.032 373.686 144.604 376.16L142.333 380.096C140.905 382.573 138.263 384.099 135.404 384.099L130.872 384.099C128.013 384.099 125.371 382.573 123.942 380.096L121.671 376.16Z" fill="#0C1F2B"/>
<path d="M193.291 306.989C191.863 304.515 191.863 301.468 193.291 298.994L195.562 295.057C196.991 292.581 199.632 291.055 202.491 291.055L207.023 291.055C209.882 291.055 212.524 292.581 213.953 295.057L216.224 298.994C217.651 301.468 217.651 304.515 216.224 306.989L213.953 310.926C212.524 313.402 209.882 314.928 207.023 314.928L202.491 314.928C199.632 314.928 196.991 313.402 195.562 310.926L193.291 306.989Z" fill="#0C1F2B"/>
<path d="M145.545 306.989C144.117 304.515 144.117 301.468 145.545 298.994L147.816 295.057C149.244 292.581 151.886 291.055 154.745 291.055L159.277 291.055C162.136 291.055 164.778 292.581 166.207 295.057L168.478 298.994C169.905 301.468 169.905 304.515 168.478 306.989L166.207 310.926C164.778 313.402 162.136 314.928 159.277 314.928L154.745 314.928C151.886 314.928 149.244 313.402 147.816 310.926L145.545 306.989Z" fill="#173344"/>
<path d="M169.418 292.91C167.99 290.436 167.99 287.389 169.418 284.915L171.689 280.978C173.118 278.502 175.759 276.976 178.618 276.976L183.15 276.976C186.009 276.976 188.651 278.502 190.08 280.978L192.351 284.915C193.778 287.389 193.778 290.436 192.351 292.91L190.08 296.847C188.651 299.323 186.009 300.849 183.15 300.849L178.618 300.849C175.759 300.849 173.118 299.323 171.689 296.847L169.418 292.91Z" fill="#0C1F2B"/>
<path d="M193.291 445.943C191.863 443.469 191.863 440.421 193.291 437.947L195.562 434.011C196.991 431.534 199.632 430.008 202.491 430.008L207.023 430.008C209.882 430.008 212.524 431.534 213.953 434.011L216.224 437.947C217.651 440.421 217.651 443.469 216.224 445.943L213.953 449.879C212.524 452.356 209.882 453.881 207.023 453.881L202.491 453.881C199.632 453.881 196.991 452.356 195.562 449.879L193.291 445.943Z" fill="#0C1F2B"/>
<path d="M169.418 431.864C167.99 429.39 167.99 426.342 169.418 423.868L171.689 419.932C173.118 417.455 175.759 415.929 178.618 415.929L183.15 415.929C186.009 415.929 188.651 417.455 190.08 419.932L192.351 423.868C193.778 426.342 193.778 429.39 192.351 431.864L190.08 435.8C188.651 438.277 186.009 439.802 183.15 439.802L178.618 439.802C175.759 439.802 173.118 438.277 171.689 435.8L169.418 431.864Z" fill="#0C1F2B"/>
<path d="M73.9256 431.864C72.4982 429.39 72.4982 426.342 73.9256 423.868L76.1966 419.932C77.6253 417.455 80.2671 415.929 83.1261 415.929L87.658 415.929C90.517 415.929 93.1587 417.455 94.5875 419.932L96.8585 423.868C98.2859 426.342 98.2859 429.39 96.8585 431.864L94.5875 435.8C93.1587 438.277 90.517 439.802 87.658 439.802L83.1261 439.802C80.2671 439.802 77.6253 438.277 76.1966 435.8L73.9256 431.864Z" fill="#0C1F2B"/>
<path d="M26.1795 431.864C24.7521 429.39 24.7521 426.342 26.1795 423.868L28.4505 419.932C29.8792 417.455 32.521 415.929 35.38 415.929L39.9119 415.929C42.7709 415.929 45.4126 417.455 46.8414 419.932L49.1124 423.868C50.5398 426.342 50.5398 429.39 49.1124 431.864L46.8414 435.8C45.4126 438.277 42.7709 439.802 39.9119 439.802L35.38 439.802C32.521 439.802 29.8792 438.277 28.4505 435.8L26.1795 431.864Z" fill="#0C1F2B"/>
<path d="M193.291 362.693C191.863 360.219 191.863 357.172 193.291 354.698L195.562 350.761C196.991 348.285 199.632 346.759 202.491 346.759L207.023 346.759C209.882 346.759 212.524 348.285 213.953 350.761L216.224 354.698C217.651 357.172 217.651 360.219 216.224 362.693L213.953 366.63C212.524 369.106 209.882 370.632 207.023 370.632L202.491 370.632C199.632 370.632 196.991 369.106 195.562 366.63L193.291 362.693Z" fill="#0C1F2B"/>
<path d="M145.545 362.693C144.117 360.219 144.117 357.172 145.545 354.698L147.816 350.761C149.244 348.285 151.886 346.759 154.745 346.759L159.277 346.759C162.136 346.759 164.778 348.285 166.207 350.761L168.478 354.698C169.905 357.172 169.905 360.219 168.478 362.693L166.207 366.63C164.778 369.106 162.136 370.632 159.277 370.632L154.745 370.632C151.886 370.632 149.244 369.106 147.816 366.63L145.545 362.693Z" fill="#0C1F2B"/>
<path d="M50.0525 362.693C48.6252 360.219 48.6252 357.172 50.0525 354.698L52.3236 350.761C53.7523 348.285 56.394 346.759 59.2531 346.759L63.7849 346.759C66.644 346.759 69.2857 348.285 70.7144 350.761L72.9855 354.698C74.4128 357.172 74.4128 360.219 72.9855 362.693L70.7144 366.63C69.2857 369.106 66.644 370.632 63.7849 370.632L59.2531 370.632C56.394 370.632 53.7523 369.106 52.3236 366.63L50.0525 362.693Z" fill="#0C1F2B"/>
<path d="M2.30641 362.693C0.879057 360.219 0.879058 357.172 2.30641 354.698L4.57748 350.761C6.0062 348.285 8.64792 346.759 11.507 346.759L16.0388 346.759C18.8979 346.759 21.5396 348.285 22.9683 350.761L25.2394 354.698C26.6667 357.172 26.6667 360.219 25.2394 362.693L22.9683 366.63C21.5396 369.106 18.8979 370.632 16.0388 370.632L11.507 370.632C8.64792 370.632 6.0062 369.106 4.57748 366.63L2.30641 362.693Z" fill="#0C1F2B"/>
<path d="M169.418 348.614C167.99 346.14 167.99 343.093 169.418 340.619L171.689 336.682C173.118 334.206 175.759 332.68 178.618 332.68L183.15 332.68C186.009 332.68 188.651 334.206 190.08 336.682L192.351 340.619C193.778 343.093 193.778 346.14 192.351 348.614L190.08 352.551C188.651 355.027 186.009 356.553 183.15 356.553L178.618 356.553C175.759 356.553 173.118 355.027 171.689 352.551L169.418 348.614Z" fill="#173344"/>
<path d="M193.291 279.444C191.863 276.97 191.863 273.922 193.291 271.448L195.562 267.512C196.991 265.035 199.632 263.509 202.491 263.509L207.023 263.509C209.882 263.509 212.524 265.035 213.953 267.512L216.224 271.448C217.651 273.922 217.651 276.97 216.224 279.444L213.953 283.38C212.524 285.857 209.882 287.382 207.023 287.382L202.491 287.382C199.632 287.382 196.991 285.857 195.562 283.38L193.291 279.444Z" fill="#0C1F2B"/>
<path d="M145.545 279.444C144.117 276.97 144.117 273.922 145.545 271.448L147.816 267.512C149.244 265.035 151.886 263.509 154.745 263.509L159.277 263.509C162.136 263.509 164.778 265.035 166.207 267.512L168.478 271.448C169.905 273.922 169.905 276.97 168.478 279.444L166.207 283.38C164.778 285.857 162.136 287.382 159.277 287.382L154.745 287.382C151.886 287.382 149.244 285.857 147.816 283.38L145.545 279.444Z" fill="#0C1F2B"/>
<path d="M169.418 265.365C167.99 262.891 167.99 259.843 169.418 257.369L171.689 253.433C173.118 250.956 175.759 249.43 178.618 249.43L183.15 249.43C186.009 249.43 188.651 250.956 190.08 253.433L192.351 257.369C193.778 259.843 193.778 262.891 192.351 265.365L190.08 269.301C188.651 271.778 186.009 273.303 183.15 273.303L178.618 273.303C175.759 273.303 173.118 271.778 171.689 269.301L169.418 265.365Z" fill="#173344"/>
<path d="M121.671 265.365C120.244 262.891 120.244 259.843 121.671 257.369L123.942 253.433C125.371 250.956 128.013 249.43 130.872 249.43L135.404 249.43C138.263 249.43 140.905 250.956 142.333 253.433L144.604 257.369C146.032 259.843 146.032 262.891 144.604 265.365L142.333 269.301C140.905 271.778 138.263 273.303 135.404 273.303L130.872 273.303C128.013 273.303 125.371 271.778 123.942 269.301L121.671 265.365Z" fill="#0C1F2B"/>
<path d="M193.291 251.604C191.863 249.13 191.863 246.082 193.291 243.608L195.562 239.672C196.991 237.195 199.632 235.67 202.491 235.67L207.023 235.67C209.882 235.67 212.524 237.195 213.953 239.672L216.224 243.608C217.651 246.082 217.651 249.13 216.224 251.604L213.953 255.54C212.524 258.017 209.882 259.543 207.023 259.543L202.491 259.543C199.632 259.543 196.991 258.017 195.562 255.54L193.291 251.604Z" fill="#0C1F2B"/>
<path d="M97.7986 251.604C96.3712 249.13 96.3712 246.082 97.7986 243.608L100.07 239.672C101.498 237.195 104.14 235.67 106.999 235.67L111.531 235.67C114.39 235.67 117.032 237.195 118.461 239.672L120.732 243.608C122.159 246.082 122.159 249.13 120.732 251.604L118.461 255.54C117.032 258.017 114.39 259.543 111.531 259.543L106.999 259.543C104.14 259.543 101.498 258.017 100.07 255.54L97.7986 251.604Z" fill="#0C1F2B"/>
<path d="M193.291 168.354C191.863 165.88 191.863 162.833 193.291 160.359L195.562 156.422C196.991 153.946 199.632 152.42 202.491 152.42L207.023 152.42C209.882 152.42 212.524 153.946 213.953 156.422L216.224 160.359C217.651 162.833 217.651 165.88 216.224 168.354L213.953 172.291C212.524 174.767 209.882 176.293 207.023 176.293L202.491 176.293C199.632 176.293 196.991 174.767 195.562 172.291L193.291 168.354Z" fill="#0C1F2B"/>
<path d="M193.291 85.1048C191.863 82.6308 191.863 79.5834 193.291 77.1093L195.562 73.1728C196.991 70.6963 199.632 69.1706 202.491 69.1706L207.023 69.1706C209.882 69.1706 212.524 70.6963 213.953 73.1728L216.224 77.1093C217.651 79.5834 217.651 82.6308 216.224 85.1048L213.953 89.0414C212.524 91.5178 209.882 93.0436 207.023 93.0436L202.491 93.0436C199.632 93.0436 196.991 91.5178 195.562 89.0414L193.291 85.1048Z" fill="#0C1F2B"/>
<path d="M145.544 85.1048C144.117 82.6308 144.117 79.5834 145.544 77.1093L147.816 73.1728C149.244 70.6963 151.886 69.1706 154.745 69.1706L159.277 69.1706C162.136 69.1706 164.778 70.6963 166.206 73.1728L168.477 77.1093C169.905 79.5834 169.905 82.6308 168.477 85.1048L166.206 89.0414C164.778 91.5178 162.136 93.0436 159.277 93.0436L154.745 93.0436C151.886 93.0436 149.244 91.5178 147.816 89.0414L145.544 85.1048Z" fill="#0C1F2B"/>
<path d="M169.418 71.0259C167.99 68.5518 167.99 65.5044 169.418 63.0303L171.689 59.0938C173.118 56.6173 175.759 55.0916 178.618 55.0916L183.15 55.0916C186.009 55.0916 188.651 56.6173 190.08 59.0938L192.351 63.0303C193.778 65.5044 193.778 68.5518 192.351 71.0259L190.08 74.9624C188.651 77.4388 186.009 78.9646 183.15 78.9646L178.618 78.9646C175.759 78.9646 173.118 77.4388 171.689 74.9624L169.418 71.0259Z" fill="#173344"/>
<path d="M121.671 71.0259C120.244 68.5518 120.244 65.5044 121.671 63.0303L123.942 59.0938C125.371 56.6173 128.013 55.0916 130.872 55.0916L135.404 55.0916C138.263 55.0916 140.905 56.6173 142.333 59.0938L144.604 63.0303C146.032 65.5044 146.032 68.5518 144.604 71.0259L142.333 74.9624C140.905 77.4388 138.263 78.9646 135.404 78.9646L130.872 78.9646C128.013 78.9646 125.371 77.4388 123.942 74.9624L121.671 71.0259Z" fill="#0C1F2B"/>
<path d="M193.291 224.058C191.863 221.584 191.863 218.536 193.291 216.062L195.562 212.126C196.991 209.649 199.632 208.124 202.491 208.124L207.023 208.124C209.882 208.124 212.524 209.649 213.953 212.126L216.224 216.062C217.651 218.536 217.651 221.584 216.224 224.058L213.953 227.994C212.524 230.471 209.882 231.997 207.023 231.997L202.491 231.997C199.632 231.997 196.991 230.471 195.562 227.994L193.291 224.058Z" fill="#0C1F2B"/>
<path d="M169.418 209.979C167.99 207.505 167.99 204.458 169.418 201.984L171.689 198.047C173.118 195.571 175.759 194.045 178.618 194.045L183.15 194.045C186.009 194.045 188.651 195.571 190.08 198.047L192.351 201.984C193.778 204.458 193.778 207.505 192.351 209.979L190.08 213.916C188.651 216.392 186.009 217.918 183.15 217.918L178.618 217.918C175.759 217.918 173.118 216.392 171.689 213.916L169.418 209.979Z" fill="#0C1F2B"/>
<path d="M26.1795 209.979C24.7521 207.505 24.7521 204.458 26.1795 201.984L28.4505 198.047C29.8792 195.571 32.521 194.045 35.38 194.045L39.9119 194.045C42.7709 194.045 45.4126 195.571 46.8414 198.047L49.1124 201.984C50.5398 204.458 50.5398 207.505 49.1124 209.979L46.8414 213.916C45.4126 216.392 42.7709 217.918 39.9119 217.918L35.38 217.918C32.521 217.918 29.8792 216.392 28.4505 213.916L26.1795 209.979Z" fill="#0C1F2B"/>
<path d="M193.291 140.809C191.863 138.335 191.863 135.287 193.291 132.813L195.562 128.877C196.991 126.4 199.632 124.874 202.491 124.874L207.023 124.874C209.882 124.874 212.524 126.4 213.953 128.877L216.224 132.813C217.651 135.287 217.651 138.335 216.224 140.809L213.953 144.745C212.524 147.222 209.882 148.747 207.023 148.747L202.491 148.747C199.632 148.747 196.991 147.222 195.562 144.745L193.291 140.809Z" fill="#0C1F2B"/>
<path d="M50.0523 140.809C48.6249 138.335 48.6249 135.287 50.0523 132.813L52.3233 128.877C53.7521 126.4 56.3938 124.875 59.2528 124.875L63.7847 124.875C66.6437 124.875 69.2854 126.4 70.7142 128.877L72.9852 132.813C74.4126 135.287 74.4126 138.335 72.9852 140.809L70.7142 144.745C69.2854 147.222 66.6437 148.748 63.7847 148.748L59.2528 148.748C56.3938 148.748 53.7521 147.222 52.3233 144.745L50.0523 140.809Z" fill="#0C1F2B"/>
<path d="M169.418 126.73C167.99 124.256 167.99 121.208 169.418 118.734L171.689 114.798C173.118 112.321 175.759 110.795 178.618 110.795L183.15 110.795C186.009 110.795 188.651 112.321 190.08 114.798L192.351 118.734C193.778 121.208 193.778 124.256 192.351 126.73L190.08 130.666C188.651 133.143 186.009 134.668 183.15 134.668L178.618 134.668C175.759 134.668 173.118 133.143 171.689 130.666L169.418 126.73Z" fill="#0C1F2B"/>
<path d="M193.291 57.5591C191.863 55.085 191.863 52.0376 193.291 49.5635L195.562 45.627C196.991 43.1505 199.632 41.6248 202.491 41.6248L207.023 41.6248C209.882 41.6248 212.524 43.1505 213.953 45.627L216.224 49.5635C217.651 52.0376 217.651 55.085 216.224 57.5591L213.953 61.4956C212.524 63.972 209.882 65.4978 207.023 65.4978L202.491 65.4978C199.632 65.4978 196.991 63.972 195.562 61.4956L193.291 57.5591Z" fill="#0C1F2B"/>
<path d="M145.544 57.5591C144.117 55.085 144.117 52.0376 145.544 49.5635L147.816 45.627C149.244 43.1505 151.886 41.6248 154.745 41.6248L159.277 41.6248C162.136 41.6248 164.778 43.1505 166.206 45.627L168.477 49.5635C169.905 52.0376 169.905 55.085 168.477 57.5591L166.206 61.4956C164.778 63.972 162.136 65.4978 159.277 65.4978L154.745 65.4978C151.886 65.4978 149.244 63.972 147.816 61.4956L145.544 57.5591Z" fill="#173344"/>
<path d="M169.418 43.4801C167.99 41.006 167.99 37.9586 169.418 35.4845L171.689 31.548C173.118 29.0716 175.759 27.5458 178.618 27.5458L183.15 27.5458C186.009 27.5458 188.651 29.0716 190.08 31.548L192.351 35.4845C193.778 37.9586 193.778 41.006 192.351 43.4801L190.08 47.4166C188.651 49.8931 186.009 51.4188 183.15 51.4188L178.618 51.4188C175.759 51.4188 173.118 49.8931 171.689 47.4166L169.418 43.4801Z" fill="#0C1F2B"/>
<path d="M193.291 196.512C191.863 194.038 191.863 190.991 193.291 188.517L195.562 184.58C196.991 182.104 199.632 180.578 202.491 180.578L207.023 180.578C209.882 180.578 212.524 182.104 213.953 184.58L216.224 188.517C217.651 190.991 217.651 194.038 216.224 196.512L213.953 200.449C212.524 202.925 209.882 204.451 207.023 204.451L202.491 204.451C199.632 204.451 196.991 202.925 195.562 200.449L193.291 196.512Z" fill="#0C1F2B"/>
<path d="M73.9256 182.433C72.4982 179.959 72.4982 176.912 73.9256 174.438L76.1966 170.501C77.6253 168.025 80.2671 166.499 83.1261 166.499L87.658 166.499C90.517 166.499 93.1587 168.025 94.5875 170.501L96.8585 174.438C98.2859 176.912 98.2859 179.959 96.8585 182.433L94.5875 186.37C93.1587 188.846 90.517 190.372 87.658 190.372L83.1261 190.372C80.2671 190.372 77.6253 188.846 76.1966 186.37L73.9256 182.433Z" fill="#0C1F2B"/>
<path d="M26.1795 182.433C24.7521 179.959 24.7521 176.912 26.1795 174.438L28.4505 170.501C29.8792 168.025 32.521 166.499 35.38 166.499L39.9119 166.499C42.7709 166.499 45.4126 168.025 46.8414 170.501L49.1124 174.438C50.5398 176.912 50.5398 179.959 49.1124 182.433L46.8414 186.37C45.4126 188.846 42.7709 190.372 39.9119 190.372L35.38 190.372C32.521 190.372 29.8792 188.846 28.4505 186.37L26.1795 182.433Z" fill="#0C1F2B"/>
<path d="M193.291 113.263C191.863 110.789 191.863 107.741 193.291 105.267L195.562 101.331C196.991 98.8543 199.632 97.3285 202.491 97.3285L207.023 97.3285C209.882 97.3285 212.524 98.8543 213.953 101.331L216.224 105.267C217.651 107.741 217.651 110.789 216.224 113.263L213.953 117.199C212.524 119.676 209.882 121.202 207.023 121.202L202.491 121.202C199.632 121.202 196.991 119.676 195.562 117.199L193.291 113.263Z" fill="#0C1F2B"/>
<path d="M145.544 113.263C144.117 110.789 144.117 107.741 145.544 105.267L147.816 101.331C149.244 98.8543 151.886 97.3285 154.745 97.3285L159.277 97.3285C162.136 97.3285 164.778 98.8543 166.206 101.331L168.477 105.267C169.905 107.741 169.905 110.789 168.477 113.263L166.206 117.199C164.778 119.676 162.136 121.202 159.277 121.202L154.745 121.202C151.886 121.202 149.244 119.676 147.816 117.199L145.544 113.263Z" fill="#0C1F2B"/>
<path d="M169.418 99.1838C167.99 96.7097 167.99 93.6623 169.418 91.1883L171.689 87.2518C173.118 84.7753 175.759 83.2495 178.618 83.2495L183.15 83.2495C186.009 83.2495 188.651 84.7753 190.08 87.2518L192.351 91.1883C193.778 93.6623 193.778 96.7097 192.351 99.1838L190.08 103.12C188.651 105.597 186.009 107.123 183.15 107.123L178.618 107.123C175.759 107.123 173.118 105.597 171.689 103.12L169.418 99.1838Z" fill="#173344"/>
<path d="M193.291 30.0133C191.863 27.5392 191.863 24.4918 193.291 22.0177L195.562 18.0812C196.991 15.6048 199.632 14.079 202.491 14.079L207.023 14.079C209.882 14.079 212.524 15.6048 213.953 18.0812L216.224 22.0177C217.651 24.4918 217.651 27.5392 216.224 30.0133L213.953 33.9498C212.524 36.4263 209.882 37.952 207.023 37.952L202.491 37.952C199.632 37.952 196.991 36.4263 195.562 33.9498L193.291 30.0133Z" fill="#0C1F2B"/>
<path d="M145.544 30.0133C144.117 27.5392 144.117 24.4918 145.544 22.0177L147.816 18.0812C149.244 15.6048 151.886 14.079 154.745 14.079L159.277 14.079C162.136 14.079 164.778 15.6048 166.206 18.0812L168.477 22.0177C169.905 24.4918 169.905 27.5392 168.477 30.0133L166.206 33.9498C164.778 36.4263 162.136 37.952 159.277 37.952L154.745 37.952C151.886 37.952 149.244 36.4263 147.816 33.9498L145.544 30.0133Z" fill="#0C1F2B"/>
<path d="M169.418 15.9343C167.99 13.4602 167.99 10.4128 169.418 7.93876L171.689 4.00224C173.118 1.52578 175.759 2.36785e-05 178.618 2.37126e-05L183.15 2.37666e-05C186.009 2.38007e-05 188.651 1.52579 190.08 4.00224L192.351 7.93876C193.778 10.4128 193.778 13.4602 192.351 15.9343L190.08 19.8708C188.651 22.3473 186.009 23.873 183.15 23.873L178.618 23.873C175.759 23.873 173.118 22.3473 171.689 19.8708L169.418 15.9343Z" fill="#173344"/>
<path d="M121.671 15.9343C120.244 13.4602 120.244 10.4128 121.671 7.93876L123.942 4.00224C125.371 1.52578 128.013 2.36785e-05 130.872 2.37126e-05L135.404 2.37666e-05C138.263 2.38007e-05 140.905 1.52579 142.333 4.00224L144.604 7.93876C146.032 10.4128 146.032 13.4602 144.604 15.9343L142.333 19.8708C140.905 22.3473 138.263 23.873 135.404 23.873L130.872 23.873C128.013 23.873 125.371 22.3473 123.942 19.8708L121.671 15.9343Z" fill="#0C1F2B"/>
</svg>
