<svg width="32" height="32" viewBox="0 0 32 32" fill="none" xmlns="http://www.w3.org/2000/svg">
<path fill-rule="evenodd" clip-rule="evenodd" d="M13.5066 0.415584C13.5066 0.415584 14.7533 0 16.0001 0C17.2468 0 18.4936 0.415584 18.4936 0.415584C18.4936 0.415584 19.3248 1.66234 19.7403 2.90909C19.8633 3.27804 19.9499 3.64698 20.0109 3.98362C20.5765 4.17565 21.1239 4.40718 21.6498 4.67493C21.9337 4.4775 22.2598 4.27479 22.6123 4.09851C23.7878 3.51079 25.2571 3.21693 25.2571 3.21693C25.2571 3.21693 26.4325 3.80465 27.3141 4.68624C28.1957 5.56783 28.7834 6.74328 28.7834 6.74328C28.7834 6.74328 28.4896 8.21259 27.9018 9.38804C27.7071 9.77757 27.48 10.1348 27.2635 10.4384C27.4976 10.93 27.7004 11.4392 27.8695 11.9637C28.2442 12.0252 28.6678 12.1185 29.0914 12.2597C30.3382 12.6752 31.5849 13.5064 31.5849 13.5064C31.5849 13.5064 32.0005 14.7532 32.0005 15.9999C32.0005 17.2467 31.5849 18.4934 31.5849 18.4934C31.5849 18.4934 30.3382 19.3246 29.0914 19.7402C28.61 19.9007 28.1285 19.9992 27.7189 20.0596C27.552 20.5177 27.3591 20.9632 27.1418 21.3944C27.3929 21.7305 27.6704 22.1483 27.9022 22.6119C28.4899 23.7874 28.7838 25.2567 28.7838 25.2567C28.7838 25.2567 28.1961 26.4321 27.3145 27.3137C26.4329 28.1953 25.2574 28.783 25.2574 28.783C25.2574 28.783 23.7881 28.4892 22.6127 27.9014C22.1089 27.6495 21.659 27.3436 21.3095 27.0763C20.9109 27.2642 20.5007 27.4315 20.0804 27.577C20.0224 28.0148 19.9205 28.5529 19.7412 29.0909C19.3256 30.3377 18.4944 31.5844 18.4944 31.5844C18.4944 31.5844 17.2476 32 16.0009 32C14.7541 32 13.5074 31.5844 13.5074 31.5844C13.5074 31.5844 12.6762 30.3377 12.2606 29.0909C12.0813 28.5529 11.9794 28.0149 11.9214 27.5771C11.5009 27.4315 11.0907 27.2642 10.692 27.0763C10.3424 27.3436 9.89254 27.6495 9.38866 27.9015C8.21321 28.4892 6.7439 28.7831 6.7439 28.7831C6.7439 28.7831 5.56845 28.1954 4.68686 27.3138C3.80527 26.4322 3.21755 25.2567 3.21755 25.2567C3.21755 25.2567 3.51141 23.7874 4.09914 22.612C4.33097 22.1483 4.60853 21.7303 4.85967 21.3942C4.64251 20.9632 4.44963 20.5178 4.28282 20.0599C3.87302 19.9994 3.3913 19.9009 2.90958 19.7403C1.66283 19.3248 0.416073 18.4936 0.416073 18.4936C0.416073 18.4936 0.000488281 17.2468 0.000488281 16.0001C0.000488281 14.7533 0.416073 13.5066 0.416073 13.5066C0.416073 13.5066 1.66283 12.6754 2.90958 12.2598C3.33341 12.1185 3.75724 12.0253 4.13209 11.9637C4.30105 11.4396 4.50376 10.9306 4.73767 10.4393C4.52097 10.1355 4.29372 9.77796 4.09878 9.38809C3.51106 8.21264 3.2172 6.74333 3.2172 6.74333C3.2172 6.74333 3.80492 5.56788 4.68651 4.68629C5.5681 3.80471 6.74355 3.21698 6.74355 3.21698C6.74355 3.21698 8.21286 3.51084 9.38831 4.09857C9.74101 4.27492 10.0672 4.47772 10.3512 4.67523C10.8768 4.40759 11.4239 4.17613 11.9892 3.98413C12.0502 3.64735 12.1368 3.27822 12.2598 2.90909C12.6754 1.66234 13.5066 0.415584 13.5066 0.415584ZM16.0008 24.9351C21.0502 24.9351 25.1436 20.8417 25.1436 15.7922C25.1436 10.7428 21.0502 6.64936 16.0008 6.64936C10.9513 6.64936 6.85791 10.7428 6.85791 15.7922C6.85791 20.8417 10.9513 24.9351 16.0008 24.9351Z" fill="#63A3C9"/>
</svg>
