<svg width="50" height="49" viewBox="0 0 50 49" fill="none" xmlns="http://www.w3.org/2000/svg">
<path d="M20.2926 2.53636C22.9685 0.969816 26.2815 0.969814 28.9574 2.53636L35.1968 6.18919L41.4799 9.76625C44.1745 11.3003 45.831 14.1695 45.8122 17.2701L45.7685 24.5L45.8122 31.7299C45.831 34.8305 44.1745 37.6997 41.4799 39.2337L35.1968 42.8108L28.9574 46.4636C26.2815 48.0302 22.9685 48.0302 20.2926 46.4636L14.0533 42.8108L7.77011 39.2337C5.07553 37.6997 3.41899 34.8305 3.43775 31.7299L3.4815 24.5L3.43775 17.2701C3.41899 14.1695 5.07553 11.3003 7.77011 9.76625L14.0533 6.18919L20.2926 2.53636Z" fill="#0A1E29"/>
<path d="M14.825 16.6299C17.4977 16.6299 22.8431 14.8303 24.625 13.4751C26.4068 14.8303 31.7522 16.6299 34.425 16.6299C34.425 31.4761 24.625 35.5251 24.625 35.5251C24.625 35.5251 14.825 31.4761 14.825 16.6299Z" fill="#63A3C9"/>
</svg>
