<svg width="49" height="49" viewBox="0 0 49 49" fill="none" xmlns="http://www.w3.org/2000/svg">
<path d="M20.1676 2.53636C22.8435 0.969816 26.1565 0.969814 28.8324 2.53636L35.0718 6.18919L41.3549 9.76625C44.0495 11.3003 45.706 14.1695 45.6872 17.2701L45.6435 24.5L45.6872 31.7299C45.706 34.8305 44.0495 37.6997 41.3549 39.2337L35.0718 42.8108L28.8324 46.4636C26.1565 48.0302 22.8435 48.0302 20.1676 46.4636L13.9283 42.8108L7.64511 39.2337C4.95053 37.6997 3.29399 34.8305 3.31275 31.7299L3.3565 24.5L3.31275 17.2701C3.29399 14.1695 4.95053 11.3003 7.64511 9.76625L13.9283 6.18919L20.1676 2.53636Z" fill="#0A1E29"/>
<path d="M34.3 14.7L27.9668 15.0333C27.9668 15.0333 24.7898 21.1918 20.6856 25.6194L17.3666 22.3003L16.3666 25.9669L18.3411 27.9414C15.85 30.2767 14.7 30.9667 14.7 30.9667L15.3666 33.6333L18.0332 34.3C18.0332 34.3 18.7232 33.1499 21.0585 30.6588L23.0331 32.6333L26.6997 31.6334L23.3805 28.3143C27.8081 24.2101 33.9666 21.0331 33.9666 21.0331L34.3 14.7Z" fill="#63A3C9"/>
</svg>
