<svg width="331" height="197" viewBox="0 0 331 197" fill="none" xmlns="http://www.w3.org/2000/svg">
<path d="M154.314 4.17374C161.528 1.48188 169.472 1.48188 176.686 4.17374L310.186 53.9842C322.702 58.6539 331 70.6068 331 83.9653V113.035C331 126.393 322.702 138.346 310.186 143.016L176.686 192.826C169.472 195.518 161.528 195.518 154.314 192.826L20.8137 143.016C8.29807 138.346 0 126.393 0 113.035V83.9653C0 70.6068 8.29806 58.6539 20.8137 53.9842L154.314 4.17374Z" fill="#11232E"/>
<path d="M160.472 94.368H155.096V91.2H169.736V94.368H164.36V108H160.472V94.368ZM182.9 101.592C182.9 101.64 182.876 101.976 182.828 102.6H173.06C173.236 103.4 173.652 104.032 174.308 104.496C174.964 104.96 175.78 105.192 176.756 105.192C177.428 105.192 178.02 105.096 178.532 104.904C179.06 104.696 179.548 104.376 179.996 103.944L181.988 106.104C180.772 107.496 178.996 108.192 176.66 108.192C175.204 108.192 173.916 107.912 172.796 107.352C171.676 106.776 170.812 105.984 170.204 104.976C169.596 103.968 169.292 102.824 169.292 101.544C169.292 100.28 169.588 99.144 170.18 98.136C170.788 97.112 171.612 96.32 172.652 95.76C173.708 95.184 174.884 94.896 176.18 94.896C177.444 94.896 178.588 95.168 179.612 95.712C180.636 96.256 181.436 97.04 182.012 98.064C182.604 99.072 182.9 100.248 182.9 101.592ZM176.204 97.728C175.356 97.728 174.644 97.968 174.068 98.448C173.492 98.928 173.14 99.584 173.012 100.416H179.372C179.244 99.6 178.892 98.952 178.316 98.472C177.74 97.976 177.036 97.728 176.204 97.728ZM190.249 94.896C192.249 94.896 193.785 95.376 194.857 96.336C195.929 97.28 196.465 98.712 196.465 100.632V108H192.961V106.392C192.257 107.592 190.945 108.192 189.025 108.192C188.033 108.192 187.169 108.024 186.433 107.688C185.713 107.352 185.161 106.888 184.777 106.296C184.393 105.704 184.201 105.032 184.201 104.28C184.201 103.08 184.649 102.136 185.545 101.448C186.457 100.76 187.857 100.416 189.745 100.416H192.721C192.721 99.6 192.473 98.976 191.977 98.544C191.481 98.096 190.737 97.872 189.745 97.872C189.057 97.872 188.377 97.984 187.705 98.208C187.049 98.416 186.489 98.704 186.025 99.072L184.681 96.456C185.385 95.96 186.225 95.576 187.201 95.304C188.193 95.032 189.209 94.896 190.249 94.896ZM189.961 105.672C190.601 105.672 191.169 105.528 191.665 105.24C192.161 104.936 192.513 104.496 192.721 103.92V102.6H190.153C188.617 102.6 187.849 103.104 187.849 104.112C187.849 104.592 188.033 104.976 188.401 105.264C188.785 105.536 189.305 105.672 189.961 105.672ZM216.389 94.896C218.005 94.896 219.285 95.376 220.229 96.336C221.189 97.28 221.669 98.704 221.669 100.608V108H217.925V101.184C217.925 100.16 217.709 99.4 217.277 98.904C216.861 98.392 216.261 98.136 215.477 98.136C214.597 98.136 213.901 98.424 213.389 99C212.877 99.56 212.621 100.4 212.621 101.52V108H208.877V101.184C208.877 99.152 208.061 98.136 206.429 98.136C205.565 98.136 204.877 98.424 204.365 99C203.853 99.56 203.597 100.4 203.597 101.52V108H199.853V95.088H203.429V96.576C203.909 96.032 204.493 95.616 205.181 95.328C205.885 95.04 206.653 94.896 207.485 94.896C208.397 94.896 209.221 95.08 209.957 95.448C210.693 95.8 211.285 96.32 211.733 97.008C212.261 96.336 212.925 95.816 213.725 95.448C214.541 95.08 215.429 94.896 216.389 94.896Z" fill="white"/>
<circle cx="80" cy="97" r="42" stroke="#162A36" stroke-width="18"/>
<path fill-rule="evenodd" clip-rule="evenodd" d="M57.4435 109.793C61.0307 117.277 68.2321 122.698 76.7863 123.795L71.4889 157.391C50.8515 154.409 33.6701 140.746 25.7305 122.187L57.4435 109.793Z" fill="url(#paint0_linear_886_116)"/>
<path d="M67.2831 101.67C68.3631 101.646 69.1611 101.622 69.6771 101.598V105H60.1551V101.598C61.4511 101.646 62.4291 101.67 63.0891 101.67V95.46C62.6571 96.408 61.7751 97.02 60.4431 97.296C60.4071 95.88 60.2751 94.59 60.0471 93.426C61.0071 93.294 61.6731 93.132 62.0451 92.94C62.4291 92.736 62.7231 92.514 62.9271 92.274C63.1431 92.034 63.2871 91.872 63.3591 91.788V91.752H67.2831V101.67ZM82.5092 97.944C83.0372 98.136 83.4872 98.406 83.8592 98.754C84.2312 99.102 84.5072 99.486 84.6872 99.906C84.8672 100.314 84.9572 100.698 84.9572 101.058C84.9572 102.474 84.3272 103.518 83.0672 104.19C81.8192 104.85 80.0672 105.18 77.8112 105.18C75.5432 105.18 73.7792 104.85 72.5192 104.19C71.2592 103.518 70.6292 102.474 70.6292 101.058C70.6292 100.482 70.8332 99.894 71.2412 99.294C71.6612 98.682 72.2432 98.232 72.9872 97.944C72.3272 97.632 71.8292 97.29 71.4932 96.918C71.1692 96.534 71.0072 96.024 71.0072 95.388C71.0072 94.644 71.2652 93.984 71.7812 93.408C72.2972 92.82 73.0652 92.364 74.0852 92.04C75.1172 91.716 76.3592 91.554 77.8112 91.554C79.2512 91.554 80.4812 91.716 81.5012 92.04C82.5212 92.364 83.2892 92.82 83.8052 93.408C84.3212 93.984 84.5792 94.644 84.5792 95.388C84.5792 96.036 84.4052 96.546 84.0572 96.918C83.7212 97.29 83.2052 97.632 82.5092 97.944ZM77.8472 96.882C78.5432 96.882 79.1192 96.762 79.5752 96.522C80.0432 96.282 80.2772 95.964 80.2772 95.568C80.2772 95.172 80.0432 94.86 79.5752 94.632C79.1072 94.392 78.5312 94.272 77.8472 94.272C77.1512 94.272 76.5692 94.392 76.1012 94.632C75.6332 94.86 75.3992 95.172 75.3992 95.568C75.3992 95.976 75.6332 96.3 76.1012 96.54C76.5692 96.768 77.1512 96.882 77.8472 96.882ZM77.8472 101.922C78.5432 101.922 79.1192 101.802 79.5752 101.562C80.0432 101.322 80.2772 101.004 80.2772 100.608C80.2772 100.212 80.0432 99.9 79.5752 99.672C79.1072 99.432 78.5312 99.312 77.8472 99.312C77.1512 99.312 76.5692 99.432 76.1012 99.672C75.6332 99.9 75.3992 100.212 75.3992 100.608C75.3992 101.016 75.6332 101.34 76.1012 101.58C76.5692 101.808 77.1512 101.922 77.8472 101.922ZM97.7368 98.556C98.5288 98.556 99.2068 98.7 99.7708 98.988C100.335 99.264 100.761 99.648 101.049 100.14C101.349 100.632 101.499 101.178 101.499 101.778C101.499 102.39 101.349 102.942 101.049 103.434C100.761 103.926 100.335 104.316 99.7708 104.604C99.2068 104.88 98.5288 105.018 97.7368 105.018C96.9328 105.018 96.2428 104.88 95.6668 104.604C95.1028 104.316 94.6708 103.926 94.3708 103.434C94.0828 102.942 93.9388 102.39 93.9388 101.778C93.9388 101.418 93.9928 101.076 94.1008 100.752L90.9148 105.018H86.7568L92.3548 97.53C91.6828 98.106 90.7828 98.394 89.6548 98.394C88.8508 98.394 88.1608 98.256 87.5848 97.98C87.0208 97.692 86.5888 97.302 86.2888 96.81C86.0008 96.318 85.8568 95.766 85.8568 95.154C85.8568 94.554 86.0008 94.008 86.2888 93.516C86.5888 93.024 87.0208 92.64 87.5848 92.364C88.1608 92.076 88.8508 91.932 89.6548 91.932C90.4468 91.932 91.1248 92.076 91.6888 92.364C92.2528 92.64 92.6788 93.024 92.9668 93.516C93.2668 94.008 93.4168 94.554 93.4168 95.154C93.4168 95.634 93.3268 96.072 93.1468 96.468L96.4408 92.076H100.581L95.2348 99.24C95.8828 98.784 96.7168 98.556 97.7368 98.556ZM89.6548 96.126C89.9068 96.126 90.1348 96.024 90.3388 95.82C90.5548 95.616 90.6628 95.388 90.6628 95.136C90.6628 94.884 90.5548 94.668 90.3388 94.488C90.1348 94.308 89.9068 94.218 89.6548 94.218C89.3788 94.218 89.1328 94.308 88.9168 94.488C88.7128 94.668 88.6108 94.884 88.6108 95.136C88.6108 95.4 88.7128 95.634 88.9168 95.838C89.1328 96.03 89.3788 96.126 89.6548 96.126ZM97.7368 102.75C97.9888 102.75 98.2168 102.648 98.4208 102.444C98.6368 102.24 98.7448 102.012 98.7448 101.76C98.7448 101.508 98.6368 101.292 98.4208 101.112C98.2168 100.932 97.9888 100.842 97.7368 100.842C97.4608 100.842 97.2148 100.932 96.9988 101.112C96.7948 101.292 96.6928 101.508 96.6928 101.76C96.6928 102.024 96.7948 102.258 96.9988 102.462C97.2148 102.654 97.4608 102.75 97.7368 102.75Z" fill="white"/>
<defs>
<linearGradient id="paint0_linear_886_116" x1="25.3393" y1="122.685" x2="51.1074" y2="175.711" gradientUnits="userSpaceOnUse">
<stop stop-color="#FF31F7"/>
<stop offset="1" stop-color="#1D0041"/>
</linearGradient>
</defs>
</svg>
