<svg width="25" height="22" viewBox="0 0 25 22" fill="none" xmlns="http://www.w3.org/2000/svg">
<path fill-rule="evenodd" clip-rule="evenodd" d="M18.8119 20.8179C19.1414 21.0578 19.566 21.1178 19.9447 20.9705C20.3233 20.8221 20.6016 20.4895 20.6855 20.0864C21.5747 15.7879 23.7317 4.90803 24.5411 0.99794C24.6025 0.703236 24.5002 0.396954 24.2751 0.200134C24.0499 0.00331362 23.7379 -0.0535223 23.4595 0.0527817C19.169 1.68629 5.95575 6.78572 0.555011 8.84128C0.212221 8.97179 -0.0108487 9.31071 0.000407105 9.68224C0.0126862 10.0548 0.256221 10.378 0.607197 10.4864C3.02924 11.2315 6.20849 12.2683 6.20849 12.2683C6.20849 12.2683 7.69425 16.8836 8.46886 19.2307C8.56607 19.5254 8.79016 19.7569 9.08588 19.8369C9.38058 19.9158 9.69574 19.8327 9.91574 19.619C11.16 18.4108 13.0837 16.5425 13.0837 16.5425C13.0837 16.5425 16.7388 19.2991 18.8119 20.8179ZM7.54588 11.6852L9.26393 17.514L9.6456 13.8228C9.6456 13.8228 16.2835 7.66457 20.0674 4.15443C20.178 4.05129 20.1933 3.87867 20.1012 3.75764C20.0101 3.6366 19.8423 3.60818 19.7165 3.69027C15.3308 6.57101 7.54588 11.6852 7.54588 11.6852Z" fill="white"/>
</svg>
