<svg width="331" height="197" viewBox="0 0 331 197" fill="none" xmlns="http://www.w3.org/2000/svg">
<path d="M154.314 4.17374C161.528 1.48188 169.472 1.48188 176.686 4.17374L310.186 53.9842C322.702 58.6539 331 70.6068 331 83.9653V113.035C331 126.393 322.702 138.346 310.186 143.016L176.686 192.826C169.472 195.518 161.528 195.518 154.314 192.826L20.8137 143.016C8.29807 138.346 0 126.393 0 113.035V83.9653C0 70.6068 8.29806 58.6539 20.8137 53.9842L154.314 4.17374Z" fill="#11232E"/>
<path d="M163.472 94.368H158.096V91.2H172.736V94.368H167.36V108H163.472V94.368ZM179.395 108.192C178.035 108.192 176.811 107.912 175.723 107.352C174.651 106.776 173.811 105.984 173.203 104.976C172.595 103.968 172.291 102.824 172.291 101.544C172.291 100.264 172.595 99.12 173.203 98.112C173.811 97.104 174.651 96.32 175.723 95.76C176.811 95.184 178.035 94.896 179.395 94.896C180.755 94.896 181.971 95.184 183.043 95.76C184.115 96.32 184.955 97.104 185.563 98.112C186.171 99.12 186.475 100.264 186.475 101.544C186.475 102.824 186.171 103.968 185.563 104.976C184.955 105.984 184.115 106.776 183.043 107.352C181.971 107.912 180.755 108.192 179.395 108.192ZM179.395 105.12C180.355 105.12 181.139 104.8 181.747 104.16C182.371 103.504 182.683 102.632 182.683 101.544C182.683 100.456 182.371 99.592 181.747 98.952C181.139 98.296 180.355 97.968 179.395 97.968C178.435 97.968 177.643 98.296 177.019 98.952C176.395 99.592 176.083 100.456 176.083 101.544C176.083 102.632 176.395 103.504 177.019 104.16C177.643 104.8 178.435 105.12 179.395 105.12ZM194.522 102.936L192.722 104.712V108H188.978V90.192H192.722V100.272L198.194 95.088H202.658L197.282 100.56L203.138 108H198.602L194.522 102.936ZM216.907 101.592C216.907 101.64 216.883 101.976 216.835 102.6H207.067C207.243 103.4 207.659 104.032 208.315 104.496C208.971 104.96 209.787 105.192 210.763 105.192C211.435 105.192 212.027 105.096 212.539 104.904C213.067 104.696 213.555 104.376 214.003 103.944L215.995 106.104C214.779 107.496 213.003 108.192 210.667 108.192C209.211 108.192 207.923 107.912 206.803 107.352C205.683 106.776 204.819 105.984 204.211 104.976C203.603 103.968 203.299 102.824 203.299 101.544C203.299 100.28 203.595 99.144 204.187 98.136C204.795 97.112 205.619 96.32 206.659 95.76C207.715 95.184 208.891 94.896 210.187 94.896C211.451 94.896 212.595 95.168 213.619 95.712C214.643 96.256 215.443 97.04 216.019 98.064C216.611 99.072 216.907 100.248 216.907 101.592ZM210.211 97.728C209.363 97.728 208.651 97.968 208.075 98.448C207.499 98.928 207.147 99.584 207.019 100.416H213.379C213.251 99.6 212.899 98.952 212.323 98.472C211.747 97.976 211.043 97.728 210.211 97.728ZM227.248 94.896C228.848 94.896 230.136 95.376 231.112 96.336C232.104 97.296 232.6 98.72 232.6 100.608V108H228.856V101.184C228.856 100.16 228.632 99.4 228.184 98.904C227.736 98.392 227.088 98.136 226.24 98.136C225.296 98.136 224.544 98.432 223.984 99.024C223.424 99.6 223.144 100.464 223.144 101.616V108H219.4V95.088H222.976V96.6C223.472 96.056 224.088 95.64 224.824 95.352C225.56 95.048 226.368 94.896 227.248 94.896ZM240.338 108.192C239.266 108.192 238.218 108.064 237.194 107.808C236.17 107.536 235.354 107.2 234.746 106.8L235.994 104.112C236.57 104.48 237.266 104.784 238.082 105.024C238.898 105.248 239.698 105.36 240.482 105.36C242.066 105.36 242.858 104.968 242.858 104.184C242.858 103.816 242.642 103.552 242.21 103.392C241.778 103.232 241.114 103.096 240.218 102.984C239.162 102.824 238.29 102.64 237.602 102.432C236.914 102.224 236.314 101.856 235.802 101.328C235.306 100.8 235.058 100.048 235.058 99.072C235.058 98.256 235.29 97.536 235.754 96.912C236.234 96.272 236.922 95.776 237.818 95.424C238.73 95.072 239.802 94.896 241.034 94.896C241.946 94.896 242.85 95 243.746 95.208C244.658 95.4 245.41 95.672 246.002 96.024L244.754 98.688C243.618 98.048 242.378 97.728 241.034 97.728C240.234 97.728 239.634 97.84 239.234 98.064C238.834 98.288 238.634 98.576 238.634 98.928C238.634 99.328 238.85 99.608 239.282 99.768C239.714 99.928 240.402 100.08 241.346 100.224C242.402 100.4 243.266 100.592 243.938 100.8C244.61 100.992 245.194 101.352 245.69 101.88C246.186 102.408 246.434 103.144 246.434 104.088C246.434 104.888 246.194 105.6 245.714 106.224C245.234 106.848 244.53 107.336 243.602 107.688C242.69 108.024 241.602 108.192 240.338 108.192ZM253.952 94.896C255.952 94.896 257.488 95.376 258.56 96.336C259.632 97.28 260.168 98.712 260.168 100.632V108H256.664V106.392C255.96 107.592 254.648 108.192 252.728 108.192C251.736 108.192 250.872 108.024 250.136 107.688C249.416 107.352 248.864 106.888 248.48 106.296C248.096 105.704 247.904 105.032 247.904 104.28C247.904 103.08 248.352 102.136 249.248 101.448C250.16 100.76 251.56 100.416 253.448 100.416H256.424C256.424 99.6 256.176 98.976 255.68 98.544C255.184 98.096 254.44 97.872 253.448 97.872C252.76 97.872 252.08 97.984 251.408 98.208C250.752 98.416 250.192 98.704 249.728 99.072L248.384 96.456C249.088 95.96 249.928 95.576 250.904 95.304C251.896 95.032 252.912 94.896 253.952 94.896ZM253.664 105.672C254.304 105.672 254.872 105.528 255.368 105.24C255.864 104.936 256.216 104.496 256.424 103.92V102.6H253.856C252.32 102.6 251.552 103.104 251.552 104.112C251.552 104.592 251.736 104.976 252.104 105.264C252.488 105.536 253.008 105.672 253.664 105.672ZM263.556 90.192H267.3V108H263.556V90.192ZM283.423 101.592C283.423 101.64 283.399 101.976 283.351 102.6H273.583C273.759 103.4 274.175 104.032 274.831 104.496C275.487 104.96 276.303 105.192 277.279 105.192C277.951 105.192 278.543 105.096 279.055 104.904C279.583 104.696 280.071 104.376 280.519 103.944L282.511 106.104C281.295 107.496 279.519 108.192 277.183 108.192C275.727 108.192 274.439 107.912 273.319 107.352C272.199 106.776 271.335 105.984 270.727 104.976C270.119 103.968 269.815 102.824 269.815 101.544C269.815 100.28 270.111 99.144 270.703 98.136C271.311 97.112 272.135 96.32 273.175 95.76C274.231 95.184 275.407 94.896 276.703 94.896C277.967 94.896 279.111 95.168 280.135 95.712C281.159 96.256 281.959 97.04 282.535 98.064C283.127 99.072 283.423 100.248 283.423 101.592ZM276.727 97.728C275.879 97.728 275.167 97.968 274.591 98.448C274.015 98.928 273.663 99.584 273.535 100.416H279.895C279.767 99.6 279.415 98.952 278.839 98.472C278.263 97.976 277.559 97.728 276.727 97.728Z" fill="white"/>
<circle cx="81" cy="97" r="42" stroke="#162A36" stroke-width="18"/>
<path fill-rule="evenodd" clip-rule="evenodd" d="M76.7737 121.644C78.1475 121.878 79.5595 122 81 122C88.9168 122 95.9741 118.32 100.555 112.578L128.181 132.431C117.415 146.744 100.289 156 81 156C77.2423 156 73.5667 155.649 70.0042 154.977L76.7737 121.644Z" fill="url(#paint0_linear_886_118)"/>
<path d="M65.4343 101.85C69.3343 101.634 72.3583 101.394 74.5063 101.13C74.3023 101.754 74.1463 102.414 74.0383 103.11C73.9303 103.806 73.8763 104.436 73.8763 105H61.0063L60.9883 104.622C60.9883 103.446 61.3303 102.426 62.0143 101.562C62.7103 100.698 63.6763 99.9 64.9123 99.168C65.2723 98.952 65.8363 98.676 66.6043 98.34C67.6003 97.908 68.3683 97.53 68.9083 97.206C69.4483 96.87 69.7183 96.54 69.7183 96.216C69.7183 95.808 69.5503 95.484 69.2143 95.244C68.8783 95.004 68.3563 94.884 67.6483 94.884C66.8683 94.884 66.2743 95.082 65.8663 95.478C65.4703 95.874 65.2723 96.378 65.2723 96.99C65.2723 97.182 65.2903 97.38 65.3263 97.584C63.8143 97.392 62.3443 97.26 60.9163 97.188C60.9163 96.168 61.1803 95.25 61.7083 94.434C62.2483 93.606 63.0523 92.952 64.1203 92.472C65.2003 91.992 66.5203 91.752 68.0803 91.752C69.5083 91.752 70.6963 91.95 71.6443 92.346C72.6043 92.73 73.3063 93.222 73.7503 93.822C74.2063 94.41 74.4343 95.016 74.4343 95.64C74.4343 96.36 74.2723 96.978 73.9483 97.494C73.6363 98.01 73.1803 98.472 72.5803 98.88C71.9923 99.276 71.2003 99.708 70.2043 100.176C70.0603 100.248 69.8263 100.332 69.5023 100.428C69.1783 100.512 68.9743 100.566 68.8903 100.59C68.0383 100.842 67.3603 101.052 66.8563 101.22C66.3523 101.388 65.8783 101.598 65.4343 101.85ZM83.1816 101.67C84.2616 101.646 85.0596 101.622 85.5756 101.598V105H76.0536V101.598C77.3496 101.646 78.3276 101.67 78.9876 101.67V95.46C78.5556 96.408 77.6736 97.02 76.3416 97.296C76.3056 95.88 76.1736 94.59 75.9456 93.426C76.9056 93.294 77.5716 93.132 77.9436 92.94C78.3276 92.736 78.6216 92.514 78.8256 92.274C79.0416 92.034 79.1856 91.872 79.2576 91.788V91.752H83.1816V101.67ZM97.8676 98.556C98.6596 98.556 99.3376 98.7 99.9016 98.988C100.466 99.264 100.892 99.648 101.18 100.14C101.48 100.632 101.63 101.178 101.63 101.778C101.63 102.39 101.48 102.942 101.18 103.434C100.892 103.926 100.466 104.316 99.9016 104.604C99.3376 104.88 98.6596 105.018 97.8676 105.018C97.0636 105.018 96.3736 104.88 95.7976 104.604C95.2336 104.316 94.8016 103.926 94.5016 103.434C94.2136 102.942 94.0696 102.39 94.0696 101.778C94.0696 101.418 94.1236 101.076 94.2316 100.752L91.0456 105.018H86.8876L92.4856 97.53C91.8136 98.106 90.9136 98.394 89.7856 98.394C88.9816 98.394 88.2916 98.256 87.7156 97.98C87.1516 97.692 86.7196 97.302 86.4196 96.81C86.1316 96.318 85.9876 95.766 85.9876 95.154C85.9876 94.554 86.1316 94.008 86.4196 93.516C86.7196 93.024 87.1516 92.64 87.7156 92.364C88.2916 92.076 88.9816 91.932 89.7856 91.932C90.5776 91.932 91.2556 92.076 91.8196 92.364C92.3836 92.64 92.8096 93.024 93.0976 93.516C93.3976 94.008 93.5476 94.554 93.5476 95.154C93.5476 95.634 93.4576 96.072 93.2776 96.468L96.5716 92.076H100.712L95.3656 99.24C96.0136 98.784 96.8476 98.556 97.8676 98.556ZM89.7856 96.126C90.0376 96.126 90.2656 96.024 90.4696 95.82C90.6856 95.616 90.7936 95.388 90.7936 95.136C90.7936 94.884 90.6856 94.668 90.4696 94.488C90.2656 94.308 90.0376 94.218 89.7856 94.218C89.5096 94.218 89.2636 94.308 89.0476 94.488C88.8436 94.668 88.7416 94.884 88.7416 95.136C88.7416 95.4 88.8436 95.634 89.0476 95.838C89.2636 96.03 89.5096 96.126 89.7856 96.126ZM97.8676 102.75C98.1196 102.75 98.3476 102.648 98.5516 102.444C98.7676 102.24 98.8756 102.012 98.8756 101.76C98.8756 101.508 98.7676 101.292 98.5516 101.112C98.3476 100.932 98.1196 100.842 97.8676 100.842C97.5916 100.842 97.3456 100.932 97.1296 101.112C96.9256 101.292 96.8236 101.508 96.8236 101.76C96.8236 102.024 96.9256 102.258 97.1296 102.462C97.3456 102.654 97.5916 102.75 97.8676 102.75Z" fill="white"/>
<defs>
<linearGradient id="paint0_linear_886_118" x1="69.5584" y1="124.338" x2="89.7653" y2="176.275" gradientUnits="userSpaceOnUse">
<stop stop-color="#7F31FF"/>
<stop offset="1" stop-color="#090041"/>
</linearGradient>
</defs>
</svg>
