<svg width="25" height="21" viewBox="0 0 25 21" fill="none" xmlns="http://www.w3.org/2000/svg">
<path d="M24.2269 3.17952C23.3394 3.56456 22.3882 3.82308 21.3881 3.94042C22.4088 3.3427 23.1931 2.39662 23.5608 1.27086C22.6077 1.82274 21.5476 2.22427 20.4237 2.44063C19.5231 1.50188 18.2398 0.916992 16.8194 0.916992C14.0913 0.916992 11.8792 3.07685 11.8792 5.74275C11.8792 6.12045 11.9243 6.48898 12.0087 6.84284C7.90343 6.64116 4.26535 4.71966 1.82809 1.7989C1.40218 2.51397 1.16014 3.3427 1.16014 4.22645C1.16014 5.90043 2.03073 7.37822 3.35724 8.24547C2.5467 8.2198 1.78494 8.00161 1.11886 7.64041C1.11886 7.66058 1.11886 7.68075 1.11886 7.70092C1.11886 10.0405 2.82251 11.9895 5.07965 12.435C4.66688 12.545 4.22971 12.6037 3.7794 12.6037C3.46044 12.6037 3.15086 12.5743 2.84878 12.5157C3.4792 14.4317 5.30293 15.8306 7.46251 15.8691C5.77387 17.1636 3.64431 17.9336 1.329 17.9336C0.929361 17.9336 0.537222 17.9116 0.152588 17.8658C2.33656 19.2373 4.9333 20.0348 7.72331 20.0348C16.8082 20.0348 21.7765 12.6807 21.7765 6.3038C21.7765 6.09478 21.7709 5.88393 21.7634 5.67858C22.7278 4.99835 23.5646 4.14761 24.2269 3.17952Z" fill="#C9A061"/>
</svg>
