<svg width="28" height="23" viewBox="0 0 28 23" fill="none" xmlns="http://www.w3.org/2000/svg">
<path d="M27.4223 2.63729C26.4114 3.08611 25.3279 3.38745 24.1887 3.52423C25.3514 2.8275 26.2447 1.72471 26.6636 0.412478C25.5779 1.05577 24.3704 1.52382 23.0902 1.77601C22.0644 0.681764 20.6025 0 18.9847 0C15.8772 0 13.3574 2.51761 13.3574 5.62509C13.3574 6.06535 13.4087 6.49493 13.5049 6.9074C8.82874 6.67231 4.68472 4.43254 1.90851 1.02799C1.42337 1.86149 1.14767 2.8275 1.14767 3.85763C1.14767 5.80889 2.13933 7.53146 3.65032 8.54236C2.72706 8.51243 1.85936 8.25811 1.10065 7.83708C1.10065 7.86059 1.10065 7.8841 1.10065 7.90761C1.10065 10.6347 3.04122 12.9065 5.61227 13.4258C5.14208 13.5541 4.64412 13.6225 4.13119 13.6225C3.76787 13.6225 3.41523 13.5883 3.07114 13.5199C3.78924 15.7532 5.86659 17.3839 8.3265 17.4288C6.40303 18.9377 3.97731 19.8353 1.34002 19.8353C0.884798 19.8353 0.438125 19.8096 0 19.7562C2.48769 21.3548 5.44556 22.2845 8.62357 22.2845C18.9719 22.2845 24.6311 13.7122 24.6311 6.27907C24.6311 6.03543 24.6247 5.78965 24.6162 5.55029C25.7147 4.75739 26.6679 3.76573 27.4223 2.63729Z" fill="white"/>
</svg>
