<svg width="50" height="49" viewBox="0 0 50 49" fill="none" xmlns="http://www.w3.org/2000/svg">
<path d="M20.4176 2.53636C23.0935 0.969816 26.4065 0.969814 29.0824 2.53636L35.3218 6.18919L41.6049 9.76625C44.2995 11.3003 45.956 14.1695 45.9372 17.2701L45.8935 24.5L45.9372 31.7299C45.956 34.8305 44.2995 37.6997 41.6049 39.2337L35.3218 42.8108L29.0824 46.4636C26.4065 48.0302 23.0935 48.0302 20.4176 46.4636L14.1783 42.8108L7.89511 39.2337C5.20053 37.6997 3.54399 34.8305 3.56275 31.7299L3.6065 24.5L3.56275 17.2701C3.54399 14.1695 5.20053 11.3003 7.89511 9.76625L14.1783 6.18919L20.4176 2.53636Z" fill="#0A1E29"/>
<path fill-rule="evenodd" clip-rule="evenodd" d="M20.6667 17.6944L24.75 12.25L28.8333 17.6944C28.8333 17.6944 27.4579 17.2927 26.0253 17.1065C26.6286 18.4638 27.4271 19.9179 28.3796 20.8704C29.3321 21.8229 30.7862 22.6213 32.1435 23.2247C31.9573 21.7921 31.5556 20.4167 31.5556 20.4167L37 24.5L31.5556 28.5833C31.5556 28.5833 31.9573 27.2079 32.1435 25.7753C30.7862 26.3787 29.3321 27.1771 28.3796 28.1296C27.4271 29.0821 26.6286 30.5362 26.0253 31.8935C27.4579 31.7073 28.8333 31.3056 28.8333 31.3056L24.75 36.75L20.6667 31.3056C20.6667 31.3056 22.0421 31.7073 23.4746 31.8934C22.8713 30.5362 22.0728 29.0821 21.1203 28.1296C20.1679 27.1771 18.7138 26.3787 17.3566 25.7754C17.5427 27.2079 17.9444 28.5833 17.9444 28.5833L12.5 24.5L17.9444 20.4167C17.9444 20.4167 17.5427 21.7921 17.3566 23.2247C18.7138 22.6213 20.1679 21.8229 21.1203 20.8704C22.0728 19.9179 22.8713 18.4638 23.4746 17.1066C22.0421 17.2927 20.6667 17.6944 20.6667 17.6944Z" fill="#63A3C9"/>
</svg>
