<svg width="25" height="25" viewBox="0 0 25 25" fill="none" xmlns="http://www.w3.org/2000/svg">
<path fill-rule="evenodd" clip-rule="evenodd" d="M8.66667 5.69444L12.75 0.25L16.8333 5.69444C16.8333 5.69444 15.4579 5.2927 14.0253 5.10655C14.6286 6.46381 15.4271 7.91787 16.3796 8.87037C17.3321 9.82287 18.7862 10.6213 20.1435 11.2247C19.9573 9.79213 19.5556 8.41667 19.5556 8.41667L25 12.5L19.5556 16.5833C19.5556 16.5833 19.9573 15.2079 20.1435 13.7753C18.7862 14.3787 17.3321 15.1771 16.3796 16.1296C15.4271 17.0821 14.6286 18.5362 14.0253 19.8935C15.4579 19.7073 16.8333 19.3056 16.8333 19.3056L12.75 24.75L8.66667 19.3056C8.66667 19.3056 10.0421 19.7073 11.4746 19.8934C10.8713 18.5362 10.0728 17.0821 9.12035 16.1296C8.16785 15.1771 6.7138 14.3787 5.35655 13.7754C5.5427 15.2079 5.94444 16.5833 5.94444 16.5833L0.5 12.5L5.94444 8.41667C5.94444 8.41667 5.5427 9.79211 5.35655 11.2247C6.7138 10.6213 8.16785 9.82286 9.12035 8.87037C10.0728 7.91787 10.8713 6.46381 11.4746 5.10655C10.0421 5.29271 8.66667 5.69444 8.66667 5.69444Z" fill="#63A3C9"/>
</svg>
