<svg width="26" height="20" viewBox="0 0 26 20" fill="none" xmlns="http://www.w3.org/2000/svg">
<path d="M21.6052 1.62059C19.9542 0.863377 18.1887 0.313227 16.3434 0C16.1167 0.401417 15.8518 0.941891 15.6694 1.37151C13.7073 1.08233 11.7636 1.08233 9.83776 1.37151C9.65502 0.941891 9.38437 0.401417 9.1556 0C7.30803 0.313227 5.5407 0.865589 3.88972 1.62447C0.559674 6.55702 -0.343044 11.3668 0.108301 16.1086C2.31698 17.7251 4.45742 18.7073 6.56176 19.3498C7.08134 18.649 7.54474 17.904 7.94394 17.1188C7.18366 16.8354 6.45547 16.486 5.76739 16.0804C5.94994 15.9477 6.12847 15.8092 6.30098 15.6666C10.4977 17.5907 15.0573 17.5907 19.2039 15.6666C19.3783 15.8092 19.5569 15.9477 19.7374 16.0804C19.0474 16.4882 18.3173 16.8377 17.557 17.1208C17.9562 17.904 18.4176 18.6509 18.939 19.352C21.0454 18.7093 23.1879 17.7273 25.3965 16.1086C25.9262 10.6118 24.492 5.84597 21.6052 1.62059ZM8.51566 13.1926C7.25587 13.1926 6.22274 12.0397 6.22274 10.6359C6.22274 9.23203 7.23381 8.07727 8.51566 8.07727C9.79767 8.07727 10.8305 9.23009 10.8087 10.6359C10.8106 12.0397 9.79767 13.1926 8.51566 13.1926ZM16.9892 13.1926C15.7293 13.1926 14.6962 12.0397 14.6962 10.6359C14.6962 9.23203 15.7072 8.07727 16.9892 8.07727C18.2711 8.07727 19.3042 9.23009 19.2821 10.6359C19.2821 12.0397 18.2711 13.1926 16.9892 13.1926Z" fill="white"/>
</svg>
