<svg width="466" height="213" viewBox="0 0 466 213" fill="none" xmlns="http://www.w3.org/2000/svg">
<path d="M230.372 193.291C232.846 191.863 235.894 191.863 238.368 193.291L242.304 195.562C244.781 196.991 246.307 199.632 246.307 202.491V207.023C246.307 209.882 244.781 212.524 242.304 213.953L238.368 216.224C235.894 217.651 232.846 217.651 230.372 216.224L226.436 213.953C223.959 212.524 222.434 209.882 222.434 207.023V202.491C222.434 199.632 223.959 196.991 226.436 195.562L230.372 193.291Z" fill="#0C1F2B"/>
<path d="M230.372 145.545C232.846 144.117 235.894 144.117 238.368 145.545L242.304 147.816C244.781 149.244 246.307 151.886 246.307 154.745V159.277C246.307 162.136 244.781 164.778 242.304 166.207L238.368 168.478C235.894 169.905 232.846 169.905 230.372 168.478L226.436 166.207C223.959 164.778 222.434 162.136 222.434 159.277V154.745C222.434 151.886 223.959 149.244 226.436 147.816L230.372 145.545Z" fill="#0C1F2B"/>
<path d="M244.451 169.418C246.926 167.99 249.973 167.99 252.447 169.418L256.383 171.689C258.86 173.118 260.386 175.759 260.386 178.618V183.15C260.386 186.009 258.86 188.651 256.383 190.08L252.447 192.351C249.973 193.778 246.926 193.778 244.451 192.351L240.515 190.08C238.038 188.651 236.513 186.009 236.513 183.15V178.618C236.513 175.759 238.038 173.118 240.515 171.689L244.451 169.418Z" fill="#0C1F2B"/>
<path d="M244.451 121.672C246.926 120.244 249.973 120.244 252.447 121.672L256.383 123.943C258.86 125.371 260.386 128.013 260.386 130.872V135.404C260.386 138.263 258.86 140.905 256.383 142.333L252.447 144.604C249.973 146.032 246.926 146.032 244.451 144.604L240.515 142.333C238.038 140.905 236.513 138.263 236.513 135.404V130.872C236.513 128.013 238.038 125.371 240.515 123.943L244.451 121.672Z" fill="#0C1F2B"/>
<path d="M313.622 193.291C316.096 191.863 319.143 191.863 321.617 193.291L325.554 195.562C328.03 196.991 329.556 199.632 329.556 202.491V207.023C329.556 209.882 328.03 212.524 325.554 213.953L321.617 216.224C319.143 217.651 316.096 217.651 313.622 216.224L309.685 213.953C307.209 212.524 305.683 209.882 305.683 207.023V202.491C305.683 199.632 307.209 196.991 309.685 195.562L313.622 193.291Z" fill="#173344"/>
<path d="M396.871 145.545C399.345 144.117 402.393 144.117 404.867 145.545L408.803 147.816C411.28 149.244 412.806 151.886 412.806 154.745V159.277C412.806 162.136 411.28 164.778 408.803 166.207L404.867 168.478C402.393 169.905 399.345 169.905 396.871 168.478L392.935 166.207C390.458 164.778 388.933 162.136 388.933 159.277V154.745C388.933 151.886 390.458 149.244 392.935 147.816L396.871 145.545Z" fill="#0C1F2B"/>
<path d="M257.918 193.291C260.392 191.863 263.44 191.863 265.914 193.291L269.85 195.562C272.327 196.991 273.853 199.632 273.853 202.491V207.023C273.853 209.882 272.327 212.524 269.85 213.953L265.914 216.224C263.44 217.651 260.392 217.651 257.918 216.224L253.982 213.953C251.505 212.524 249.979 209.882 249.979 207.023V202.491C249.979 199.632 251.505 196.991 253.982 195.562L257.918 193.291Z" fill="#173344"/>
<path d="M257.918 97.7986C260.392 96.3712 263.44 96.3712 265.914 97.7986L269.85 100.07C272.327 101.498 273.853 104.14 273.853 106.999V111.531C273.853 114.39 272.327 117.032 269.85 118.461L265.914 120.732C263.44 122.159 260.392 122.159 257.918 120.732L253.982 118.461C251.505 117.032 249.979 114.39 249.979 111.531V106.999C249.979 104.14 251.505 101.498 253.982 100.07L257.918 97.7986Z" fill="#0C1F2B"/>
<path d="M341.168 193.291C343.642 191.863 346.689 191.863 349.163 193.291L353.1 195.562C355.576 196.991 357.102 199.632 357.102 202.491V207.023C357.102 209.882 355.576 212.524 353.1 213.953L349.163 216.224C346.689 217.651 343.642 217.651 341.168 216.224L337.231 213.953C334.755 212.524 333.229 209.882 333.229 207.023V202.491C333.229 199.632 334.755 196.991 337.231 195.562L341.168 193.291Z" fill="#173344"/>
<path d="M341.168 145.545C343.642 144.117 346.689 144.117 349.163 145.545L353.1 147.816C355.576 149.244 357.102 151.886 357.102 154.745V159.277C357.102 162.136 355.576 164.778 353.1 166.207L349.163 168.478C346.689 169.905 343.642 169.905 341.168 168.478L337.231 166.207C334.755 164.778 333.229 162.136 333.229 159.277V154.745C333.229 151.886 334.755 149.244 337.231 147.816L341.168 145.545Z" fill="#0C1F2B"/>
<path d="M355.246 169.418C357.72 167.99 360.768 167.99 363.242 169.418L367.178 171.689C369.655 173.118 371.181 175.759 371.181 178.618V183.15C371.181 186.009 369.655 188.651 367.178 190.08L363.242 192.351C360.768 193.778 357.72 193.778 355.246 192.351L351.31 190.08C348.833 188.651 347.308 186.009 347.308 183.15V178.618C347.308 175.759 348.833 173.118 351.31 171.689L355.246 169.418Z" fill="#0C1F2B"/>
<path d="M355.246 121.672C357.72 120.244 360.768 120.244 363.242 121.672L367.178 123.943C369.655 125.371 371.181 128.013 371.181 130.872V135.404C371.181 138.263 369.655 140.905 367.178 142.333L363.242 144.604C360.768 146.032 357.72 146.032 355.246 144.604L351.31 142.333C348.833 140.905 347.308 138.263 347.308 135.404V130.872C347.308 128.013 348.833 125.371 351.31 123.943L355.246 121.672Z" fill="#0C1F2B"/>
<path d="M424.417 145.545C426.891 144.117 429.939 144.117 432.413 145.545L436.349 147.816C438.826 149.244 440.352 151.886 440.352 154.745V159.277C440.352 162.136 438.826 164.778 436.349 166.207L432.413 168.478C429.939 169.905 426.891 169.905 424.417 168.478L420.481 166.207C418.004 164.778 416.479 162.136 416.479 159.277V154.745C416.479 151.886 418.004 149.244 420.481 147.816L424.417 145.545Z" fill="#0C1F2B"/>
<path d="M424.417 2.30641C426.891 0.879057 429.939 0.879057 432.413 2.30641L436.349 4.57748C438.826 6.0062 440.352 8.64792 440.352 11.507V16.0388C440.352 18.8979 438.826 21.5396 436.349 22.9683L432.413 25.2394C429.939 26.6667 426.891 26.6667 424.417 25.2394L420.481 22.9683C418.004 21.5396 416.479 18.8979 416.479 16.0388V11.507C416.479 8.64792 418.004 6.0062 420.481 4.57748L424.417 2.30641Z" fill="#0C1F2B"/>
<path d="M285.464 193.291C287.938 191.863 290.986 191.863 293.46 193.291L297.396 195.562C299.873 196.991 301.398 199.632 301.398 202.491V207.023C301.398 209.882 299.873 212.524 297.396 213.953L293.46 216.224C290.986 217.651 287.938 217.651 285.464 216.224L281.528 213.953C279.051 212.524 277.525 209.882 277.525 207.023V202.491C277.525 199.632 279.051 196.991 281.528 195.562L285.464 193.291Z" fill="#0C1F2B"/>
<path d="M299.543 169.418C302.017 167.99 305.064 167.99 307.538 169.418L311.475 171.689C313.951 173.118 315.477 175.759 315.477 178.618V183.15C315.477 186.009 313.951 188.651 311.475 190.08L307.538 192.351C305.064 193.778 302.017 193.778 299.543 192.351L295.606 190.08C293.13 188.651 291.604 186.009 291.604 183.15V178.618C291.604 175.759 293.13 173.118 295.606 171.689L299.543 169.418Z" fill="#173344"/>
<path d="M368.713 193.291C371.187 191.863 374.235 191.863 376.709 193.291L380.645 195.562C383.122 196.991 384.647 199.632 384.647 202.491V207.023C384.647 209.882 383.122 212.524 380.645 213.953L376.709 216.224C374.235 217.651 371.187 217.651 368.713 216.224L364.777 213.953C362.3 212.524 360.774 209.882 360.774 207.023V202.491C360.774 199.632 362.3 196.991 364.777 195.562L368.713 193.291Z" fill="#0C1F2B"/>
<path d="M368.713 50.0525C371.187 48.6252 374.235 48.6252 376.709 50.0525L380.645 52.3236C383.122 53.7523 384.647 56.394 384.647 59.2531V63.7849C384.647 66.644 383.122 69.2857 380.645 70.7144L376.709 72.9855C374.235 74.4128 371.187 74.4128 368.713 72.9855L364.777 70.7144C362.3 69.2857 360.774 66.644 360.774 63.7849V59.2531C360.774 56.394 362.3 53.7523 364.777 52.3236L368.713 50.0525Z" fill="#0C1F2B"/>
<path d="M451.963 193.291C454.437 191.863 457.484 191.863 459.958 193.291L463.895 195.562C466.371 196.991 467.897 199.632 467.897 202.491V207.023C467.897 209.882 466.371 212.524 463.895 213.953L459.958 216.224C457.484 217.651 454.437 217.651 451.963 216.224L448.026 213.953C445.55 212.524 444.024 209.882 444.024 207.023V202.491C444.024 199.632 445.55 196.991 448.026 195.562L451.963 193.291Z" fill="#0C1F2B"/>
<path d="M466.042 169.418C468.516 167.99 471.563 167.99 474.037 169.418L477.974 171.689C480.45 173.118 481.976 175.759 481.976 178.618V183.15C481.976 186.009 480.45 188.651 477.974 190.08L474.037 192.351C471.563 193.778 468.516 193.778 466.042 192.351L462.105 190.08C459.629 188.651 458.103 186.009 458.103 183.15V178.618C458.103 175.759 459.629 173.118 462.105 171.689L466.042 169.418Z" fill="#0C1F2B"/>
<path d="M466.042 73.9256C468.516 72.4982 471.563 72.4982 474.037 73.9256L477.974 76.1966C480.45 77.6253 481.976 80.2671 481.976 83.1261V87.658C481.976 90.517 480.45 93.1587 477.974 94.5875L474.037 96.8585C471.563 98.2859 468.516 98.2859 466.042 96.8585L462.105 94.5875C459.629 93.1587 458.103 90.517 458.103 87.658V83.1261C458.103 80.2671 459.629 77.6253 462.105 76.1966L466.042 73.9256Z" fill="#0C1F2B"/>
<path d="M160.971 169.785C163.445 168.358 166.492 168.358 168.967 169.785L172.903 172.056C175.379 173.485 176.905 176.127 176.905 178.986V183.518C176.905 186.377 175.379 189.018 172.903 190.447L168.967 192.718C166.492 194.146 163.445 194.146 160.971 192.718L157.034 190.447C154.558 189.018 153.032 186.377 153.032 183.518V178.986C153.032 176.127 154.558 173.485 157.034 172.056L160.971 169.785Z" fill="#0C1F2B"/>
<path d="M7.93873 145.912C10.4128 144.485 13.4602 144.485 15.9343 145.912L19.8708 148.183C22.3473 149.612 23.873 152.254 23.873 155.113V159.645C23.873 162.504 22.3473 165.146 19.8708 166.574L15.9343 168.845C13.4602 170.273 10.4128 170.273 7.93873 168.845L4.00222 166.574C1.52576 165.146 0 162.504 0 159.645V155.113C0 152.254 1.52576 149.612 4.00222 148.183L7.93873 145.912Z" fill="#0C1F2B"/>
<path d="M22.0178 169.785C24.4919 168.358 27.5393 168.358 30.0134 169.785L33.9499 172.056C36.4264 173.485 37.9521 176.127 37.9521 178.986V183.518C37.9521 186.377 36.4264 189.018 33.9499 190.447L30.0134 192.718C27.5393 194.146 24.4919 194.146 22.0178 192.718L18.0813 190.447C15.6049 189.018 14.0791 186.377 14.0791 183.518V178.986C14.0791 176.127 15.6049 173.485 18.0813 172.056L22.0178 169.785Z" fill="#173344"/>
<path d="M35.5667 193.291C38.0407 191.864 41.0881 191.864 43.5622 193.291L47.4987 195.562C49.9752 196.991 51.501 199.632 51.501 202.491V207.023C51.501 209.882 49.9752 212.524 47.4987 213.953L43.5622 216.224C41.0881 217.651 38.0407 217.651 35.5667 216.224L31.6301 213.953C29.1537 212.524 27.6279 209.882 27.6279 207.023V202.491C27.6279 199.632 29.1537 196.991 31.6302 195.562L35.5667 193.291Z" fill="#0C1F2B"/>
<path d="M91.1882 145.912C93.6623 144.485 96.7097 144.485 99.1838 145.912L103.12 148.183C105.597 149.612 107.123 152.254 107.123 155.113V159.645C107.123 162.504 105.597 165.146 103.12 166.574L99.1838 168.845C96.7097 170.273 93.6623 170.273 91.1882 168.845L87.2517 166.574C84.7753 165.146 83.2495 162.504 83.2495 159.645V155.113C83.2495 152.254 84.7753 149.612 87.2517 148.183L91.1882 145.912Z" fill="#0C1F2B"/>
<path d="M105.267 169.785C107.741 168.358 110.789 168.358 113.263 169.785L117.199 172.056C119.676 173.485 121.202 176.127 121.202 178.986V183.518C121.202 186.377 119.676 189.018 117.199 190.447L113.263 192.718C110.789 194.146 107.741 194.146 105.267 192.718L101.331 190.447C98.8544 189.018 97.3286 186.377 97.3286 183.518V178.986C97.3286 176.127 98.8544 173.485 101.331 172.056L105.267 169.785Z" fill="#173344"/>
<path d="M188.517 169.785C190.991 168.358 194.038 168.358 196.512 169.785L200.449 172.056C202.925 173.485 204.451 176.127 204.451 178.986V183.518C204.451 186.377 202.925 189.018 200.449 190.447L196.512 192.718C194.038 194.146 190.991 194.146 188.517 192.718L184.58 190.447C182.104 189.018 180.578 186.377 180.578 183.518V178.986C180.578 176.127 182.104 173.485 184.58 172.056L188.517 169.785Z" fill="#0C1F2B"/>
<path d="M35.4846 145.912C37.9587 144.485 41.0061 144.485 43.4802 145.912L47.4167 148.183C49.8932 149.612 51.4189 152.254 51.4189 155.113V159.645C51.4189 162.504 49.8932 165.146 47.4167 166.574L43.4802 168.845C41.0061 170.273 37.9587 170.273 35.4846 168.845L31.5481 166.574C29.0717 165.146 27.5459 162.504 27.5459 159.645V155.113C27.5459 152.254 29.0717 149.612 31.5481 148.183L35.4846 145.912Z" fill="#0C1F2B"/>
<path d="M49.5632 169.785C52.0373 168.358 55.0847 168.358 57.5588 169.785L61.4953 172.056C63.9718 173.485 65.4975 176.127 65.4975 178.986V183.518C65.4975 186.377 63.9718 189.018 61.4953 190.447L57.5588 192.718C55.0847 194.146 52.0373 194.146 49.5632 192.718L45.6267 190.447C43.1503 189.018 41.6245 186.377 41.6245 183.518V178.986C41.6245 176.127 43.1503 173.485 45.6267 172.056L49.5632 169.785Z" fill="#0C1F2B"/>
<path d="M118.734 145.912C121.208 144.485 124.256 144.485 126.73 145.912L130.666 148.183C133.143 149.612 134.668 152.254 134.668 155.113V159.645C134.668 162.504 133.143 165.146 130.666 166.574L126.73 168.845C124.256 170.273 121.208 170.273 118.734 168.845L114.798 166.574C112.321 165.146 110.795 162.504 110.795 159.645V155.113C110.795 152.254 112.321 149.612 114.798 148.183L118.734 145.912Z" fill="#0C1F2B"/>
<path d="M201.984 145.912C204.458 144.485 207.505 144.485 209.979 145.912L213.916 148.183C216.392 149.612 217.918 152.254 217.918 155.113V159.645C217.918 162.504 216.392 165.146 213.916 166.574L209.979 168.845C207.505 170.273 204.458 170.273 201.984 168.845L198.047 166.574C195.571 165.146 194.045 162.504 194.045 159.645V155.113C194.045 152.254 195.571 149.612 198.047 148.183L201.984 145.912Z" fill="#0C1F2B"/>
<path d="M216.063 169.785C218.537 168.358 221.584 168.358 224.058 169.785L227.995 172.056C230.471 173.485 231.997 176.127 231.997 178.986V183.518C231.997 186.377 230.471 189.018 227.995 190.447L224.058 192.718C221.584 194.146 218.537 194.146 216.063 192.718L212.126 190.447C209.65 189.018 208.124 186.377 208.124 183.518V178.986C208.124 176.127 209.65 173.485 212.126 172.056L216.063 169.785Z" fill="#0C1F2B"/>
<path d="M216.063 122.039C218.537 120.612 221.584 120.612 224.058 122.039L227.995 124.31C230.471 125.739 231.997 128.381 231.997 131.24V135.772C231.997 138.631 230.471 141.273 227.995 142.701L224.058 144.972C221.584 146.4 218.537 146.4 216.063 144.972L212.126 142.701C209.65 141.273 208.124 138.631 208.124 135.772V131.24C208.124 128.381 209.65 125.739 212.126 124.31L216.063 122.039Z" fill="#0C1F2B"/>
</svg>
