<svg width="32" height="33" viewBox="0 0 32 33" fill="none" xmlns="http://www.w3.org/2000/svg">
<path d="M21 4.125C19.207 4.125 17.582 4.4715 16.312 5.12428C15.043 5.77706 14 6.84028 14 8.25V12.375C14 12.508 14.043 12.6369 14.063 12.7617C13.062 12.4994 12.0328 12.3695 11 12.375C9.207 12.375 7.582 12.7215 6.312 13.3743C5.043 14.0271 4 15.0903 4 16.5V24.75C4 26.1597 5.043 27.2229 6.313 27.8757C7.582 28.5285 9.207 28.875 11 28.875C12.793 28.875 14.418 28.5285 15.688 27.8757C16.956 27.2229 18 26.1597 18 24.75V24.3313C18.9782 24.604 19.9867 24.7448 21 24.75C22.793 24.75 24.418 24.4035 25.688 23.7507C26.956 23.0979 28 22.0347 28 20.625V8.25C28 6.84028 26.957 5.77706 25.687 5.12428C24.419 4.4715 22.794 4.125 21 4.125ZM21 6.1875C22.523 6.1875 23.879 6.52575 24.781 6.99291C25.684 7.46006 26 7.95197 26 8.25C26 8.54906 25.684 9.03994 24.781 9.50709C23.88 9.97425 22.523 10.3125 21 10.3125C19.477 10.3125 18.121 9.97425 17.219 9.50709C16.316 9.03994 16 8.54803 16 8.25C16 7.95094 16.316 7.46006 17.219 6.99291C18.12 6.52575 19.477 6.1875 21 6.1875ZM16 11.1829C16.105 11.2427 16.203 11.32 16.313 11.3757C17.582 12.0285 19.207 12.375 21 12.375C22.793 12.375 24.418 12.0285 25.688 11.3757C25.797 11.32 25.895 11.2427 26 11.1829V12.375C26 12.6741 25.684 13.1649 24.781 13.6321C23.879 14.0992 22.523 14.4375 21 14.4375C19.477 14.4375 18.121 14.0992 17.219 13.6321C16.316 13.1649 16 12.673 16 12.375V11.1829ZM11 14.4375C12.523 14.4375 13.879 14.7758 14.781 15.2429C15.684 15.7101 16 16.202 16 16.5C16 16.7991 15.684 17.2899 14.781 17.7571C13.879 18.2242 12.523 18.5625 11 18.5625C9.477 18.5625 8.121 18.2242 7.219 17.7571C6.316 17.2899 6 16.798 6 16.5C6 16.2009 6.316 15.7101 7.219 15.2429C8.12 14.7758 9.477 14.4375 11 14.4375ZM26 15.3079V16.5C26 16.7991 25.684 17.2899 24.781 17.7571C23.879 18.2242 22.523 18.5625 21 18.5625C19.9813 18.5682 18.9684 18.4049 18 18.0788V16.5C18 16.367 17.957 16.2381 17.937 16.1133C18.867 16.3628 19.898 16.5 21 16.5C22.793 16.5 24.418 16.1535 25.688 15.5007C25.797 15.445 25.895 15.3677 26 15.3079ZM6 19.4329C6.105 19.4927 6.203 19.57 6.313 19.6257C7.582 20.2785 9.207 20.625 11 20.625C12.793 20.625 14.418 20.2785 15.688 19.6257C15.797 19.57 15.895 19.4927 16 19.4329V20.625C16 20.9241 15.684 21.4149 14.781 21.8821C13.879 22.3493 12.523 22.6875 11 22.6875C9.477 22.6875 8.121 22.3493 7.219 21.8821C6.316 21.4149 6 20.923 6 20.625V19.4329ZM26 19.4329V20.625C26 20.9241 25.684 21.4149 24.781 21.8821C23.879 22.3493 22.523 22.6875 21 22.6875C19.863 22.6875 18.836 22.5225 18 22.2358V20.2383C18.918 20.4878 19.918 20.625 21 20.625C22.793 20.625 24.418 20.2785 25.688 19.6257C25.797 19.57 25.895 19.4927 26 19.4329ZM6 23.5579C6.105 23.6177 6.203 23.695 6.313 23.7507C7.582 24.4035 9.207 24.75 11 24.75C12.793 24.75 14.418 24.4035 15.688 23.7507C15.797 23.695 15.895 23.6177 16 23.5579V24.75C16 25.0491 15.684 25.5399 14.781 26.0071C13.879 26.4743 12.523 26.8125 11 26.8125C9.477 26.8125 8.121 26.4743 7.219 26.0071C6.316 25.5399 6 25.048 6 24.75V23.5579Z" fill="#442910"/>
</svg>
