<svg width="42" height="39" viewBox="0 0 42 39" fill="none" xmlns="http://www.w3.org/2000/svg">
<ellipse cx="21.0496" cy="19.4224" rx="20.716" ry="19.0352" fill="#20313A"/>
<path fill-rule="evenodd" clip-rule="evenodd" d="M16.537 9.35847C17.0277 9.41572 17.4723 9.65329 17.7691 10.0169L22.5216 15.8395L19.597 17.855L17.229 14.9538L15.1774 23.3416H11.4325L13.3968 15.3147L9.92839 17.8643L7.64465 15.2412L15.1649 9.71315C15.5512 9.42919 16.0462 9.30123 16.537 9.35847ZM30.9299 15.5035L28.8319 24.7483L32.4339 22.1005L34.7176 24.7236L27.1973 30.2517C26.811 30.5357 26.316 30.6636 25.8253 30.6064C25.3345 30.5491 24.89 30.3116 24.5932 29.9479L19.8407 24.1254L22.7653 22.1099L25.0648 24.9272L27.2017 15.5035H30.9299Z" fill="white"/>
</svg>
