<svg width="14" height="14" viewBox="0 0 14 14" fill="none" xmlns="http://www.w3.org/2000/svg">
<path fill-rule="evenodd" clip-rule="evenodd" d="M7 14C10.866 14 14 10.866 14 7C14 3.13401 10.866 0 7 0C3.13401 0 0 3.13401 0 7C0 10.866 3.13401 14 7 14ZM6.27219 8.51235C6.27219 8.01611 6.33245 7.62089 6.45296 7.32669C6.57348 7.0325 6.79324 6.74361 7.11225 6.46005C7.43481 6.17294 7.64925 5.94077 7.75559 5.76354C7.86192 5.58277 7.91509 5.39314 7.91509 5.19464C7.91509 4.59561 7.63862 4.29609 7.08567 4.29609C6.82337 4.29609 6.61247 4.37762 6.45296 4.54067C6.297 4.70017 6.21548 4.92171 6.20839 5.20528H4.6665C4.67359 4.52826 4.89158 3.99835 5.32048 3.61554C5.75291 3.23273 6.34131 3.04132 7.08567 3.04132C7.83711 3.04132 8.42019 3.22387 8.83491 3.58896C9.24962 3.9505 9.45698 4.46269 9.45698 5.12552C9.45698 5.42681 9.38963 5.71215 9.25494 5.98153C9.12024 6.24738 8.88453 6.54335 8.5478 6.86945L8.11713 7.27884C7.84775 7.5376 7.69356 7.84066 7.65457 8.18802L7.6333 8.51235H6.27219ZM6.118 10.1446C6.118 9.90713 6.19775 9.71218 6.35726 9.55977C6.52031 9.40381 6.72767 9.32583 6.97933 9.32583C7.23099 9.32583 7.43658 9.40381 7.59608 9.55977C7.75913 9.71218 7.84066 9.90713 7.84066 10.1446C7.84066 10.3786 7.7609 10.5717 7.6014 10.7242C7.44544 10.8766 7.23808 10.9528 6.97933 10.9528C6.72058 10.9528 6.51145 10.8766 6.35194 10.7242C6.19598 10.5717 6.118 10.3786 6.118 10.1446Z" fill="#5E7785"/>
</svg>
