<svg width="24" height="22" viewBox="0 0 24 22" fill="none" xmlns="http://www.w3.org/2000/svg">
<path fill-rule="evenodd" clip-rule="evenodd" d="M18.1696 20.844C18.4808 21.0732 18.8818 21.1305 19.2394 20.9898C19.597 20.8481 19.8598 20.5305 19.9391 20.1455C20.7788 16.0409 22.816 5.65158 23.5804 1.91779C23.6384 1.63637 23.5417 1.3439 23.3291 1.15595C23.1165 0.968008 22.8218 0.913735 22.5589 1.01525C18.5069 2.5751 6.02803 7.4446 0.927482 9.40748C0.603745 9.53211 0.393075 9.85574 0.403705 10.2105C0.415301 10.5663 0.6453 10.8749 0.976768 10.9784C3.26419 11.69 6.26673 12.68 6.26673 12.68C6.26673 12.68 7.66991 17.0871 8.40146 19.3284C8.49327 19.6098 8.7049 19.8309 8.98419 19.9073C9.2625 19.9827 9.56015 19.9033 9.76792 19.6993C10.943 18.5455 12.7598 16.7615 12.7598 16.7615C12.7598 16.7615 16.2117 19.3937 18.1696 20.844ZM7.52979 12.1231L9.15234 17.6892L9.51279 14.1644C9.51279 14.1644 15.7817 8.28383 19.3554 4.93196C19.4597 4.83346 19.4742 4.66863 19.3873 4.55305C19.3013 4.43747 19.1428 4.41033 19.0239 4.48873C14.882 7.23957 7.52979 12.1231 7.52979 12.1231Z" fill="#C9A061"/>
</svg>
